M48
; DRILL file {KiCad (5.1.7)-1} date 11/15/20 19:07:47
; FORMAT={-:-/ absolute / inch / decimal}
; #@! TF.CreationDate,2020-11-15T19:07:47-05:00
; #@! TF.GenerationSoftware,Kicad,Pcbnew,(5.1.7)-1
; #@! TF.FileFunction,Plated,1,2,PTH
FMAT,2
INCH
T1C0.0157
T2C0.0256
T3C0.0276
T4C0.0300
T5C0.0315
T6C0.0362
T7C0.0374
T8C0.0394
T9C0.0591
T10C0.0630
T11C0.0906
T12C0.0917
%
G90
G05
T1
X2.8346Y-4.1654
X2.8346Y-4.2126
X2.874Y-4.4094
X2.874Y-4.3307
X2.874Y-4.4882
X2.9213Y-3.7559
X2.9528Y-3.8386
X2.9528Y-3.937
X2.9528Y-4.0354
X2.9528Y-4.1339
X2.9528Y-4.2323
X2.9528Y-4.3307
X3.0354Y-4.9488
X3.0709Y-3.7008
X3.1496Y-4.8228
X3.248Y-4.8228
X3.3268Y-3.7008
X3.3465Y-4.8228
X3.4449Y-4.8228
X3.4724Y-4.9449
X3.4724Y-4.9843
X3.622Y-3.7402
X3.6417Y-3.8386
X3.6417Y-3.937
X3.6417Y-4.0354
X3.6417Y-4.1339
X3.6417Y-4.2323
X3.6417Y-4.3209
X3.6811Y-3.5236
X3.6811Y-3.5827
X3.7008Y-4.4803
X3.7008Y-4.3228
X3.7293Y-4.4151
X3.7323Y-3.8386
X3.7323Y-4.1339
X3.7402Y-4.2323
X3.7561Y-4.4478
X3.7576Y-4.3877
X3.7638Y-3.7402
X3.7722Y-4.5113
X3.7992Y-3.5827
X3.8386Y-3.8386
X3.8386Y-4.9409
X3.8425Y-4.4724
X3.874Y-3.7441
X3.8898Y-4.4724
X3.9173Y-3.7008
X3.9173Y-3.7441
X3.9208Y-4.3233
X3.9449Y-4.1299
X3.9528Y-4.2992
X3.9921Y-3.7441
X4.0157Y-4.4577
X4.0354Y-3.8386
X4.0394Y-3.748
X4.0945Y-3.6614
X4.0945Y-3.7402
X4.0945Y-3.9528
X4.1181Y-4.8976
X4.1368Y-4.0155
X4.1499Y-3.736
X4.1535Y-3.6614
X4.1575Y-3.9675
X4.1735Y-3.6983
X4.1852Y-3.7535
X4.189Y-4.1496
X4.2186Y-3.7744
X4.2205Y-3.9764
X4.2205Y-4.874
X4.252Y-3.7953
X4.2557Y-4.0176
X4.2598Y-4.4961
X4.2756Y-4.3386
X4.2835Y-3.6614
X4.2913Y-3.8071
X4.2953Y-3.878
X4.2953Y-3.9213
X4.2992Y-4.4961
X4.315Y-4.8504
X4.3386Y-3.6614
X4.3425Y-3.878
X4.3543Y-4.4252
X4.4094Y-4.8346
X4.4173Y-4.3465
X4.4298Y-4.1307
X4.4331Y-4.2992
X4.4567Y-4.2677
X4.4882Y-3.8976
X4.4882Y-3.9764
X4.5039Y-4.1575
X4.5118Y-4.811
X4.5472Y-3.5236
X4.5472Y-3.5827
X4.5472Y-3.6417
X4.6063Y-3.7008
X4.6142Y-4.811
X4.7244Y-4.0354
X4.7244Y-4.1339
X4.7244Y-4.2323
X4.7244Y-4.3307
X4.7244Y-4.4291
X4.7244Y-4.5276
X4.7244Y-4.626
X4.7638Y-3.7008
X4.8189Y-4.8268
X4.8228Y-4.0354
X4.8228Y-4.1339
X4.8228Y-4.5276
X4.8228Y-4.626
X4.8819Y-3.6673
X4.9213Y-4.0354
X4.9213Y-4.1339
X4.9213Y-4.5276
X4.9213Y-4.626
X4.9606Y-4.8504
X5.0197Y-3.7008
X5.0197Y-4.0354
X5.0197Y-4.1339
X5.0197Y-4.2323
X5.0197Y-4.3307
X5.0197Y-4.4291
X5.0197Y-4.5276
X5.0197Y-4.626
X5.1181Y-4.0354
X5.1181Y-4.1339
X5.1181Y-4.2323
X5.1181Y-4.3307
X5.1181Y-4.4291
X5.1181Y-4.5276
X5.1181Y-4.626
X5.1321Y-3.7065
X5.1693Y-4.6334
X5.1929Y-4.4567
X5.1969Y-4.5512
X5.2913Y-4.8504
X5.3352Y-4.1569
X5.3543Y-4.5748
X5.3582Y-4.4827
X5.3628Y-4.1069
X5.3919Y-4.4624
X5.3937Y-4.3031
X5.4331Y-3.5236
X5.4331Y-3.5827
X5.4331Y-3.6417
X5.437Y-3.7165
X5.437Y-4.0866
X5.4528Y-3.9961
X5.5906Y-4.7638
X5.6063Y-3.9764
X5.6299Y-3.7008
X5.6693Y-4.7638
X5.7165Y-3.8228
X5.748Y-4.7638
X5.7677Y-3.6614
X5.7717Y-4.0394
X5.7795Y-3.748
X5.8268Y-4.3307
X5.8268Y-4.3898
X5.8268Y-4.7638
X5.8366Y-4.0994
X5.8366Y-4.1407
X5.8661Y-4.3307
X5.8661Y-4.3898
X5.8858Y-3.7008
X5.9055Y-4.3898
X5.9055Y-4.7638
X5.9843Y-4.3307
X5.9843Y-4.7638
X6.0236Y-4.3307
X6.0433Y-3.248
X6.0433Y-3.2874
X6.0433Y-3.4055
X6.0433Y-3.4449
X6.063Y-4.3307
X6.063Y-4.3898
X6.0827Y-3.6614
X6.0827Y-3.248
X6.0827Y-3.2874
X6.0827Y-3.4055
X6.0827Y-3.4449
X6.1024Y-4.3307
X6.1024Y-4.3898
X6.1024Y-4.5276
X6.122Y-3.2874
X6.122Y-3.4055
X6.122Y-3.4449
X6.126Y-3.0236
X6.1417Y-4.0748
X6.1614Y-3.2874
X6.1614Y-3.4055
X6.1614Y-3.4449
X6.1811Y-4.0354
X6.189Y-4.6457
X6.2008Y-3.2874
X6.2008Y-3.4055
X6.2008Y-3.4449
X6.2205Y-3.9961
X6.252Y-3.1811
X6.252Y-3.2205
X6.252Y-3.2598
X6.2598Y-4.0748
X6.2992Y-3.1811
X6.2992Y-3.2205
X6.2992Y-3.2598
X6.2992Y-4.0354
X6.3071Y-2.9921
X6.3228Y-4.9606
X6.3386Y-3.0709
X6.3386Y-3.4547
X6.3386Y-4.0748
X6.3465Y-3.1811
X6.3465Y-3.2205
X6.3465Y-3.2598
X6.3583Y-4.4685
X6.3583Y-4.5669
X6.3583Y-4.685
X6.3937Y-3.1811
X6.3937Y-3.2205
X6.3937Y-3.2598
X6.437Y-4.4685
X6.437Y-4.685
X6.4409Y-3.1811
X6.4409Y-3.2205
X6.4409Y-3.2598
X6.4567Y-3.3307
X6.4567Y-3.3701
X6.4567Y-3.4094
X6.4882Y-3.1811
X6.4882Y-3.2205
X6.4882Y-3.2598
X6.4961Y-3.3307
X6.4961Y-3.3701
X6.4961Y-3.4094
X6.4961Y-4.4685
X6.4961Y-4.5669
X6.4961Y-4.685
X6.5039Y-2.6929
X6.5118Y-4.9213
X6.5354Y-3.4094
X6.5748Y-4.4685
X6.5748Y-4.5669
X6.5748Y-4.685
X6.6614Y-3.4409
X6.6634Y-3.5728
X6.7165Y-4.5197
X6.811Y-3.622
X6.8269Y-3.3918
X6.8504Y-3.2382
X6.8561Y-3.4211
X6.8583Y-3.7165
X6.8583Y-4.5512
X6.8898Y-2.9724
X6.8898Y-3.3858
X6.8898Y-3.2677
X6.911Y-3.2338
X6.9213Y-4.0394
X6.9291Y-2.9724
X6.9342Y-3.3712
X6.9429Y-3.2107
X6.9634Y-3.4004
X6.998Y-3.2163
X7.0079Y-3.4449
X7.0177Y-3.1612
X7.0177Y-3.5236
X7.0571Y-2.9724
X7.0648Y-3.1553
X7.126Y-3.1102
X7.1939Y-2.8927
X7.1961Y-3.426
X7.1969Y-2.937
X7.2047Y-3.2087
X7.2283Y-3.1537
X7.2283Y-3.5492
X7.252Y-3.2402
X7.2872Y-3.2085
X7.2926Y-3.0718
X7.313Y-2.9626
X7.3268Y-3.2402
X7.3524Y-3.3661
X7.3622Y-2.9626
X7.3701Y-3.4567
X7.3819Y-3.2402
X7.4114Y-3.3907
X7.4114Y-3.4321
X7.437Y-3.2402
X7.4409Y-2.9331
X7.4409Y-3.4941
X7.4606Y-2.6378
X7.4685Y-3.5236
X7.4803Y-4.0945
X7.4803Y-4.1732
X7.4803Y-4.3701
X7.4882Y-3.3701
X7.4902Y-2.9331
X7.4902Y-3.1594
X7.5394Y-4.5866
X7.5394Y-3.2579
X7.5394Y-3.6772
X7.5689Y-2.6378
X7.5984Y-3.937
X7.5984Y-4.0945
X7.5984Y-4.1732
X7.5984Y-4.3701
X7.6083Y-3.0807
X7.6415Y-3.5297
X7.6575Y-3.1201
X7.7362Y-3.622
X7.7874Y-3.2756
X7.7874Y-3.315
X7.874Y-3.0709
X7.9134Y-3.0709
X8.0315Y-3.0709
X8.0315Y-3.1693
X8.0709Y-3.0709
X8.0709Y-3.1693
X8.2283Y-3.937
X8.2283Y-4.0945
X8.2283Y-4.1732
X8.2283Y-4.3701
X8.2874Y-4.5866
X8.2874Y-3.6732
X8.3465Y-3.937
X8.3465Y-4.0945
X8.3465Y-4.1732
X8.3465Y-4.2913
X8.3465Y-4.3701
X8.8386Y-4.3701
X8.8386Y-4.4488
X8.8386Y-4.5276
X8.8386Y-4.7047
X8.8386Y-4.7835
X8.8386Y-4.8622
X8.9764Y-4.0945
X8.9764Y-4.1732
X8.9764Y-4.2913
X8.9764Y-4.3701
X8.9764Y-4.4488
X8.9764Y-4.5276
X8.9764Y-4.7047
X8.9764Y-4.7835
X8.9764Y-4.8622
X9.0945Y-4.0945
X9.0945Y-4.1732
X9.0945Y-4.2913
X9.0945Y-4.3701
T2
X7.9843Y-3.2055
X7.9843Y-3.2555
X7.9843Y-3.3055
X7.9843Y-3.3555
X7.9843Y-3.4055
X6.4961Y-3.8976
X6.5461Y-3.8976
X6.5961Y-3.8976
X6.6461Y-3.8976
X6.6961Y-3.8976
T3
X5.4724Y-4.1575
X5.4724Y-4.2075
X5.4724Y-4.2575
X5.4724Y-4.3075
T4
X3.0087Y-3.5449
X3.1087Y-3.5449
X3.2087Y-3.5449
X3.3087Y-3.5449
X3.4087Y-3.5449
X2.7165Y-3.7976
X2.7165Y-3.8976
X2.7165Y-3.9976
X4.7016Y-3.5449
X4.8016Y-3.5449
X4.9016Y-3.5449
X5.0016Y-3.5449
X5.1016Y-3.5449
X2.7165Y-4.1717
X2.7165Y-4.2717
X2.7165Y-4.3717
X2.7165Y-4.5457
X2.7165Y-4.6457
X2.7165Y-4.7457
X5.5717Y-3.5449
X5.6717Y-3.5449
X5.7717Y-3.5449
X5.8717Y-3.5449
X5.9717Y-3.5449
X3.8551Y-3.5449
X3.9551Y-3.5449
X4.0551Y-3.5449
X4.1551Y-3.5449
X4.2551Y-3.5449
T5
X6.5787Y-3.3189
X6.6772Y-3.3189
X8.4882Y-3.435
X8.5866Y-3.435
X6.1319Y-3.8976
X6.2303Y-3.8976
X6.8386Y-3.0827
X6.8386Y-3.1811
X8.378Y-2.9528
X8.378Y-3.0512
X8.2579Y-3.3858
X8.2579Y-3.4843
T6
X6.9882Y-2.8346
X6.9882Y-2.9134
X7.0866Y-2.8346
X7.0866Y-2.9134
T7
X7.8281Y-2.8386
X7.9265Y-2.8386
X8.0053Y-2.8386
X8.1037Y-2.8386
X8.6299Y-2.8819
X8.6299Y-2.9803
X8.6299Y-3.0591
X8.6299Y-3.1575
T8
X3.8189Y-3.9665
X3.9189Y-3.9665
X7.8035Y-4.8142
X7.9035Y-4.8142
X7.0535Y-4.0642
X7.1535Y-4.0642
X3.565Y-5.0335
X3.665Y-5.0335
X3.765Y-5.0335
X3.865Y-5.0335
X3.965Y-5.0335
X4.065Y-5.0335
X4.165Y-5.0335
X4.265Y-5.0335
X4.365Y-5.0335
X4.465Y-5.0335
X4.565Y-5.0335
X4.665Y-5.0335
X4.765Y-5.0335
X4.865Y-5.0335
X4.965Y-5.0335
X5.065Y-5.0335
X5.165Y-5.0335
X5.265Y-5.0335
X5.365Y-5.0335
X5.465Y-5.0335
X8.5535Y-4.8142
X8.6535Y-4.8142
X3.8551Y-4.5669
X3.8551Y-4.6669
X3.9551Y-4.5669
X3.9551Y-4.6669
X4.0551Y-4.5669
X4.0551Y-4.6669
X7.8035Y-4.0642
X7.9035Y-4.0642
X7.0535Y-4.8142
X7.1535Y-4.8142
X8.5535Y-4.0642
X8.6535Y-4.0642
T9
X8.4535Y-4.5142
X8.7035Y-4.4142
X7.7035Y-3.7642
X7.9535Y-3.6642
X6.9535Y-4.5142
X7.2035Y-4.4142
X8.4535Y-3.7642
X8.7035Y-3.6642
X7.7035Y-4.5142
X7.9535Y-4.4142
X6.9535Y-3.7642
X7.2035Y-3.6642
T10
X6.1142Y-2.748
X6.2992Y-2.6299
X6.2992Y-2.8661
T11
X7.7072Y-2.7319
X8.2246Y-2.7319
X8.7366Y-2.761
X8.7366Y-3.2783
T12
X6.8004Y-2.728
X7.2744Y-2.728
T0
M30
