%TF.GenerationSoftware,KiCad,Pcbnew,(5.1.7)-1*%
%TF.CreationDate,2021-03-26T00:16:30-04:00*%
%TF.ProjectId,Console,436f6e73-6f6c-4652-9e6b-696361645f70,rev?*%
%TF.SameCoordinates,Original*%
%TF.FileFunction,Legend,Bot*%
%TF.FilePolarity,Positive*%
%FSLAX46Y46*%
G04 Gerber Fmt 4.6, Leading zero omitted, Abs format (unit mm)*
G04 Created by KiCad (PCBNEW (5.1.7)-1) date 2021-03-26 00:16:30*
%MOMM*%
%LPD*%
G01*
G04 APERTURE LIST*
%ADD10C,0.120000*%
%ADD11C,0.150000*%
G04 APERTURE END LIST*
D10*
%TO.C,TP10*%
X125300000Y-119450000D02*
X127200000Y-119450000D01*
X127200000Y-119450000D02*
X127200000Y-117550000D01*
X127200000Y-117550000D02*
X125300000Y-117550000D01*
X125300000Y-117550000D02*
X125300000Y-119450000D01*
%TO.C,TP9*%
X115300000Y-119450000D02*
X117200000Y-119450000D01*
X117200000Y-119450000D02*
X117200000Y-117550000D01*
X117200000Y-117550000D02*
X115300000Y-117550000D01*
X115300000Y-117550000D02*
X115300000Y-119450000D01*
%TO.C,TP8*%
X118050000Y-119450000D02*
X119950000Y-119450000D01*
X119950000Y-119450000D02*
X119950000Y-117550000D01*
X119950000Y-117550000D02*
X118050000Y-117550000D01*
X118050000Y-117550000D02*
X118050000Y-119450000D01*
%TO.C,TP4*%
X125300000Y-115700000D02*
X127200000Y-115700000D01*
X127200000Y-115700000D02*
X127200000Y-113800000D01*
X127200000Y-113800000D02*
X125300000Y-113800000D01*
X125300000Y-113800000D02*
X125300000Y-115700000D01*
%TO.C,C29*%
X161511252Y-108765000D02*
X160988748Y-108765000D01*
X161511252Y-110235000D02*
X160988748Y-110235000D01*
%TO.C,C44*%
X160627836Y-107640000D02*
X160412164Y-107640000D01*
X160627836Y-108360000D02*
X160412164Y-108360000D01*
%TO.C,U6*%
X155165000Y-104890000D02*
X154690000Y-104890000D01*
X154690000Y-104890000D02*
X154690000Y-105365000D01*
X158435000Y-109110000D02*
X158910000Y-109110000D01*
X158910000Y-109110000D02*
X158910000Y-108635000D01*
X155165000Y-109110000D02*
X154690000Y-109110000D01*
X154690000Y-109110000D02*
X154690000Y-108635000D01*
X158435000Y-104890000D02*
X158910000Y-104890000D01*
%TO.C,C43*%
X94620000Y-124200000D02*
G75*
G03*
X94620000Y-124200000I-2620000J0D01*
G01*
X92000000Y-125240000D02*
X92000000Y-126780000D01*
X92000000Y-121620000D02*
X92000000Y-123160000D01*
X91960000Y-125240000D02*
X91960000Y-126780000D01*
X91960000Y-121620000D02*
X91960000Y-123160000D01*
X91920000Y-121621000D02*
X91920000Y-123160000D01*
X91920000Y-125240000D02*
X91920000Y-126779000D01*
X91880000Y-121622000D02*
X91880000Y-123160000D01*
X91880000Y-125240000D02*
X91880000Y-126778000D01*
X91840000Y-121624000D02*
X91840000Y-123160000D01*
X91840000Y-125240000D02*
X91840000Y-126776000D01*
X91800000Y-121627000D02*
X91800000Y-123160000D01*
X91800000Y-125240000D02*
X91800000Y-126773000D01*
X91760000Y-121631000D02*
X91760000Y-123160000D01*
X91760000Y-125240000D02*
X91760000Y-126769000D01*
X91720000Y-121635000D02*
X91720000Y-123160000D01*
X91720000Y-125240000D02*
X91720000Y-126765000D01*
X91680000Y-121639000D02*
X91680000Y-123160000D01*
X91680000Y-125240000D02*
X91680000Y-126761000D01*
X91640000Y-121644000D02*
X91640000Y-123160000D01*
X91640000Y-125240000D02*
X91640000Y-126756000D01*
X91600000Y-121650000D02*
X91600000Y-123160000D01*
X91600000Y-125240000D02*
X91600000Y-126750000D01*
X91560000Y-121657000D02*
X91560000Y-123160000D01*
X91560000Y-125240000D02*
X91560000Y-126743000D01*
X91520000Y-121664000D02*
X91520000Y-123160000D01*
X91520000Y-125240000D02*
X91520000Y-126736000D01*
X91480000Y-121672000D02*
X91480000Y-123160000D01*
X91480000Y-125240000D02*
X91480000Y-126728000D01*
X91440000Y-121680000D02*
X91440000Y-123160000D01*
X91440000Y-125240000D02*
X91440000Y-126720000D01*
X91400000Y-121689000D02*
X91400000Y-123160000D01*
X91400000Y-125240000D02*
X91400000Y-126711000D01*
X91360000Y-121699000D02*
X91360000Y-123160000D01*
X91360000Y-125240000D02*
X91360000Y-126701000D01*
X91320000Y-121709000D02*
X91320000Y-123160000D01*
X91320000Y-125240000D02*
X91320000Y-126691000D01*
X91279000Y-121720000D02*
X91279000Y-123160000D01*
X91279000Y-125240000D02*
X91279000Y-126680000D01*
X91239000Y-121732000D02*
X91239000Y-123160000D01*
X91239000Y-125240000D02*
X91239000Y-126668000D01*
X91199000Y-121745000D02*
X91199000Y-123160000D01*
X91199000Y-125240000D02*
X91199000Y-126655000D01*
X91159000Y-121758000D02*
X91159000Y-123160000D01*
X91159000Y-125240000D02*
X91159000Y-126642000D01*
X91119000Y-121772000D02*
X91119000Y-123160000D01*
X91119000Y-125240000D02*
X91119000Y-126628000D01*
X91079000Y-121786000D02*
X91079000Y-123160000D01*
X91079000Y-125240000D02*
X91079000Y-126614000D01*
X91039000Y-121802000D02*
X91039000Y-123160000D01*
X91039000Y-125240000D02*
X91039000Y-126598000D01*
X90999000Y-121818000D02*
X90999000Y-123160000D01*
X90999000Y-125240000D02*
X90999000Y-126582000D01*
X90959000Y-121835000D02*
X90959000Y-123160000D01*
X90959000Y-125240000D02*
X90959000Y-126565000D01*
X90919000Y-121852000D02*
X90919000Y-123160000D01*
X90919000Y-125240000D02*
X90919000Y-126548000D01*
X90879000Y-121871000D02*
X90879000Y-123160000D01*
X90879000Y-125240000D02*
X90879000Y-126529000D01*
X90839000Y-121890000D02*
X90839000Y-123160000D01*
X90839000Y-125240000D02*
X90839000Y-126510000D01*
X90799000Y-121910000D02*
X90799000Y-123160000D01*
X90799000Y-125240000D02*
X90799000Y-126490000D01*
X90759000Y-121932000D02*
X90759000Y-123160000D01*
X90759000Y-125240000D02*
X90759000Y-126468000D01*
X90719000Y-121953000D02*
X90719000Y-123160000D01*
X90719000Y-125240000D02*
X90719000Y-126447000D01*
X90679000Y-121976000D02*
X90679000Y-123160000D01*
X90679000Y-125240000D02*
X90679000Y-126424000D01*
X90639000Y-122000000D02*
X90639000Y-123160000D01*
X90639000Y-125240000D02*
X90639000Y-126400000D01*
X90599000Y-122025000D02*
X90599000Y-123160000D01*
X90599000Y-125240000D02*
X90599000Y-126375000D01*
X90559000Y-122051000D02*
X90559000Y-123160000D01*
X90559000Y-125240000D02*
X90559000Y-126349000D01*
X90519000Y-122078000D02*
X90519000Y-123160000D01*
X90519000Y-125240000D02*
X90519000Y-126322000D01*
X90479000Y-122105000D02*
X90479000Y-123160000D01*
X90479000Y-125240000D02*
X90479000Y-126295000D01*
X90439000Y-122135000D02*
X90439000Y-123160000D01*
X90439000Y-125240000D02*
X90439000Y-126265000D01*
X90399000Y-122165000D02*
X90399000Y-123160000D01*
X90399000Y-125240000D02*
X90399000Y-126235000D01*
X90359000Y-122196000D02*
X90359000Y-123160000D01*
X90359000Y-125240000D02*
X90359000Y-126204000D01*
X90319000Y-122229000D02*
X90319000Y-123160000D01*
X90319000Y-125240000D02*
X90319000Y-126171000D01*
X90279000Y-122263000D02*
X90279000Y-123160000D01*
X90279000Y-125240000D02*
X90279000Y-126137000D01*
X90239000Y-122299000D02*
X90239000Y-123160000D01*
X90239000Y-125240000D02*
X90239000Y-126101000D01*
X90199000Y-122336000D02*
X90199000Y-123160000D01*
X90199000Y-125240000D02*
X90199000Y-126064000D01*
X90159000Y-122374000D02*
X90159000Y-123160000D01*
X90159000Y-125240000D02*
X90159000Y-126026000D01*
X90119000Y-122415000D02*
X90119000Y-123160000D01*
X90119000Y-125240000D02*
X90119000Y-125985000D01*
X90079000Y-122457000D02*
X90079000Y-123160000D01*
X90079000Y-125240000D02*
X90079000Y-125943000D01*
X90039000Y-122501000D02*
X90039000Y-123160000D01*
X90039000Y-125240000D02*
X90039000Y-125899000D01*
X89999000Y-122547000D02*
X89999000Y-123160000D01*
X89999000Y-125240000D02*
X89999000Y-125853000D01*
X89959000Y-122595000D02*
X89959000Y-125805000D01*
X89919000Y-122646000D02*
X89919000Y-125754000D01*
X89879000Y-122700000D02*
X89879000Y-125700000D01*
X89839000Y-122757000D02*
X89839000Y-125643000D01*
X89799000Y-122817000D02*
X89799000Y-125583000D01*
X89759000Y-122881000D02*
X89759000Y-125519000D01*
X89719000Y-122949000D02*
X89719000Y-125451000D01*
X89679000Y-123022000D02*
X89679000Y-125378000D01*
X89639000Y-123102000D02*
X89639000Y-125298000D01*
X89599000Y-123189000D02*
X89599000Y-125211000D01*
X89559000Y-123285000D02*
X89559000Y-125115000D01*
X89519000Y-123395000D02*
X89519000Y-125005000D01*
X89479000Y-123523000D02*
X89479000Y-124877000D01*
X89439000Y-123682000D02*
X89439000Y-124718000D01*
X89399000Y-123916000D02*
X89399000Y-124484000D01*
X94804775Y-122725000D02*
X94304775Y-122725000D01*
X94554775Y-122475000D02*
X94554775Y-122975000D01*
%TO.C,C31*%
X210020000Y-76200000D02*
G75*
G03*
X210020000Y-76200000I-2620000J0D01*
G01*
X207400000Y-75160000D02*
X207400000Y-73620000D01*
X207400000Y-78780000D02*
X207400000Y-77240000D01*
X207440000Y-75160000D02*
X207440000Y-73620000D01*
X207440000Y-78780000D02*
X207440000Y-77240000D01*
X207480000Y-78779000D02*
X207480000Y-77240000D01*
X207480000Y-75160000D02*
X207480000Y-73621000D01*
X207520000Y-78778000D02*
X207520000Y-77240000D01*
X207520000Y-75160000D02*
X207520000Y-73622000D01*
X207560000Y-78776000D02*
X207560000Y-77240000D01*
X207560000Y-75160000D02*
X207560000Y-73624000D01*
X207600000Y-78773000D02*
X207600000Y-77240000D01*
X207600000Y-75160000D02*
X207600000Y-73627000D01*
X207640000Y-78769000D02*
X207640000Y-77240000D01*
X207640000Y-75160000D02*
X207640000Y-73631000D01*
X207680000Y-78765000D02*
X207680000Y-77240000D01*
X207680000Y-75160000D02*
X207680000Y-73635000D01*
X207720000Y-78761000D02*
X207720000Y-77240000D01*
X207720000Y-75160000D02*
X207720000Y-73639000D01*
X207760000Y-78756000D02*
X207760000Y-77240000D01*
X207760000Y-75160000D02*
X207760000Y-73644000D01*
X207800000Y-78750000D02*
X207800000Y-77240000D01*
X207800000Y-75160000D02*
X207800000Y-73650000D01*
X207840000Y-78743000D02*
X207840000Y-77240000D01*
X207840000Y-75160000D02*
X207840000Y-73657000D01*
X207880000Y-78736000D02*
X207880000Y-77240000D01*
X207880000Y-75160000D02*
X207880000Y-73664000D01*
X207920000Y-78728000D02*
X207920000Y-77240000D01*
X207920000Y-75160000D02*
X207920000Y-73672000D01*
X207960000Y-78720000D02*
X207960000Y-77240000D01*
X207960000Y-75160000D02*
X207960000Y-73680000D01*
X208000000Y-78711000D02*
X208000000Y-77240000D01*
X208000000Y-75160000D02*
X208000000Y-73689000D01*
X208040000Y-78701000D02*
X208040000Y-77240000D01*
X208040000Y-75160000D02*
X208040000Y-73699000D01*
X208080000Y-78691000D02*
X208080000Y-77240000D01*
X208080000Y-75160000D02*
X208080000Y-73709000D01*
X208121000Y-78680000D02*
X208121000Y-77240000D01*
X208121000Y-75160000D02*
X208121000Y-73720000D01*
X208161000Y-78668000D02*
X208161000Y-77240000D01*
X208161000Y-75160000D02*
X208161000Y-73732000D01*
X208201000Y-78655000D02*
X208201000Y-77240000D01*
X208201000Y-75160000D02*
X208201000Y-73745000D01*
X208241000Y-78642000D02*
X208241000Y-77240000D01*
X208241000Y-75160000D02*
X208241000Y-73758000D01*
X208281000Y-78628000D02*
X208281000Y-77240000D01*
X208281000Y-75160000D02*
X208281000Y-73772000D01*
X208321000Y-78614000D02*
X208321000Y-77240000D01*
X208321000Y-75160000D02*
X208321000Y-73786000D01*
X208361000Y-78598000D02*
X208361000Y-77240000D01*
X208361000Y-75160000D02*
X208361000Y-73802000D01*
X208401000Y-78582000D02*
X208401000Y-77240000D01*
X208401000Y-75160000D02*
X208401000Y-73818000D01*
X208441000Y-78565000D02*
X208441000Y-77240000D01*
X208441000Y-75160000D02*
X208441000Y-73835000D01*
X208481000Y-78548000D02*
X208481000Y-77240000D01*
X208481000Y-75160000D02*
X208481000Y-73852000D01*
X208521000Y-78529000D02*
X208521000Y-77240000D01*
X208521000Y-75160000D02*
X208521000Y-73871000D01*
X208561000Y-78510000D02*
X208561000Y-77240000D01*
X208561000Y-75160000D02*
X208561000Y-73890000D01*
X208601000Y-78490000D02*
X208601000Y-77240000D01*
X208601000Y-75160000D02*
X208601000Y-73910000D01*
X208641000Y-78468000D02*
X208641000Y-77240000D01*
X208641000Y-75160000D02*
X208641000Y-73932000D01*
X208681000Y-78447000D02*
X208681000Y-77240000D01*
X208681000Y-75160000D02*
X208681000Y-73953000D01*
X208721000Y-78424000D02*
X208721000Y-77240000D01*
X208721000Y-75160000D02*
X208721000Y-73976000D01*
X208761000Y-78400000D02*
X208761000Y-77240000D01*
X208761000Y-75160000D02*
X208761000Y-74000000D01*
X208801000Y-78375000D02*
X208801000Y-77240000D01*
X208801000Y-75160000D02*
X208801000Y-74025000D01*
X208841000Y-78349000D02*
X208841000Y-77240000D01*
X208841000Y-75160000D02*
X208841000Y-74051000D01*
X208881000Y-78322000D02*
X208881000Y-77240000D01*
X208881000Y-75160000D02*
X208881000Y-74078000D01*
X208921000Y-78295000D02*
X208921000Y-77240000D01*
X208921000Y-75160000D02*
X208921000Y-74105000D01*
X208961000Y-78265000D02*
X208961000Y-77240000D01*
X208961000Y-75160000D02*
X208961000Y-74135000D01*
X209001000Y-78235000D02*
X209001000Y-77240000D01*
X209001000Y-75160000D02*
X209001000Y-74165000D01*
X209041000Y-78204000D02*
X209041000Y-77240000D01*
X209041000Y-75160000D02*
X209041000Y-74196000D01*
X209081000Y-78171000D02*
X209081000Y-77240000D01*
X209081000Y-75160000D02*
X209081000Y-74229000D01*
X209121000Y-78137000D02*
X209121000Y-77240000D01*
X209121000Y-75160000D02*
X209121000Y-74263000D01*
X209161000Y-78101000D02*
X209161000Y-77240000D01*
X209161000Y-75160000D02*
X209161000Y-74299000D01*
X209201000Y-78064000D02*
X209201000Y-77240000D01*
X209201000Y-75160000D02*
X209201000Y-74336000D01*
X209241000Y-78026000D02*
X209241000Y-77240000D01*
X209241000Y-75160000D02*
X209241000Y-74374000D01*
X209281000Y-77985000D02*
X209281000Y-77240000D01*
X209281000Y-75160000D02*
X209281000Y-74415000D01*
X209321000Y-77943000D02*
X209321000Y-77240000D01*
X209321000Y-75160000D02*
X209321000Y-74457000D01*
X209361000Y-77899000D02*
X209361000Y-77240000D01*
X209361000Y-75160000D02*
X209361000Y-74501000D01*
X209401000Y-77853000D02*
X209401000Y-77240000D01*
X209401000Y-75160000D02*
X209401000Y-74547000D01*
X209441000Y-77805000D02*
X209441000Y-74595000D01*
X209481000Y-77754000D02*
X209481000Y-74646000D01*
X209521000Y-77700000D02*
X209521000Y-74700000D01*
X209561000Y-77643000D02*
X209561000Y-74757000D01*
X209601000Y-77583000D02*
X209601000Y-74817000D01*
X209641000Y-77519000D02*
X209641000Y-74881000D01*
X209681000Y-77451000D02*
X209681000Y-74949000D01*
X209721000Y-77378000D02*
X209721000Y-75022000D01*
X209761000Y-77298000D02*
X209761000Y-75102000D01*
X209801000Y-77211000D02*
X209801000Y-75189000D01*
X209841000Y-77115000D02*
X209841000Y-75285000D01*
X209881000Y-77005000D02*
X209881000Y-75395000D01*
X209921000Y-76877000D02*
X209921000Y-75523000D01*
X209961000Y-76718000D02*
X209961000Y-75682000D01*
X210001000Y-76484000D02*
X210001000Y-75916000D01*
X204595225Y-77675000D02*
X205095225Y-77675000D01*
X204845225Y-77925000D02*
X204845225Y-77425000D01*
%TO.C,C30*%
X219220000Y-65200000D02*
G75*
G03*
X219220000Y-65200000I-2620000J0D01*
G01*
X216600000Y-64160000D02*
X216600000Y-62620000D01*
X216600000Y-67780000D02*
X216600000Y-66240000D01*
X216640000Y-64160000D02*
X216640000Y-62620000D01*
X216640000Y-67780000D02*
X216640000Y-66240000D01*
X216680000Y-67779000D02*
X216680000Y-66240000D01*
X216680000Y-64160000D02*
X216680000Y-62621000D01*
X216720000Y-67778000D02*
X216720000Y-66240000D01*
X216720000Y-64160000D02*
X216720000Y-62622000D01*
X216760000Y-67776000D02*
X216760000Y-66240000D01*
X216760000Y-64160000D02*
X216760000Y-62624000D01*
X216800000Y-67773000D02*
X216800000Y-66240000D01*
X216800000Y-64160000D02*
X216800000Y-62627000D01*
X216840000Y-67769000D02*
X216840000Y-66240000D01*
X216840000Y-64160000D02*
X216840000Y-62631000D01*
X216880000Y-67765000D02*
X216880000Y-66240000D01*
X216880000Y-64160000D02*
X216880000Y-62635000D01*
X216920000Y-67761000D02*
X216920000Y-66240000D01*
X216920000Y-64160000D02*
X216920000Y-62639000D01*
X216960000Y-67756000D02*
X216960000Y-66240000D01*
X216960000Y-64160000D02*
X216960000Y-62644000D01*
X217000000Y-67750000D02*
X217000000Y-66240000D01*
X217000000Y-64160000D02*
X217000000Y-62650000D01*
X217040000Y-67743000D02*
X217040000Y-66240000D01*
X217040000Y-64160000D02*
X217040000Y-62657000D01*
X217080000Y-67736000D02*
X217080000Y-66240000D01*
X217080000Y-64160000D02*
X217080000Y-62664000D01*
X217120000Y-67728000D02*
X217120000Y-66240000D01*
X217120000Y-64160000D02*
X217120000Y-62672000D01*
X217160000Y-67720000D02*
X217160000Y-66240000D01*
X217160000Y-64160000D02*
X217160000Y-62680000D01*
X217200000Y-67711000D02*
X217200000Y-66240000D01*
X217200000Y-64160000D02*
X217200000Y-62689000D01*
X217240000Y-67701000D02*
X217240000Y-66240000D01*
X217240000Y-64160000D02*
X217240000Y-62699000D01*
X217280000Y-67691000D02*
X217280000Y-66240000D01*
X217280000Y-64160000D02*
X217280000Y-62709000D01*
X217321000Y-67680000D02*
X217321000Y-66240000D01*
X217321000Y-64160000D02*
X217321000Y-62720000D01*
X217361000Y-67668000D02*
X217361000Y-66240000D01*
X217361000Y-64160000D02*
X217361000Y-62732000D01*
X217401000Y-67655000D02*
X217401000Y-66240000D01*
X217401000Y-64160000D02*
X217401000Y-62745000D01*
X217441000Y-67642000D02*
X217441000Y-66240000D01*
X217441000Y-64160000D02*
X217441000Y-62758000D01*
X217481000Y-67628000D02*
X217481000Y-66240000D01*
X217481000Y-64160000D02*
X217481000Y-62772000D01*
X217521000Y-67614000D02*
X217521000Y-66240000D01*
X217521000Y-64160000D02*
X217521000Y-62786000D01*
X217561000Y-67598000D02*
X217561000Y-66240000D01*
X217561000Y-64160000D02*
X217561000Y-62802000D01*
X217601000Y-67582000D02*
X217601000Y-66240000D01*
X217601000Y-64160000D02*
X217601000Y-62818000D01*
X217641000Y-67565000D02*
X217641000Y-66240000D01*
X217641000Y-64160000D02*
X217641000Y-62835000D01*
X217681000Y-67548000D02*
X217681000Y-66240000D01*
X217681000Y-64160000D02*
X217681000Y-62852000D01*
X217721000Y-67529000D02*
X217721000Y-66240000D01*
X217721000Y-64160000D02*
X217721000Y-62871000D01*
X217761000Y-67510000D02*
X217761000Y-66240000D01*
X217761000Y-64160000D02*
X217761000Y-62890000D01*
X217801000Y-67490000D02*
X217801000Y-66240000D01*
X217801000Y-64160000D02*
X217801000Y-62910000D01*
X217841000Y-67468000D02*
X217841000Y-66240000D01*
X217841000Y-64160000D02*
X217841000Y-62932000D01*
X217881000Y-67447000D02*
X217881000Y-66240000D01*
X217881000Y-64160000D02*
X217881000Y-62953000D01*
X217921000Y-67424000D02*
X217921000Y-66240000D01*
X217921000Y-64160000D02*
X217921000Y-62976000D01*
X217961000Y-67400000D02*
X217961000Y-66240000D01*
X217961000Y-64160000D02*
X217961000Y-63000000D01*
X218001000Y-67375000D02*
X218001000Y-66240000D01*
X218001000Y-64160000D02*
X218001000Y-63025000D01*
X218041000Y-67349000D02*
X218041000Y-66240000D01*
X218041000Y-64160000D02*
X218041000Y-63051000D01*
X218081000Y-67322000D02*
X218081000Y-66240000D01*
X218081000Y-64160000D02*
X218081000Y-63078000D01*
X218121000Y-67295000D02*
X218121000Y-66240000D01*
X218121000Y-64160000D02*
X218121000Y-63105000D01*
X218161000Y-67265000D02*
X218161000Y-66240000D01*
X218161000Y-64160000D02*
X218161000Y-63135000D01*
X218201000Y-67235000D02*
X218201000Y-66240000D01*
X218201000Y-64160000D02*
X218201000Y-63165000D01*
X218241000Y-67204000D02*
X218241000Y-66240000D01*
X218241000Y-64160000D02*
X218241000Y-63196000D01*
X218281000Y-67171000D02*
X218281000Y-66240000D01*
X218281000Y-64160000D02*
X218281000Y-63229000D01*
X218321000Y-67137000D02*
X218321000Y-66240000D01*
X218321000Y-64160000D02*
X218321000Y-63263000D01*
X218361000Y-67101000D02*
X218361000Y-66240000D01*
X218361000Y-64160000D02*
X218361000Y-63299000D01*
X218401000Y-67064000D02*
X218401000Y-66240000D01*
X218401000Y-64160000D02*
X218401000Y-63336000D01*
X218441000Y-67026000D02*
X218441000Y-66240000D01*
X218441000Y-64160000D02*
X218441000Y-63374000D01*
X218481000Y-66985000D02*
X218481000Y-66240000D01*
X218481000Y-64160000D02*
X218481000Y-63415000D01*
X218521000Y-66943000D02*
X218521000Y-66240000D01*
X218521000Y-64160000D02*
X218521000Y-63457000D01*
X218561000Y-66899000D02*
X218561000Y-66240000D01*
X218561000Y-64160000D02*
X218561000Y-63501000D01*
X218601000Y-66853000D02*
X218601000Y-66240000D01*
X218601000Y-64160000D02*
X218601000Y-63547000D01*
X218641000Y-66805000D02*
X218641000Y-63595000D01*
X218681000Y-66754000D02*
X218681000Y-63646000D01*
X218721000Y-66700000D02*
X218721000Y-63700000D01*
X218761000Y-66643000D02*
X218761000Y-63757000D01*
X218801000Y-66583000D02*
X218801000Y-63817000D01*
X218841000Y-66519000D02*
X218841000Y-63881000D01*
X218881000Y-66451000D02*
X218881000Y-63949000D01*
X218921000Y-66378000D02*
X218921000Y-64022000D01*
X218961000Y-66298000D02*
X218961000Y-64102000D01*
X219001000Y-66211000D02*
X219001000Y-64189000D01*
X219041000Y-66115000D02*
X219041000Y-64285000D01*
X219081000Y-66005000D02*
X219081000Y-64395000D01*
X219121000Y-65877000D02*
X219121000Y-64523000D01*
X219161000Y-65718000D02*
X219161000Y-64682000D01*
X219201000Y-65484000D02*
X219201000Y-64916000D01*
X213795225Y-66675000D02*
X214295225Y-66675000D01*
X214045225Y-66925000D02*
X214045225Y-66425000D01*
%TO.C,C25*%
X218820000Y-85000000D02*
G75*
G03*
X218820000Y-85000000I-2620000J0D01*
G01*
X216200000Y-83960000D02*
X216200000Y-82420000D01*
X216200000Y-87580000D02*
X216200000Y-86040000D01*
X216240000Y-83960000D02*
X216240000Y-82420000D01*
X216240000Y-87580000D02*
X216240000Y-86040000D01*
X216280000Y-87579000D02*
X216280000Y-86040000D01*
X216280000Y-83960000D02*
X216280000Y-82421000D01*
X216320000Y-87578000D02*
X216320000Y-86040000D01*
X216320000Y-83960000D02*
X216320000Y-82422000D01*
X216360000Y-87576000D02*
X216360000Y-86040000D01*
X216360000Y-83960000D02*
X216360000Y-82424000D01*
X216400000Y-87573000D02*
X216400000Y-86040000D01*
X216400000Y-83960000D02*
X216400000Y-82427000D01*
X216440000Y-87569000D02*
X216440000Y-86040000D01*
X216440000Y-83960000D02*
X216440000Y-82431000D01*
X216480000Y-87565000D02*
X216480000Y-86040000D01*
X216480000Y-83960000D02*
X216480000Y-82435000D01*
X216520000Y-87561000D02*
X216520000Y-86040000D01*
X216520000Y-83960000D02*
X216520000Y-82439000D01*
X216560000Y-87556000D02*
X216560000Y-86040000D01*
X216560000Y-83960000D02*
X216560000Y-82444000D01*
X216600000Y-87550000D02*
X216600000Y-86040000D01*
X216600000Y-83960000D02*
X216600000Y-82450000D01*
X216640000Y-87543000D02*
X216640000Y-86040000D01*
X216640000Y-83960000D02*
X216640000Y-82457000D01*
X216680000Y-87536000D02*
X216680000Y-86040000D01*
X216680000Y-83960000D02*
X216680000Y-82464000D01*
X216720000Y-87528000D02*
X216720000Y-86040000D01*
X216720000Y-83960000D02*
X216720000Y-82472000D01*
X216760000Y-87520000D02*
X216760000Y-86040000D01*
X216760000Y-83960000D02*
X216760000Y-82480000D01*
X216800000Y-87511000D02*
X216800000Y-86040000D01*
X216800000Y-83960000D02*
X216800000Y-82489000D01*
X216840000Y-87501000D02*
X216840000Y-86040000D01*
X216840000Y-83960000D02*
X216840000Y-82499000D01*
X216880000Y-87491000D02*
X216880000Y-86040000D01*
X216880000Y-83960000D02*
X216880000Y-82509000D01*
X216921000Y-87480000D02*
X216921000Y-86040000D01*
X216921000Y-83960000D02*
X216921000Y-82520000D01*
X216961000Y-87468000D02*
X216961000Y-86040000D01*
X216961000Y-83960000D02*
X216961000Y-82532000D01*
X217001000Y-87455000D02*
X217001000Y-86040000D01*
X217001000Y-83960000D02*
X217001000Y-82545000D01*
X217041000Y-87442000D02*
X217041000Y-86040000D01*
X217041000Y-83960000D02*
X217041000Y-82558000D01*
X217081000Y-87428000D02*
X217081000Y-86040000D01*
X217081000Y-83960000D02*
X217081000Y-82572000D01*
X217121000Y-87414000D02*
X217121000Y-86040000D01*
X217121000Y-83960000D02*
X217121000Y-82586000D01*
X217161000Y-87398000D02*
X217161000Y-86040000D01*
X217161000Y-83960000D02*
X217161000Y-82602000D01*
X217201000Y-87382000D02*
X217201000Y-86040000D01*
X217201000Y-83960000D02*
X217201000Y-82618000D01*
X217241000Y-87365000D02*
X217241000Y-86040000D01*
X217241000Y-83960000D02*
X217241000Y-82635000D01*
X217281000Y-87348000D02*
X217281000Y-86040000D01*
X217281000Y-83960000D02*
X217281000Y-82652000D01*
X217321000Y-87329000D02*
X217321000Y-86040000D01*
X217321000Y-83960000D02*
X217321000Y-82671000D01*
X217361000Y-87310000D02*
X217361000Y-86040000D01*
X217361000Y-83960000D02*
X217361000Y-82690000D01*
X217401000Y-87290000D02*
X217401000Y-86040000D01*
X217401000Y-83960000D02*
X217401000Y-82710000D01*
X217441000Y-87268000D02*
X217441000Y-86040000D01*
X217441000Y-83960000D02*
X217441000Y-82732000D01*
X217481000Y-87247000D02*
X217481000Y-86040000D01*
X217481000Y-83960000D02*
X217481000Y-82753000D01*
X217521000Y-87224000D02*
X217521000Y-86040000D01*
X217521000Y-83960000D02*
X217521000Y-82776000D01*
X217561000Y-87200000D02*
X217561000Y-86040000D01*
X217561000Y-83960000D02*
X217561000Y-82800000D01*
X217601000Y-87175000D02*
X217601000Y-86040000D01*
X217601000Y-83960000D02*
X217601000Y-82825000D01*
X217641000Y-87149000D02*
X217641000Y-86040000D01*
X217641000Y-83960000D02*
X217641000Y-82851000D01*
X217681000Y-87122000D02*
X217681000Y-86040000D01*
X217681000Y-83960000D02*
X217681000Y-82878000D01*
X217721000Y-87095000D02*
X217721000Y-86040000D01*
X217721000Y-83960000D02*
X217721000Y-82905000D01*
X217761000Y-87065000D02*
X217761000Y-86040000D01*
X217761000Y-83960000D02*
X217761000Y-82935000D01*
X217801000Y-87035000D02*
X217801000Y-86040000D01*
X217801000Y-83960000D02*
X217801000Y-82965000D01*
X217841000Y-87004000D02*
X217841000Y-86040000D01*
X217841000Y-83960000D02*
X217841000Y-82996000D01*
X217881000Y-86971000D02*
X217881000Y-86040000D01*
X217881000Y-83960000D02*
X217881000Y-83029000D01*
X217921000Y-86937000D02*
X217921000Y-86040000D01*
X217921000Y-83960000D02*
X217921000Y-83063000D01*
X217961000Y-86901000D02*
X217961000Y-86040000D01*
X217961000Y-83960000D02*
X217961000Y-83099000D01*
X218001000Y-86864000D02*
X218001000Y-86040000D01*
X218001000Y-83960000D02*
X218001000Y-83136000D01*
X218041000Y-86826000D02*
X218041000Y-86040000D01*
X218041000Y-83960000D02*
X218041000Y-83174000D01*
X218081000Y-86785000D02*
X218081000Y-86040000D01*
X218081000Y-83960000D02*
X218081000Y-83215000D01*
X218121000Y-86743000D02*
X218121000Y-86040000D01*
X218121000Y-83960000D02*
X218121000Y-83257000D01*
X218161000Y-86699000D02*
X218161000Y-86040000D01*
X218161000Y-83960000D02*
X218161000Y-83301000D01*
X218201000Y-86653000D02*
X218201000Y-86040000D01*
X218201000Y-83960000D02*
X218201000Y-83347000D01*
X218241000Y-86605000D02*
X218241000Y-83395000D01*
X218281000Y-86554000D02*
X218281000Y-83446000D01*
X218321000Y-86500000D02*
X218321000Y-83500000D01*
X218361000Y-86443000D02*
X218361000Y-83557000D01*
X218401000Y-86383000D02*
X218401000Y-83617000D01*
X218441000Y-86319000D02*
X218441000Y-83681000D01*
X218481000Y-86251000D02*
X218481000Y-83749000D01*
X218521000Y-86178000D02*
X218521000Y-83822000D01*
X218561000Y-86098000D02*
X218561000Y-83902000D01*
X218601000Y-86011000D02*
X218601000Y-83989000D01*
X218641000Y-85915000D02*
X218641000Y-84085000D01*
X218681000Y-85805000D02*
X218681000Y-84195000D01*
X218721000Y-85677000D02*
X218721000Y-84323000D01*
X218761000Y-85518000D02*
X218761000Y-84482000D01*
X218801000Y-85284000D02*
X218801000Y-84716000D01*
X213395225Y-86475000D02*
X213895225Y-86475000D01*
X213645225Y-86725000D02*
X213645225Y-86225000D01*
%TO.C,C24*%
X173820000Y-101400000D02*
G75*
G03*
X173820000Y-101400000I-2620000J0D01*
G01*
X171200000Y-100360000D02*
X171200000Y-98820000D01*
X171200000Y-103980000D02*
X171200000Y-102440000D01*
X171240000Y-100360000D02*
X171240000Y-98820000D01*
X171240000Y-103980000D02*
X171240000Y-102440000D01*
X171280000Y-103979000D02*
X171280000Y-102440000D01*
X171280000Y-100360000D02*
X171280000Y-98821000D01*
X171320000Y-103978000D02*
X171320000Y-102440000D01*
X171320000Y-100360000D02*
X171320000Y-98822000D01*
X171360000Y-103976000D02*
X171360000Y-102440000D01*
X171360000Y-100360000D02*
X171360000Y-98824000D01*
X171400000Y-103973000D02*
X171400000Y-102440000D01*
X171400000Y-100360000D02*
X171400000Y-98827000D01*
X171440000Y-103969000D02*
X171440000Y-102440000D01*
X171440000Y-100360000D02*
X171440000Y-98831000D01*
X171480000Y-103965000D02*
X171480000Y-102440000D01*
X171480000Y-100360000D02*
X171480000Y-98835000D01*
X171520000Y-103961000D02*
X171520000Y-102440000D01*
X171520000Y-100360000D02*
X171520000Y-98839000D01*
X171560000Y-103956000D02*
X171560000Y-102440000D01*
X171560000Y-100360000D02*
X171560000Y-98844000D01*
X171600000Y-103950000D02*
X171600000Y-102440000D01*
X171600000Y-100360000D02*
X171600000Y-98850000D01*
X171640000Y-103943000D02*
X171640000Y-102440000D01*
X171640000Y-100360000D02*
X171640000Y-98857000D01*
X171680000Y-103936000D02*
X171680000Y-102440000D01*
X171680000Y-100360000D02*
X171680000Y-98864000D01*
X171720000Y-103928000D02*
X171720000Y-102440000D01*
X171720000Y-100360000D02*
X171720000Y-98872000D01*
X171760000Y-103920000D02*
X171760000Y-102440000D01*
X171760000Y-100360000D02*
X171760000Y-98880000D01*
X171800000Y-103911000D02*
X171800000Y-102440000D01*
X171800000Y-100360000D02*
X171800000Y-98889000D01*
X171840000Y-103901000D02*
X171840000Y-102440000D01*
X171840000Y-100360000D02*
X171840000Y-98899000D01*
X171880000Y-103891000D02*
X171880000Y-102440000D01*
X171880000Y-100360000D02*
X171880000Y-98909000D01*
X171921000Y-103880000D02*
X171921000Y-102440000D01*
X171921000Y-100360000D02*
X171921000Y-98920000D01*
X171961000Y-103868000D02*
X171961000Y-102440000D01*
X171961000Y-100360000D02*
X171961000Y-98932000D01*
X172001000Y-103855000D02*
X172001000Y-102440000D01*
X172001000Y-100360000D02*
X172001000Y-98945000D01*
X172041000Y-103842000D02*
X172041000Y-102440000D01*
X172041000Y-100360000D02*
X172041000Y-98958000D01*
X172081000Y-103828000D02*
X172081000Y-102440000D01*
X172081000Y-100360000D02*
X172081000Y-98972000D01*
X172121000Y-103814000D02*
X172121000Y-102440000D01*
X172121000Y-100360000D02*
X172121000Y-98986000D01*
X172161000Y-103798000D02*
X172161000Y-102440000D01*
X172161000Y-100360000D02*
X172161000Y-99002000D01*
X172201000Y-103782000D02*
X172201000Y-102440000D01*
X172201000Y-100360000D02*
X172201000Y-99018000D01*
X172241000Y-103765000D02*
X172241000Y-102440000D01*
X172241000Y-100360000D02*
X172241000Y-99035000D01*
X172281000Y-103748000D02*
X172281000Y-102440000D01*
X172281000Y-100360000D02*
X172281000Y-99052000D01*
X172321000Y-103729000D02*
X172321000Y-102440000D01*
X172321000Y-100360000D02*
X172321000Y-99071000D01*
X172361000Y-103710000D02*
X172361000Y-102440000D01*
X172361000Y-100360000D02*
X172361000Y-99090000D01*
X172401000Y-103690000D02*
X172401000Y-102440000D01*
X172401000Y-100360000D02*
X172401000Y-99110000D01*
X172441000Y-103668000D02*
X172441000Y-102440000D01*
X172441000Y-100360000D02*
X172441000Y-99132000D01*
X172481000Y-103647000D02*
X172481000Y-102440000D01*
X172481000Y-100360000D02*
X172481000Y-99153000D01*
X172521000Y-103624000D02*
X172521000Y-102440000D01*
X172521000Y-100360000D02*
X172521000Y-99176000D01*
X172561000Y-103600000D02*
X172561000Y-102440000D01*
X172561000Y-100360000D02*
X172561000Y-99200000D01*
X172601000Y-103575000D02*
X172601000Y-102440000D01*
X172601000Y-100360000D02*
X172601000Y-99225000D01*
X172641000Y-103549000D02*
X172641000Y-102440000D01*
X172641000Y-100360000D02*
X172641000Y-99251000D01*
X172681000Y-103522000D02*
X172681000Y-102440000D01*
X172681000Y-100360000D02*
X172681000Y-99278000D01*
X172721000Y-103495000D02*
X172721000Y-102440000D01*
X172721000Y-100360000D02*
X172721000Y-99305000D01*
X172761000Y-103465000D02*
X172761000Y-102440000D01*
X172761000Y-100360000D02*
X172761000Y-99335000D01*
X172801000Y-103435000D02*
X172801000Y-102440000D01*
X172801000Y-100360000D02*
X172801000Y-99365000D01*
X172841000Y-103404000D02*
X172841000Y-102440000D01*
X172841000Y-100360000D02*
X172841000Y-99396000D01*
X172881000Y-103371000D02*
X172881000Y-102440000D01*
X172881000Y-100360000D02*
X172881000Y-99429000D01*
X172921000Y-103337000D02*
X172921000Y-102440000D01*
X172921000Y-100360000D02*
X172921000Y-99463000D01*
X172961000Y-103301000D02*
X172961000Y-102440000D01*
X172961000Y-100360000D02*
X172961000Y-99499000D01*
X173001000Y-103264000D02*
X173001000Y-102440000D01*
X173001000Y-100360000D02*
X173001000Y-99536000D01*
X173041000Y-103226000D02*
X173041000Y-102440000D01*
X173041000Y-100360000D02*
X173041000Y-99574000D01*
X173081000Y-103185000D02*
X173081000Y-102440000D01*
X173081000Y-100360000D02*
X173081000Y-99615000D01*
X173121000Y-103143000D02*
X173121000Y-102440000D01*
X173121000Y-100360000D02*
X173121000Y-99657000D01*
X173161000Y-103099000D02*
X173161000Y-102440000D01*
X173161000Y-100360000D02*
X173161000Y-99701000D01*
X173201000Y-103053000D02*
X173201000Y-102440000D01*
X173201000Y-100360000D02*
X173201000Y-99747000D01*
X173241000Y-103005000D02*
X173241000Y-99795000D01*
X173281000Y-102954000D02*
X173281000Y-99846000D01*
X173321000Y-102900000D02*
X173321000Y-99900000D01*
X173361000Y-102843000D02*
X173361000Y-99957000D01*
X173401000Y-102783000D02*
X173401000Y-100017000D01*
X173441000Y-102719000D02*
X173441000Y-100081000D01*
X173481000Y-102651000D02*
X173481000Y-100149000D01*
X173521000Y-102578000D02*
X173521000Y-100222000D01*
X173561000Y-102498000D02*
X173561000Y-100302000D01*
X173601000Y-102411000D02*
X173601000Y-100389000D01*
X173641000Y-102315000D02*
X173641000Y-100485000D01*
X173681000Y-102205000D02*
X173681000Y-100595000D01*
X173721000Y-102077000D02*
X173721000Y-100723000D01*
X173761000Y-101918000D02*
X173761000Y-100882000D01*
X173801000Y-101684000D02*
X173801000Y-101116000D01*
X168395225Y-102875000D02*
X168895225Y-102875000D01*
X168645225Y-103125000D02*
X168645225Y-102625000D01*
%TO.C,C21*%
X173320000Y-84100000D02*
G75*
G03*
X173320000Y-84100000I-2620000J0D01*
G01*
X170700000Y-83060000D02*
X170700000Y-81520000D01*
X170700000Y-86680000D02*
X170700000Y-85140000D01*
X170740000Y-83060000D02*
X170740000Y-81520000D01*
X170740000Y-86680000D02*
X170740000Y-85140000D01*
X170780000Y-86679000D02*
X170780000Y-85140000D01*
X170780000Y-83060000D02*
X170780000Y-81521000D01*
X170820000Y-86678000D02*
X170820000Y-85140000D01*
X170820000Y-83060000D02*
X170820000Y-81522000D01*
X170860000Y-86676000D02*
X170860000Y-85140000D01*
X170860000Y-83060000D02*
X170860000Y-81524000D01*
X170900000Y-86673000D02*
X170900000Y-85140000D01*
X170900000Y-83060000D02*
X170900000Y-81527000D01*
X170940000Y-86669000D02*
X170940000Y-85140000D01*
X170940000Y-83060000D02*
X170940000Y-81531000D01*
X170980000Y-86665000D02*
X170980000Y-85140000D01*
X170980000Y-83060000D02*
X170980000Y-81535000D01*
X171020000Y-86661000D02*
X171020000Y-85140000D01*
X171020000Y-83060000D02*
X171020000Y-81539000D01*
X171060000Y-86656000D02*
X171060000Y-85140000D01*
X171060000Y-83060000D02*
X171060000Y-81544000D01*
X171100000Y-86650000D02*
X171100000Y-85140000D01*
X171100000Y-83060000D02*
X171100000Y-81550000D01*
X171140000Y-86643000D02*
X171140000Y-85140000D01*
X171140000Y-83060000D02*
X171140000Y-81557000D01*
X171180000Y-86636000D02*
X171180000Y-85140000D01*
X171180000Y-83060000D02*
X171180000Y-81564000D01*
X171220000Y-86628000D02*
X171220000Y-85140000D01*
X171220000Y-83060000D02*
X171220000Y-81572000D01*
X171260000Y-86620000D02*
X171260000Y-85140000D01*
X171260000Y-83060000D02*
X171260000Y-81580000D01*
X171300000Y-86611000D02*
X171300000Y-85140000D01*
X171300000Y-83060000D02*
X171300000Y-81589000D01*
X171340000Y-86601000D02*
X171340000Y-85140000D01*
X171340000Y-83060000D02*
X171340000Y-81599000D01*
X171380000Y-86591000D02*
X171380000Y-85140000D01*
X171380000Y-83060000D02*
X171380000Y-81609000D01*
X171421000Y-86580000D02*
X171421000Y-85140000D01*
X171421000Y-83060000D02*
X171421000Y-81620000D01*
X171461000Y-86568000D02*
X171461000Y-85140000D01*
X171461000Y-83060000D02*
X171461000Y-81632000D01*
X171501000Y-86555000D02*
X171501000Y-85140000D01*
X171501000Y-83060000D02*
X171501000Y-81645000D01*
X171541000Y-86542000D02*
X171541000Y-85140000D01*
X171541000Y-83060000D02*
X171541000Y-81658000D01*
X171581000Y-86528000D02*
X171581000Y-85140000D01*
X171581000Y-83060000D02*
X171581000Y-81672000D01*
X171621000Y-86514000D02*
X171621000Y-85140000D01*
X171621000Y-83060000D02*
X171621000Y-81686000D01*
X171661000Y-86498000D02*
X171661000Y-85140000D01*
X171661000Y-83060000D02*
X171661000Y-81702000D01*
X171701000Y-86482000D02*
X171701000Y-85140000D01*
X171701000Y-83060000D02*
X171701000Y-81718000D01*
X171741000Y-86465000D02*
X171741000Y-85140000D01*
X171741000Y-83060000D02*
X171741000Y-81735000D01*
X171781000Y-86448000D02*
X171781000Y-85140000D01*
X171781000Y-83060000D02*
X171781000Y-81752000D01*
X171821000Y-86429000D02*
X171821000Y-85140000D01*
X171821000Y-83060000D02*
X171821000Y-81771000D01*
X171861000Y-86410000D02*
X171861000Y-85140000D01*
X171861000Y-83060000D02*
X171861000Y-81790000D01*
X171901000Y-86390000D02*
X171901000Y-85140000D01*
X171901000Y-83060000D02*
X171901000Y-81810000D01*
X171941000Y-86368000D02*
X171941000Y-85140000D01*
X171941000Y-83060000D02*
X171941000Y-81832000D01*
X171981000Y-86347000D02*
X171981000Y-85140000D01*
X171981000Y-83060000D02*
X171981000Y-81853000D01*
X172021000Y-86324000D02*
X172021000Y-85140000D01*
X172021000Y-83060000D02*
X172021000Y-81876000D01*
X172061000Y-86300000D02*
X172061000Y-85140000D01*
X172061000Y-83060000D02*
X172061000Y-81900000D01*
X172101000Y-86275000D02*
X172101000Y-85140000D01*
X172101000Y-83060000D02*
X172101000Y-81925000D01*
X172141000Y-86249000D02*
X172141000Y-85140000D01*
X172141000Y-83060000D02*
X172141000Y-81951000D01*
X172181000Y-86222000D02*
X172181000Y-85140000D01*
X172181000Y-83060000D02*
X172181000Y-81978000D01*
X172221000Y-86195000D02*
X172221000Y-85140000D01*
X172221000Y-83060000D02*
X172221000Y-82005000D01*
X172261000Y-86165000D02*
X172261000Y-85140000D01*
X172261000Y-83060000D02*
X172261000Y-82035000D01*
X172301000Y-86135000D02*
X172301000Y-85140000D01*
X172301000Y-83060000D02*
X172301000Y-82065000D01*
X172341000Y-86104000D02*
X172341000Y-85140000D01*
X172341000Y-83060000D02*
X172341000Y-82096000D01*
X172381000Y-86071000D02*
X172381000Y-85140000D01*
X172381000Y-83060000D02*
X172381000Y-82129000D01*
X172421000Y-86037000D02*
X172421000Y-85140000D01*
X172421000Y-83060000D02*
X172421000Y-82163000D01*
X172461000Y-86001000D02*
X172461000Y-85140000D01*
X172461000Y-83060000D02*
X172461000Y-82199000D01*
X172501000Y-85964000D02*
X172501000Y-85140000D01*
X172501000Y-83060000D02*
X172501000Y-82236000D01*
X172541000Y-85926000D02*
X172541000Y-85140000D01*
X172541000Y-83060000D02*
X172541000Y-82274000D01*
X172581000Y-85885000D02*
X172581000Y-85140000D01*
X172581000Y-83060000D02*
X172581000Y-82315000D01*
X172621000Y-85843000D02*
X172621000Y-85140000D01*
X172621000Y-83060000D02*
X172621000Y-82357000D01*
X172661000Y-85799000D02*
X172661000Y-85140000D01*
X172661000Y-83060000D02*
X172661000Y-82401000D01*
X172701000Y-85753000D02*
X172701000Y-85140000D01*
X172701000Y-83060000D02*
X172701000Y-82447000D01*
X172741000Y-85705000D02*
X172741000Y-82495000D01*
X172781000Y-85654000D02*
X172781000Y-82546000D01*
X172821000Y-85600000D02*
X172821000Y-82600000D01*
X172861000Y-85543000D02*
X172861000Y-82657000D01*
X172901000Y-85483000D02*
X172901000Y-82717000D01*
X172941000Y-85419000D02*
X172941000Y-82781000D01*
X172981000Y-85351000D02*
X172981000Y-82849000D01*
X173021000Y-85278000D02*
X173021000Y-82922000D01*
X173061000Y-85198000D02*
X173061000Y-83002000D01*
X173101000Y-85111000D02*
X173101000Y-83089000D01*
X173141000Y-85015000D02*
X173141000Y-83185000D01*
X173181000Y-84905000D02*
X173181000Y-83295000D01*
X173221000Y-84777000D02*
X173221000Y-83423000D01*
X173261000Y-84618000D02*
X173261000Y-83582000D01*
X173301000Y-84384000D02*
X173301000Y-83816000D01*
X167895225Y-85575000D02*
X168395225Y-85575000D01*
X168145225Y-85825000D02*
X168145225Y-85325000D01*
%TO.C,TP10*%
D11*
X127988095Y-119600380D02*
X127416666Y-119600380D01*
X127702380Y-120600380D02*
X127702380Y-119600380D01*
X127083333Y-120600380D02*
X127083333Y-119600380D01*
X126702380Y-119600380D01*
X126607142Y-119648000D01*
X126559523Y-119695619D01*
X126511904Y-119790857D01*
X126511904Y-119933714D01*
X126559523Y-120028952D01*
X126607142Y-120076571D01*
X126702380Y-120124190D01*
X127083333Y-120124190D01*
X125559523Y-120600380D02*
X126130952Y-120600380D01*
X125845238Y-120600380D02*
X125845238Y-119600380D01*
X125940476Y-119743238D01*
X126035714Y-119838476D01*
X126130952Y-119886095D01*
X124940476Y-119600380D02*
X124845238Y-119600380D01*
X124750000Y-119648000D01*
X124702380Y-119695619D01*
X124654761Y-119790857D01*
X124607142Y-119981333D01*
X124607142Y-120219428D01*
X124654761Y-120409904D01*
X124702380Y-120505142D01*
X124750000Y-120552761D01*
X124845238Y-120600380D01*
X124940476Y-120600380D01*
X125035714Y-120552761D01*
X125083333Y-120505142D01*
X125130952Y-120409904D01*
X125178571Y-120219428D01*
X125178571Y-119981333D01*
X125130952Y-119790857D01*
X125083333Y-119695619D01*
X125035714Y-119648000D01*
X124940476Y-119600380D01*
%TO.C,TP9*%
X117511904Y-119600380D02*
X116940476Y-119600380D01*
X117226190Y-120600380D02*
X117226190Y-119600380D01*
X116607142Y-120600380D02*
X116607142Y-119600380D01*
X116226190Y-119600380D01*
X116130952Y-119648000D01*
X116083333Y-119695619D01*
X116035714Y-119790857D01*
X116035714Y-119933714D01*
X116083333Y-120028952D01*
X116130952Y-120076571D01*
X116226190Y-120124190D01*
X116607142Y-120124190D01*
X115559523Y-120600380D02*
X115369047Y-120600380D01*
X115273809Y-120552761D01*
X115226190Y-120505142D01*
X115130952Y-120362285D01*
X115083333Y-120171809D01*
X115083333Y-119790857D01*
X115130952Y-119695619D01*
X115178571Y-119648000D01*
X115273809Y-119600380D01*
X115464285Y-119600380D01*
X115559523Y-119648000D01*
X115607142Y-119695619D01*
X115654761Y-119790857D01*
X115654761Y-120028952D01*
X115607142Y-120124190D01*
X115559523Y-120171809D01*
X115464285Y-120219428D01*
X115273809Y-120219428D01*
X115178571Y-120171809D01*
X115130952Y-120124190D01*
X115083333Y-120028952D01*
%TO.C,TP8*%
X120261904Y-119600380D02*
X119690476Y-119600380D01*
X119976190Y-120600380D02*
X119976190Y-119600380D01*
X119357142Y-120600380D02*
X119357142Y-119600380D01*
X118976190Y-119600380D01*
X118880952Y-119648000D01*
X118833333Y-119695619D01*
X118785714Y-119790857D01*
X118785714Y-119933714D01*
X118833333Y-120028952D01*
X118880952Y-120076571D01*
X118976190Y-120124190D01*
X119357142Y-120124190D01*
X118214285Y-120028952D02*
X118309523Y-119981333D01*
X118357142Y-119933714D01*
X118404761Y-119838476D01*
X118404761Y-119790857D01*
X118357142Y-119695619D01*
X118309523Y-119648000D01*
X118214285Y-119600380D01*
X118023809Y-119600380D01*
X117928571Y-119648000D01*
X117880952Y-119695619D01*
X117833333Y-119790857D01*
X117833333Y-119838476D01*
X117880952Y-119933714D01*
X117928571Y-119981333D01*
X118023809Y-120028952D01*
X118214285Y-120028952D01*
X118309523Y-120076571D01*
X118357142Y-120124190D01*
X118404761Y-120219428D01*
X118404761Y-120409904D01*
X118357142Y-120505142D01*
X118309523Y-120552761D01*
X118214285Y-120600380D01*
X118023809Y-120600380D01*
X117928571Y-120552761D01*
X117880952Y-120505142D01*
X117833333Y-120409904D01*
X117833333Y-120219428D01*
X117880952Y-120124190D01*
X117928571Y-120076571D01*
X118023809Y-120028952D01*
%TO.C,TP4*%
X127511904Y-115850380D02*
X126940476Y-115850380D01*
X127226190Y-116850380D02*
X127226190Y-115850380D01*
X126607142Y-116850380D02*
X126607142Y-115850380D01*
X126226190Y-115850380D01*
X126130952Y-115898000D01*
X126083333Y-115945619D01*
X126035714Y-116040857D01*
X126035714Y-116183714D01*
X126083333Y-116278952D01*
X126130952Y-116326571D01*
X126226190Y-116374190D01*
X126607142Y-116374190D01*
X125178571Y-116183714D02*
X125178571Y-116850380D01*
X125416666Y-115802761D02*
X125654761Y-116517047D01*
X125035714Y-116517047D01*
%TO.C,C29*%
X165392857Y-108177142D02*
X165440476Y-108224761D01*
X165583333Y-108272380D01*
X165678571Y-108272380D01*
X165821428Y-108224761D01*
X165916666Y-108129523D01*
X165964285Y-108034285D01*
X166011904Y-107843809D01*
X166011904Y-107700952D01*
X165964285Y-107510476D01*
X165916666Y-107415238D01*
X165821428Y-107320000D01*
X165678571Y-107272380D01*
X165583333Y-107272380D01*
X165440476Y-107320000D01*
X165392857Y-107367619D01*
X165011904Y-107367619D02*
X164964285Y-107320000D01*
X164869047Y-107272380D01*
X164630952Y-107272380D01*
X164535714Y-107320000D01*
X164488095Y-107367619D01*
X164440476Y-107462857D01*
X164440476Y-107558095D01*
X164488095Y-107700952D01*
X165059523Y-108272380D01*
X164440476Y-108272380D01*
X163964285Y-108272380D02*
X163773809Y-108272380D01*
X163678571Y-108224761D01*
X163630952Y-108177142D01*
X163535714Y-108034285D01*
X163488095Y-107843809D01*
X163488095Y-107462857D01*
X163535714Y-107367619D01*
X163583333Y-107320000D01*
X163678571Y-107272380D01*
X163869047Y-107272380D01*
X163964285Y-107320000D01*
X164011904Y-107367619D01*
X164059523Y-107462857D01*
X164059523Y-107700952D01*
X164011904Y-107796190D01*
X163964285Y-107843809D01*
X163869047Y-107891428D01*
X163678571Y-107891428D01*
X163583333Y-107843809D01*
X163535714Y-107796190D01*
X163488095Y-107700952D01*
%TO.C,C44*%
X165392857Y-109857142D02*
X165440476Y-109904761D01*
X165583333Y-109952380D01*
X165678571Y-109952380D01*
X165821428Y-109904761D01*
X165916666Y-109809523D01*
X165964285Y-109714285D01*
X166011904Y-109523809D01*
X166011904Y-109380952D01*
X165964285Y-109190476D01*
X165916666Y-109095238D01*
X165821428Y-109000000D01*
X165678571Y-108952380D01*
X165583333Y-108952380D01*
X165440476Y-109000000D01*
X165392857Y-109047619D01*
X164535714Y-109285714D02*
X164535714Y-109952380D01*
X164773809Y-108904761D02*
X165011904Y-109619047D01*
X164392857Y-109619047D01*
X163583333Y-109285714D02*
X163583333Y-109952380D01*
X163821428Y-108904761D02*
X164059523Y-109619047D01*
X163440476Y-109619047D01*
%TO.C,U6*%
X157561904Y-103132380D02*
X157561904Y-103941904D01*
X157514285Y-104037142D01*
X157466666Y-104084761D01*
X157371428Y-104132380D01*
X157180952Y-104132380D01*
X157085714Y-104084761D01*
X157038095Y-104037142D01*
X156990476Y-103941904D01*
X156990476Y-103132380D01*
X156085714Y-103132380D02*
X156276190Y-103132380D01*
X156371428Y-103180000D01*
X156419047Y-103227619D01*
X156514285Y-103370476D01*
X156561904Y-103560952D01*
X156561904Y-103941904D01*
X156514285Y-104037142D01*
X156466666Y-104084761D01*
X156371428Y-104132380D01*
X156180952Y-104132380D01*
X156085714Y-104084761D01*
X156038095Y-104037142D01*
X155990476Y-103941904D01*
X155990476Y-103703809D01*
X156038095Y-103608571D01*
X156085714Y-103560952D01*
X156180952Y-103513333D01*
X156371428Y-103513333D01*
X156466666Y-103560952D01*
X156514285Y-103608571D01*
X156561904Y-103703809D01*
%TO.C,C43*%
X92642857Y-120807142D02*
X92690476Y-120854761D01*
X92833333Y-120902380D01*
X92928571Y-120902380D01*
X93071428Y-120854761D01*
X93166666Y-120759523D01*
X93214285Y-120664285D01*
X93261904Y-120473809D01*
X93261904Y-120330952D01*
X93214285Y-120140476D01*
X93166666Y-120045238D01*
X93071428Y-119950000D01*
X92928571Y-119902380D01*
X92833333Y-119902380D01*
X92690476Y-119950000D01*
X92642857Y-119997619D01*
X91785714Y-120235714D02*
X91785714Y-120902380D01*
X92023809Y-119854761D02*
X92261904Y-120569047D01*
X91642857Y-120569047D01*
X91357142Y-119902380D02*
X90738095Y-119902380D01*
X91071428Y-120283333D01*
X90928571Y-120283333D01*
X90833333Y-120330952D01*
X90785714Y-120378571D01*
X90738095Y-120473809D01*
X90738095Y-120711904D01*
X90785714Y-120807142D01*
X90833333Y-120854761D01*
X90928571Y-120902380D01*
X91214285Y-120902380D01*
X91309523Y-120854761D01*
X91357142Y-120807142D01*
%TO.C,C31*%
X208042857Y-80307142D02*
X208090476Y-80354761D01*
X208233333Y-80402380D01*
X208328571Y-80402380D01*
X208471428Y-80354761D01*
X208566666Y-80259523D01*
X208614285Y-80164285D01*
X208661904Y-79973809D01*
X208661904Y-79830952D01*
X208614285Y-79640476D01*
X208566666Y-79545238D01*
X208471428Y-79450000D01*
X208328571Y-79402380D01*
X208233333Y-79402380D01*
X208090476Y-79450000D01*
X208042857Y-79497619D01*
X207709523Y-79402380D02*
X207090476Y-79402380D01*
X207423809Y-79783333D01*
X207280952Y-79783333D01*
X207185714Y-79830952D01*
X207138095Y-79878571D01*
X207090476Y-79973809D01*
X207090476Y-80211904D01*
X207138095Y-80307142D01*
X207185714Y-80354761D01*
X207280952Y-80402380D01*
X207566666Y-80402380D01*
X207661904Y-80354761D01*
X207709523Y-80307142D01*
X206138095Y-80402380D02*
X206709523Y-80402380D01*
X206423809Y-80402380D02*
X206423809Y-79402380D01*
X206519047Y-79545238D01*
X206614285Y-79640476D01*
X206709523Y-79688095D01*
%TO.C,C30*%
X217242857Y-69307142D02*
X217290476Y-69354761D01*
X217433333Y-69402380D01*
X217528571Y-69402380D01*
X217671428Y-69354761D01*
X217766666Y-69259523D01*
X217814285Y-69164285D01*
X217861904Y-68973809D01*
X217861904Y-68830952D01*
X217814285Y-68640476D01*
X217766666Y-68545238D01*
X217671428Y-68450000D01*
X217528571Y-68402380D01*
X217433333Y-68402380D01*
X217290476Y-68450000D01*
X217242857Y-68497619D01*
X216909523Y-68402380D02*
X216290476Y-68402380D01*
X216623809Y-68783333D01*
X216480952Y-68783333D01*
X216385714Y-68830952D01*
X216338095Y-68878571D01*
X216290476Y-68973809D01*
X216290476Y-69211904D01*
X216338095Y-69307142D01*
X216385714Y-69354761D01*
X216480952Y-69402380D01*
X216766666Y-69402380D01*
X216861904Y-69354761D01*
X216909523Y-69307142D01*
X215671428Y-68402380D02*
X215576190Y-68402380D01*
X215480952Y-68450000D01*
X215433333Y-68497619D01*
X215385714Y-68592857D01*
X215338095Y-68783333D01*
X215338095Y-69021428D01*
X215385714Y-69211904D01*
X215433333Y-69307142D01*
X215480952Y-69354761D01*
X215576190Y-69402380D01*
X215671428Y-69402380D01*
X215766666Y-69354761D01*
X215814285Y-69307142D01*
X215861904Y-69211904D01*
X215909523Y-69021428D01*
X215909523Y-68783333D01*
X215861904Y-68592857D01*
X215814285Y-68497619D01*
X215766666Y-68450000D01*
X215671428Y-68402380D01*
%TO.C,C25*%
X216842857Y-89107142D02*
X216890476Y-89154761D01*
X217033333Y-89202380D01*
X217128571Y-89202380D01*
X217271428Y-89154761D01*
X217366666Y-89059523D01*
X217414285Y-88964285D01*
X217461904Y-88773809D01*
X217461904Y-88630952D01*
X217414285Y-88440476D01*
X217366666Y-88345238D01*
X217271428Y-88250000D01*
X217128571Y-88202380D01*
X217033333Y-88202380D01*
X216890476Y-88250000D01*
X216842857Y-88297619D01*
X216461904Y-88297619D02*
X216414285Y-88250000D01*
X216319047Y-88202380D01*
X216080952Y-88202380D01*
X215985714Y-88250000D01*
X215938095Y-88297619D01*
X215890476Y-88392857D01*
X215890476Y-88488095D01*
X215938095Y-88630952D01*
X216509523Y-89202380D01*
X215890476Y-89202380D01*
X214985714Y-88202380D02*
X215461904Y-88202380D01*
X215509523Y-88678571D01*
X215461904Y-88630952D01*
X215366666Y-88583333D01*
X215128571Y-88583333D01*
X215033333Y-88630952D01*
X214985714Y-88678571D01*
X214938095Y-88773809D01*
X214938095Y-89011904D01*
X214985714Y-89107142D01*
X215033333Y-89154761D01*
X215128571Y-89202380D01*
X215366666Y-89202380D01*
X215461904Y-89154761D01*
X215509523Y-89107142D01*
%TO.C,C24*%
X171842857Y-105507142D02*
X171890476Y-105554761D01*
X172033333Y-105602380D01*
X172128571Y-105602380D01*
X172271428Y-105554761D01*
X172366666Y-105459523D01*
X172414285Y-105364285D01*
X172461904Y-105173809D01*
X172461904Y-105030952D01*
X172414285Y-104840476D01*
X172366666Y-104745238D01*
X172271428Y-104650000D01*
X172128571Y-104602380D01*
X172033333Y-104602380D01*
X171890476Y-104650000D01*
X171842857Y-104697619D01*
X171461904Y-104697619D02*
X171414285Y-104650000D01*
X171319047Y-104602380D01*
X171080952Y-104602380D01*
X170985714Y-104650000D01*
X170938095Y-104697619D01*
X170890476Y-104792857D01*
X170890476Y-104888095D01*
X170938095Y-105030952D01*
X171509523Y-105602380D01*
X170890476Y-105602380D01*
X170033333Y-104935714D02*
X170033333Y-105602380D01*
X170271428Y-104554761D02*
X170509523Y-105269047D01*
X169890476Y-105269047D01*
%TO.C,C21*%
X171342857Y-88207142D02*
X171390476Y-88254761D01*
X171533333Y-88302380D01*
X171628571Y-88302380D01*
X171771428Y-88254761D01*
X171866666Y-88159523D01*
X171914285Y-88064285D01*
X171961904Y-87873809D01*
X171961904Y-87730952D01*
X171914285Y-87540476D01*
X171866666Y-87445238D01*
X171771428Y-87350000D01*
X171628571Y-87302380D01*
X171533333Y-87302380D01*
X171390476Y-87350000D01*
X171342857Y-87397619D01*
X170961904Y-87397619D02*
X170914285Y-87350000D01*
X170819047Y-87302380D01*
X170580952Y-87302380D01*
X170485714Y-87350000D01*
X170438095Y-87397619D01*
X170390476Y-87492857D01*
X170390476Y-87588095D01*
X170438095Y-87730952D01*
X171009523Y-88302380D01*
X170390476Y-88302380D01*
X169438095Y-88302380D02*
X170009523Y-88302380D01*
X169723809Y-88302380D02*
X169723809Y-87302380D01*
X169819047Y-87445238D01*
X169914285Y-87540476D01*
X170009523Y-87588095D01*
%TD*%
M02*
