M48
; DRILL file {KiCad (5.1.7)-1} date 03/26/21 00:16:32
; FORMAT={-:-/ absolute / inch / decimal}
; #@! TF.CreationDate,2021-03-26T00:16:32-04:00
; #@! TF.GenerationSoftware,Kicad,Pcbnew,(5.1.7)-1
; #@! TF.FileFunction,NonPlated,1,2,NPTH
FMAT,2
INCH
T1C0.0669
T2C0.1063
T3C0.1575
%
G90
G05
T1
X8.4035Y-3.8642
X8.8035Y-3.8642
X7.6535Y-3.8642
X8.0535Y-3.8642
X6.9035Y-4.6142
X7.3035Y-4.6142
X6.9035Y-3.8642
X7.3035Y-3.8642
X8.4035Y-4.6142
X8.8035Y-4.6142
X7.6535Y-4.6142
X8.0535Y-4.6142
T2
X2.7165Y-3.5433
X2.7165Y-5.0
X7.5Y-2.4409
X6.1024Y-5.0
X9.0157Y-5.0
X9.0157Y-2.4409
X6.1024Y-3.5433
X9.0157Y-3.5433
T3
X8.6035Y-3.8642
X7.8535Y-3.8642
X7.1035Y-4.6142
X7.1035Y-3.8642
X8.6035Y-4.6142
X7.8535Y-4.6142
T0
M30
