M48
; DRILL file {KiCad (5.1.7)-1} date 03/26/21 00:16:32
; FORMAT={-:-/ absolute / inch / decimal}
; #@! TF.CreationDate,2021-03-26T00:16:32-04:00
; #@! TF.GenerationSoftware,Kicad,Pcbnew,(5.1.7)-1
; #@! TF.FileFunction,Plated,1,2,PTH
FMAT,2
INCH
T1C0.0118
T2C0.0157
T3C0.0256
T4C0.0295
T5C0.0315
T6C0.0362
T7C0.0374
T8C0.0394
T9C0.0591
T10C0.0630
T11C0.0906
T12C0.0917
%
G90
G05
T1
X3.0709Y-4.5197
X3.1309Y-4.9016
X3.1339Y-4.3071
X3.1654Y-4.3071
X3.2756Y-3.7953
X3.2756Y-3.8346
X3.5118Y-3.8346
X4.0079Y-3.8031
X4.0079Y-3.8425
X4.0709Y-4.0787
X4.0945Y-4.0551
X4.1654Y-4.7402
X4.2126Y-3.8661
X4.2677Y-4.7717
X4.315Y-4.5276
X4.378Y-4.3622
X4.378Y-4.4252
X4.378Y-4.4724
X4.378Y-4.5197
X4.3789Y-4.3159
X4.7402Y-3.7953
X4.7402Y-3.8346
X4.8425Y-4.0551
X4.874Y-4.0551
X4.9685Y-3.8346
X4.9921Y-4.7717
X5.0Y-4.2205
X5.0236Y-4.5748
X5.0236Y-4.7402
X5.2116Y-4.6211
X5.2126Y-4.5711
X5.2126Y-4.7717
X5.2165Y-4.3209
X5.2165Y-4.3701
X5.2199Y-4.2211
X5.25Y-4.6457
X5.2815Y-4.6457
X5.2992Y-4.8268
X5.4094Y-4.3701
X5.4094Y-4.4961
X5.4114Y-4.3209
X5.4488Y-4.4902
X5.4724Y-3.7874
X5.4724Y-3.8268
X5.5191Y-4.41
X5.5197Y-4.3071
X5.5197Y-4.3543
X5.5197Y-4.2756
X5.595Y-4.2013
X5.6142Y-4.4567
X5.6181Y-4.3504
X5.6398Y-4.8839
X5.6535Y-4.1496
X5.6624Y-4.5502
X5.6772Y-4.252
X5.6959Y-4.5502
X5.7087Y-3.8268
X5.7165Y-4.3504
X5.7165Y-4.4567
X5.7638Y-4.4961
X5.8031Y-4.4409
X5.8031Y-4.4724
X5.811Y-4.3071
X5.9134Y-4.34
X5.9186Y-4.4816
X6.0039Y-3.937
X6.0262Y-3.9147
X6.0506Y-3.8949
X6.063Y-4.315
X6.0761Y-3.8763
X6.1315Y-3.0094
X6.1417Y-4.2421
X6.1923Y-4.6929
X6.2008Y-4.7244
X6.2224Y-2.937
X6.3937Y-4.3691
X6.3937Y-4.4026
X6.5354Y-3.5276
X6.5669Y-3.6457
X6.7087Y-4.5669
X6.7165Y-4.8504
X6.8031Y-4.1811
X6.8031Y-4.2441
X6.8031Y-4.3071
X6.8031Y-4.3937
X6.8031Y-4.4567
X6.8031Y-4.5197
X6.8346Y-4.622
X6.8346Y-4.6929
X6.8346Y-5.1102
X6.8425Y-4.1102
X6.8573Y-3.0395
X6.8898Y-3.6535
X6.9046Y-3.2274
X6.9291Y-3.0591
X6.9567Y-3.2795
X7.0462Y-3.1643
X7.1153Y-3.3888
X7.1181Y-3.1201
X7.1181Y-3.2185
X7.1181Y-3.2972
X7.123Y-3.499
X7.1506Y-3.1191
X7.182Y-3.1203
X7.1909Y-3.4488
X7.1969Y-3.2185
X7.1969Y-3.2972
X7.252Y-3.3563
X7.2539Y-3.1693
X7.2835Y-3.1439
X7.2868Y-3.2567
X7.2874Y-3.0236
X7.3071Y-3.1988
X7.3076Y-3.2331
X7.378Y-3.0157
X7.378Y-3.0551
X7.3858Y-2.6299
X7.4193Y-2.8819
X7.4665Y-2.8819
X7.4685Y-3.185
X7.4724Y-3.1457
X7.5118Y-3.2835
X7.5118Y-3.3189
X7.5177Y-2.8819
X7.6201Y-2.9449
X7.622Y-3.5591
X7.6811Y-3.0827
X7.6811Y-3.1299
X7.7047Y-3.1063
X7.7165Y-3.2913
X7.7291Y-3.1614
X7.7559Y-3.2913
X7.7559Y-3.5197
X7.7638Y-3.0787
X7.7882Y-3.1614
X7.8583Y-3.3238
X8.4094Y-3.4094
X8.8583Y-5.1102
T2
X2.9921Y-3.5433
X2.9921Y-3.6417
X2.9921Y-3.7402
X3.7402Y-3.5433
X3.7402Y-3.6417
X3.7402Y-3.7402
X4.3602Y-3.7598
X4.3602Y-3.7992
X4.3602Y-3.8386
X4.4488Y-3.5433
X4.4488Y-3.6417
X4.4488Y-3.7402
X4.5768Y-4.6063
X4.626Y-4.2323
X4.7244Y-4.2323
X4.7441Y-4.6654
X4.8228Y-4.2323
X4.8228Y-4.626
X4.9114Y-4.6654
X4.9213Y-4.2323
X5.0591Y-4.5177
X5.1969Y-3.5433
X5.1969Y-3.6417
X5.1969Y-3.7402
X5.9055Y-3.4646
X5.9449Y-3.4252
X5.9449Y-3.4646
X5.9843Y-3.3858
X5.9843Y-3.4252
X5.9843Y-3.4646
X6.0236Y-3.3465
X6.0236Y-3.3858
X6.0236Y-3.4252
X6.063Y-3.3071
X6.063Y-3.3465
X6.063Y-3.3858
X6.063Y-3.4252
X6.1024Y-3.3071
X6.1024Y-3.3465
X6.1024Y-3.3858
X6.1024Y-3.4252
X6.1417Y-3.3071
X6.1417Y-3.3465
X6.1417Y-3.3858
X6.1417Y-3.4252
X6.1811Y-3.3071
X6.1811Y-3.3465
X6.1811Y-3.3858
X6.1811Y-3.4252
X6.1811Y-3.4646
X6.201Y-4.5238
X6.2029Y-4.3623
X6.2205Y-3.3071
X6.2205Y-3.3465
X6.2205Y-3.3858
X6.2205Y-3.4252
X6.2205Y-3.4646
X6.2598Y-3.189
X6.2598Y-3.2283
X6.2598Y-3.2677
X6.2913Y-3.5197
X6.2992Y-3.4252
X6.3386Y-3.189
X6.3386Y-3.2283
X6.3386Y-3.2677
X6.3386Y-3.4252
X6.378Y-3.189
X6.378Y-3.2283
X6.378Y-3.2677
X6.378Y-3.4252
X6.378Y-4.1634
X6.378Y-4.252
X6.3976Y-4.5472
X6.3976Y-4.7047
X6.4173Y-3.189
X6.4173Y-3.2283
X6.4173Y-3.2677
X6.4173Y-3.4252
X6.4567Y-3.189
X6.4567Y-3.2283
X6.4567Y-3.2677
X6.4567Y-3.3071
X6.4567Y-3.3465
X6.4567Y-3.3858
X6.4567Y-3.4252
X6.4961Y-3.3071
X6.4961Y-3.3465
X6.4961Y-3.3858
X6.4961Y-3.4252
X6.5157Y-4.1339
X6.5157Y-4.2717
X6.5157Y-4.3898
X6.5157Y-4.4685
X6.5157Y-4.5472
X6.5157Y-4.7047
X6.5354Y-3.3071
X6.5354Y-3.3465
X6.5354Y-3.3858
X6.5354Y-3.4252
X6.5669Y-2.622
X6.5846Y-3.5984
X6.622Y-3.3071
X6.622Y-3.3465
X6.6535Y-4.9213
X6.6535Y-5.0
X6.6772Y-3.4606
X6.7008Y-3.7559
X6.7008Y-3.8031
X6.7205Y-2.9764
X6.7205Y-3.2283
X6.7283Y-3.4606
X6.7323Y-2.8346
X6.7323Y-2.9134
X6.7638Y-3.5197
X6.7717Y-4.7638
X6.7717Y-4.8425
X6.7717Y-4.9213
X6.7717Y-5.0
X6.7953Y-3.4882
X6.811Y-2.8346
X6.8307Y-3.4567
X6.8898Y-2.5984
X6.8898Y-4.7638
X6.8898Y-4.8425
X6.8898Y-4.9213
X6.8898Y-5.0
X6.9055Y-3.5591
X6.9409Y-3.1063
X6.9449Y-3.5197
X6.9685Y-4.7638
X6.9685Y-4.8425
X6.9685Y-4.9213
X6.9685Y-5.0
X6.9724Y-3.4252
X6.9724Y-3.4882
X6.9882Y-3.0591
X7.0Y-3.3937
X7.0Y-3.4567
X7.0Y-3.5236
X7.0315Y-3.4882
X7.0472Y-2.5984
X7.2047Y-2.5984
X7.2205Y-2.8533
X7.2205Y-2.8947
X7.4685Y-3.3189
X7.4685Y-3.378
X7.4803Y-3.6614
X7.4803Y-3.8583
X7.4803Y-4.0945
X7.4803Y-4.4094
X7.4803Y-4.6457
X7.4803Y-4.8425
X7.4961Y-2.6535
X7.5399Y-3.4952
X7.5691Y-3.5244
X7.5906Y-3.2874
X7.6378Y-2.8346
X7.6614Y-3.2913
X7.7087Y-3.5984
X7.7087Y-3.3504
X7.7165Y-2.8346
X7.7165Y-2.9134
X7.7559Y-2.5984
X7.874Y-3.0709
X7.874Y-3.1496
X7.9134Y-2.5984
X7.9528Y-3.0709
X7.9528Y-3.1496
X7.9528Y-3.2283
X8.0039Y-3.3819
X8.0315Y-2.5984
X8.0315Y-3.0709
X8.0315Y-3.1496
X8.0315Y-3.2283
X8.0315Y-3.3071
X8.1102Y-3.0709
X8.1102Y-3.1496
X8.1102Y-3.2283
X8.1102Y-3.3071
X8.1102Y-3.3858
X8.189Y-2.5984
X8.189Y-3.0709
X8.189Y-3.1496
X8.189Y-3.2283
X8.189Y-3.3071
X8.189Y-3.3858
X8.2283Y-3.6614
X8.2283Y-3.8583
X8.2283Y-4.0945
X8.2283Y-4.4094
X8.2283Y-4.6457
X8.2283Y-4.8425
X8.2677Y-3.0709
X8.2677Y-3.1496
X8.2677Y-3.2283
X8.2677Y-3.3071
X8.2677Y-3.3858
X8.2795Y-3.4439
X8.2795Y-3.4852
X8.3337Y-2.6339
X8.375Y-2.6339
X8.4803Y-3.5354
X8.5433Y-2.9134
X8.5433Y-2.9921
X8.5433Y-3.1496
X8.5433Y-3.2677
T3
X6.5728Y-3.8917
X6.6228Y-3.8917
X6.6728Y-3.8917
X6.7228Y-3.8917
X6.7728Y-3.8917
X8.3622Y-2.4547
X8.4122Y-2.4547
X8.4622Y-2.4547
X8.5122Y-2.4547
X8.5622Y-2.4547
T4
X2.8031Y-4.5984
X2.8031Y-4.6772
X2.8031Y-4.7559
X2.8031Y-4.1929
X2.8031Y-4.2717
X2.8031Y-4.3504
X3.9272Y-3.6476
X4.0059Y-3.6476
X4.0846Y-3.6476
X4.1634Y-3.6476
X4.2421Y-3.6476
X4.6555Y-3.6476
X4.7343Y-3.6476
X4.813Y-3.6476
X4.8917Y-3.6476
X4.9705Y-3.6476
X5.3937Y-3.6476
X5.4724Y-3.6476
X5.5512Y-3.6476
X5.6299Y-3.6476
X5.7087Y-3.6476
X2.8031Y-3.7874
X2.8031Y-3.8661
X2.8031Y-3.9449
X3.189Y-3.6476
X3.2677Y-3.6476
X3.3465Y-3.6476
X3.4252Y-3.6476
X3.5039Y-3.6476
T5
X6.6811Y-3.311
X6.7598Y-3.311
X8.4882Y-2.5669
X8.5669Y-2.5669
X3.5827Y-4.8898
X3.6614Y-4.8898
X8.126Y-3.0
X8.2047Y-3.0
X6.7008Y-3.9921
X6.7795Y-3.9921
X8.4724Y-3.3465
X8.5512Y-3.3465
T6
X6.9882Y-2.8346
X6.9882Y-2.9134
X7.0866Y-2.8346
X7.0866Y-2.9134
T7
X8.6299Y-2.8819
X8.6299Y-2.9803
X8.6299Y-3.0591
X8.6299Y-3.1575
X7.8281Y-2.8386
X7.9265Y-2.8386
X8.0053Y-2.8386
X8.1037Y-2.8386
T8
X8.5535Y-4.0642
X8.6535Y-4.0642
X7.8035Y-4.0642
X7.9035Y-4.0642
X7.0535Y-4.8142
X7.1535Y-4.8142
X7.0535Y-4.0642
X7.1535Y-4.0642
X8.5535Y-4.8142
X8.6535Y-4.8142
X7.8035Y-4.8142
X7.9035Y-4.8142
X3.565Y-5.0335
X3.665Y-5.0335
X3.765Y-5.0335
X3.865Y-5.0335
X3.965Y-5.0335
X4.065Y-5.0335
X4.165Y-5.0335
X4.265Y-5.0335
X4.365Y-5.0335
X4.465Y-5.0335
X4.565Y-5.0335
X4.665Y-5.0335
X4.765Y-5.0335
X4.865Y-5.0335
X4.965Y-5.0335
X5.065Y-5.0335
X5.165Y-5.0335
X5.265Y-5.0335
X5.365Y-5.0335
X5.465Y-5.0335
T9
X8.4535Y-3.7642
X8.7035Y-3.6642
X7.7035Y-3.7642
X7.9535Y-3.6642
X6.9535Y-4.5142
X7.2035Y-4.4142
X6.9535Y-3.7642
X7.2035Y-3.6642
X8.4535Y-4.5142
X8.7035Y-4.4142
X7.7035Y-4.5142
X7.9535Y-4.4142
T10
X6.1142Y-2.748
X6.2992Y-2.6299
X6.2992Y-2.8661
T11
X8.7366Y-2.761
X8.7366Y-3.2783
X7.7072Y-2.7319
X8.2246Y-2.7319
T12
X6.8004Y-2.728
X7.2744Y-2.728
T0
M30
