%TF.GenerationSoftware,KiCad,Pcbnew,(5.1.7)-1*%
%TF.CreationDate,2021-03-26T00:16:30-04:00*%
%TF.ProjectId,Console,436f6e73-6f6c-4652-9e6b-696361645f70,rev?*%
%TF.SameCoordinates,Original*%
%TF.FileFunction,Soldermask,Bot*%
%TF.FilePolarity,Negative*%
%FSLAX46Y46*%
G04 Gerber Fmt 4.6, Leading zero omitted, Abs format (unit mm)*
G04 Created by KiCad (PCBNEW (5.1.7)-1) date 2021-03-26 00:16:30*
%MOMM*%
%LPD*%
G01*
G04 APERTURE LIST*
%ADD10R,1.500000X1.500000*%
%ADD11R,2.700000X2.700000*%
%ADD12O,1.750000X1.200000*%
%ADD13C,3.500000*%
%ADD14C,1.700000*%
%ADD15R,1.700000X1.700000*%
%ADD16O,1.200000X1.750000*%
%ADD17C,1.600000*%
%ADD18R,1.600000X1.600000*%
%ADD19R,1.600000X1.500000*%
%ADD20C,3.000000*%
%ADD21R,1.500000X1.600000*%
%ADD22C,2.600000*%
%ADD23R,2.600000X2.600000*%
%ADD24C,2.200000*%
%ADD25C,4.000000*%
%ADD26C,1.750000*%
%ADD27O,1.000000X1.000000*%
%ADD28R,1.000000X1.000000*%
%ADD29C,2.700000*%
%ADD30O,1.700000X1.700000*%
G04 APERTURE END LIST*
D10*
%TO.C,TP10*%
X126250000Y-118500000D03*
%TD*%
%TO.C,TP9*%
X116250000Y-118500000D03*
%TD*%
%TO.C,TP8*%
X119000000Y-118500000D03*
%TD*%
%TO.C,TP4*%
X126250000Y-114750000D03*
%TD*%
%TO.C,C29*%
G36*
G01*
X160800000Y-109025000D02*
X160800000Y-109975000D01*
G75*
G02*
X160550000Y-110225000I-250000J0D01*
G01*
X160050000Y-110225000D01*
G75*
G02*
X159800000Y-109975000I0J250000D01*
G01*
X159800000Y-109025000D01*
G75*
G02*
X160050000Y-108775000I250000J0D01*
G01*
X160550000Y-108775000D01*
G75*
G02*
X160800000Y-109025000I0J-250000D01*
G01*
G37*
G36*
G01*
X162700000Y-109025000D02*
X162700000Y-109975000D01*
G75*
G02*
X162450000Y-110225000I-250000J0D01*
G01*
X161950000Y-110225000D01*
G75*
G02*
X161700000Y-109975000I0J250000D01*
G01*
X161700000Y-109025000D01*
G75*
G02*
X161950000Y-108775000I250000J0D01*
G01*
X162450000Y-108775000D01*
G75*
G02*
X162700000Y-109025000I0J-250000D01*
G01*
G37*
%TD*%
%TO.C,C44*%
G36*
G01*
X160320000Y-107830000D02*
X160320000Y-108170000D01*
G75*
G02*
X160180000Y-108310000I-140000J0D01*
G01*
X159900000Y-108310000D01*
G75*
G02*
X159760000Y-108170000I0J140000D01*
G01*
X159760000Y-107830000D01*
G75*
G02*
X159900000Y-107690000I140000J0D01*
G01*
X160180000Y-107690000D01*
G75*
G02*
X160320000Y-107830000I0J-140000D01*
G01*
G37*
G36*
G01*
X161280000Y-107830000D02*
X161280000Y-108170000D01*
G75*
G02*
X161140000Y-108310000I-140000J0D01*
G01*
X160860000Y-108310000D01*
G75*
G02*
X160720000Y-108170000I0J140000D01*
G01*
X160720000Y-107830000D01*
G75*
G02*
X160860000Y-107690000I140000J0D01*
G01*
X161140000Y-107690000D01*
G75*
G02*
X161280000Y-107830000I0J-140000D01*
G01*
G37*
%TD*%
D11*
%TO.C,U6*%
X156800000Y-107000000D03*
G36*
G01*
X158175000Y-104687500D02*
X158175000Y-105387500D01*
G75*
G02*
X158112500Y-105450000I-62500J0D01*
G01*
X157987500Y-105450000D01*
G75*
G02*
X157925000Y-105387500I0J62500D01*
G01*
X157925000Y-104687500D01*
G75*
G02*
X157987500Y-104625000I62500J0D01*
G01*
X158112500Y-104625000D01*
G75*
G02*
X158175000Y-104687500I0J-62500D01*
G01*
G37*
G36*
G01*
X157675000Y-104687500D02*
X157675000Y-105387500D01*
G75*
G02*
X157612500Y-105450000I-62500J0D01*
G01*
X157487500Y-105450000D01*
G75*
G02*
X157425000Y-105387500I0J62500D01*
G01*
X157425000Y-104687500D01*
G75*
G02*
X157487500Y-104625000I62500J0D01*
G01*
X157612500Y-104625000D01*
G75*
G02*
X157675000Y-104687500I0J-62500D01*
G01*
G37*
G36*
G01*
X157175000Y-104687500D02*
X157175000Y-105387500D01*
G75*
G02*
X157112500Y-105450000I-62500J0D01*
G01*
X156987500Y-105450000D01*
G75*
G02*
X156925000Y-105387500I0J62500D01*
G01*
X156925000Y-104687500D01*
G75*
G02*
X156987500Y-104625000I62500J0D01*
G01*
X157112500Y-104625000D01*
G75*
G02*
X157175000Y-104687500I0J-62500D01*
G01*
G37*
G36*
G01*
X156675000Y-104687500D02*
X156675000Y-105387500D01*
G75*
G02*
X156612500Y-105450000I-62500J0D01*
G01*
X156487500Y-105450000D01*
G75*
G02*
X156425000Y-105387500I0J62500D01*
G01*
X156425000Y-104687500D01*
G75*
G02*
X156487500Y-104625000I62500J0D01*
G01*
X156612500Y-104625000D01*
G75*
G02*
X156675000Y-104687500I0J-62500D01*
G01*
G37*
G36*
G01*
X156175000Y-104687500D02*
X156175000Y-105387500D01*
G75*
G02*
X156112500Y-105450000I-62500J0D01*
G01*
X155987500Y-105450000D01*
G75*
G02*
X155925000Y-105387500I0J62500D01*
G01*
X155925000Y-104687500D01*
G75*
G02*
X155987500Y-104625000I62500J0D01*
G01*
X156112500Y-104625000D01*
G75*
G02*
X156175000Y-104687500I0J-62500D01*
G01*
G37*
G36*
G01*
X155675000Y-104687500D02*
X155675000Y-105387500D01*
G75*
G02*
X155612500Y-105450000I-62500J0D01*
G01*
X155487500Y-105450000D01*
G75*
G02*
X155425000Y-105387500I0J62500D01*
G01*
X155425000Y-104687500D01*
G75*
G02*
X155487500Y-104625000I62500J0D01*
G01*
X155612500Y-104625000D01*
G75*
G02*
X155675000Y-104687500I0J-62500D01*
G01*
G37*
G36*
G01*
X155250000Y-105687500D02*
X155250000Y-105812500D01*
G75*
G02*
X155187500Y-105875000I-62500J0D01*
G01*
X154487500Y-105875000D01*
G75*
G02*
X154425000Y-105812500I0J62500D01*
G01*
X154425000Y-105687500D01*
G75*
G02*
X154487500Y-105625000I62500J0D01*
G01*
X155187500Y-105625000D01*
G75*
G02*
X155250000Y-105687500I0J-62500D01*
G01*
G37*
G36*
G01*
X155250000Y-106187500D02*
X155250000Y-106312500D01*
G75*
G02*
X155187500Y-106375000I-62500J0D01*
G01*
X154487500Y-106375000D01*
G75*
G02*
X154425000Y-106312500I0J62500D01*
G01*
X154425000Y-106187500D01*
G75*
G02*
X154487500Y-106125000I62500J0D01*
G01*
X155187500Y-106125000D01*
G75*
G02*
X155250000Y-106187500I0J-62500D01*
G01*
G37*
G36*
G01*
X155250000Y-106687500D02*
X155250000Y-106812500D01*
G75*
G02*
X155187500Y-106875000I-62500J0D01*
G01*
X154487500Y-106875000D01*
G75*
G02*
X154425000Y-106812500I0J62500D01*
G01*
X154425000Y-106687500D01*
G75*
G02*
X154487500Y-106625000I62500J0D01*
G01*
X155187500Y-106625000D01*
G75*
G02*
X155250000Y-106687500I0J-62500D01*
G01*
G37*
G36*
G01*
X155250000Y-107187500D02*
X155250000Y-107312500D01*
G75*
G02*
X155187500Y-107375000I-62500J0D01*
G01*
X154487500Y-107375000D01*
G75*
G02*
X154425000Y-107312500I0J62500D01*
G01*
X154425000Y-107187500D01*
G75*
G02*
X154487500Y-107125000I62500J0D01*
G01*
X155187500Y-107125000D01*
G75*
G02*
X155250000Y-107187500I0J-62500D01*
G01*
G37*
G36*
G01*
X155250000Y-107687500D02*
X155250000Y-107812500D01*
G75*
G02*
X155187500Y-107875000I-62500J0D01*
G01*
X154487500Y-107875000D01*
G75*
G02*
X154425000Y-107812500I0J62500D01*
G01*
X154425000Y-107687500D01*
G75*
G02*
X154487500Y-107625000I62500J0D01*
G01*
X155187500Y-107625000D01*
G75*
G02*
X155250000Y-107687500I0J-62500D01*
G01*
G37*
G36*
G01*
X155250000Y-108187500D02*
X155250000Y-108312500D01*
G75*
G02*
X155187500Y-108375000I-62500J0D01*
G01*
X154487500Y-108375000D01*
G75*
G02*
X154425000Y-108312500I0J62500D01*
G01*
X154425000Y-108187500D01*
G75*
G02*
X154487500Y-108125000I62500J0D01*
G01*
X155187500Y-108125000D01*
G75*
G02*
X155250000Y-108187500I0J-62500D01*
G01*
G37*
G36*
G01*
X155675000Y-108612500D02*
X155675000Y-109312500D01*
G75*
G02*
X155612500Y-109375000I-62500J0D01*
G01*
X155487500Y-109375000D01*
G75*
G02*
X155425000Y-109312500I0J62500D01*
G01*
X155425000Y-108612500D01*
G75*
G02*
X155487500Y-108550000I62500J0D01*
G01*
X155612500Y-108550000D01*
G75*
G02*
X155675000Y-108612500I0J-62500D01*
G01*
G37*
G36*
G01*
X156175000Y-108612500D02*
X156175000Y-109312500D01*
G75*
G02*
X156112500Y-109375000I-62500J0D01*
G01*
X155987500Y-109375000D01*
G75*
G02*
X155925000Y-109312500I0J62500D01*
G01*
X155925000Y-108612500D01*
G75*
G02*
X155987500Y-108550000I62500J0D01*
G01*
X156112500Y-108550000D01*
G75*
G02*
X156175000Y-108612500I0J-62500D01*
G01*
G37*
G36*
G01*
X156675000Y-108612500D02*
X156675000Y-109312500D01*
G75*
G02*
X156612500Y-109375000I-62500J0D01*
G01*
X156487500Y-109375000D01*
G75*
G02*
X156425000Y-109312500I0J62500D01*
G01*
X156425000Y-108612500D01*
G75*
G02*
X156487500Y-108550000I62500J0D01*
G01*
X156612500Y-108550000D01*
G75*
G02*
X156675000Y-108612500I0J-62500D01*
G01*
G37*
G36*
G01*
X157175000Y-108612500D02*
X157175000Y-109312500D01*
G75*
G02*
X157112500Y-109375000I-62500J0D01*
G01*
X156987500Y-109375000D01*
G75*
G02*
X156925000Y-109312500I0J62500D01*
G01*
X156925000Y-108612500D01*
G75*
G02*
X156987500Y-108550000I62500J0D01*
G01*
X157112500Y-108550000D01*
G75*
G02*
X157175000Y-108612500I0J-62500D01*
G01*
G37*
G36*
G01*
X157675000Y-108612500D02*
X157675000Y-109312500D01*
G75*
G02*
X157612500Y-109375000I-62500J0D01*
G01*
X157487500Y-109375000D01*
G75*
G02*
X157425000Y-109312500I0J62500D01*
G01*
X157425000Y-108612500D01*
G75*
G02*
X157487500Y-108550000I62500J0D01*
G01*
X157612500Y-108550000D01*
G75*
G02*
X157675000Y-108612500I0J-62500D01*
G01*
G37*
G36*
G01*
X158175000Y-108612500D02*
X158175000Y-109312500D01*
G75*
G02*
X158112500Y-109375000I-62500J0D01*
G01*
X157987500Y-109375000D01*
G75*
G02*
X157925000Y-109312500I0J62500D01*
G01*
X157925000Y-108612500D01*
G75*
G02*
X157987500Y-108550000I62500J0D01*
G01*
X158112500Y-108550000D01*
G75*
G02*
X158175000Y-108612500I0J-62500D01*
G01*
G37*
G36*
G01*
X159175000Y-108187500D02*
X159175000Y-108312500D01*
G75*
G02*
X159112500Y-108375000I-62500J0D01*
G01*
X158412500Y-108375000D01*
G75*
G02*
X158350000Y-108312500I0J62500D01*
G01*
X158350000Y-108187500D01*
G75*
G02*
X158412500Y-108125000I62500J0D01*
G01*
X159112500Y-108125000D01*
G75*
G02*
X159175000Y-108187500I0J-62500D01*
G01*
G37*
G36*
G01*
X159175000Y-107687500D02*
X159175000Y-107812500D01*
G75*
G02*
X159112500Y-107875000I-62500J0D01*
G01*
X158412500Y-107875000D01*
G75*
G02*
X158350000Y-107812500I0J62500D01*
G01*
X158350000Y-107687500D01*
G75*
G02*
X158412500Y-107625000I62500J0D01*
G01*
X159112500Y-107625000D01*
G75*
G02*
X159175000Y-107687500I0J-62500D01*
G01*
G37*
G36*
G01*
X159175000Y-107187500D02*
X159175000Y-107312500D01*
G75*
G02*
X159112500Y-107375000I-62500J0D01*
G01*
X158412500Y-107375000D01*
G75*
G02*
X158350000Y-107312500I0J62500D01*
G01*
X158350000Y-107187500D01*
G75*
G02*
X158412500Y-107125000I62500J0D01*
G01*
X159112500Y-107125000D01*
G75*
G02*
X159175000Y-107187500I0J-62500D01*
G01*
G37*
G36*
G01*
X159175000Y-106687500D02*
X159175000Y-106812500D01*
G75*
G02*
X159112500Y-106875000I-62500J0D01*
G01*
X158412500Y-106875000D01*
G75*
G02*
X158350000Y-106812500I0J62500D01*
G01*
X158350000Y-106687500D01*
G75*
G02*
X158412500Y-106625000I62500J0D01*
G01*
X159112500Y-106625000D01*
G75*
G02*
X159175000Y-106687500I0J-62500D01*
G01*
G37*
G36*
G01*
X159175000Y-106187500D02*
X159175000Y-106312500D01*
G75*
G02*
X159112500Y-106375000I-62500J0D01*
G01*
X158412500Y-106375000D01*
G75*
G02*
X158350000Y-106312500I0J62500D01*
G01*
X158350000Y-106187500D01*
G75*
G02*
X158412500Y-106125000I62500J0D01*
G01*
X159112500Y-106125000D01*
G75*
G02*
X159175000Y-106187500I0J-62500D01*
G01*
G37*
G36*
G01*
X159175000Y-105687500D02*
X159175000Y-105812500D01*
G75*
G02*
X159112500Y-105875000I-62500J0D01*
G01*
X158412500Y-105875000D01*
G75*
G02*
X158350000Y-105812500I0J62500D01*
G01*
X158350000Y-105687500D01*
G75*
G02*
X158412500Y-105625000I62500J0D01*
G01*
X159112500Y-105625000D01*
G75*
G02*
X159175000Y-105687500I0J-62500D01*
G01*
G37*
%TD*%
D12*
%TO.C,J9*%
X71200000Y-120800000D03*
X71200000Y-118800000D03*
G36*
G01*
X70574999Y-116200000D02*
X71825001Y-116200000D01*
G75*
G02*
X72075000Y-116449999I0J-249999D01*
G01*
X72075000Y-117150001D01*
G75*
G02*
X71825001Y-117400000I-249999J0D01*
G01*
X70574999Y-117400000D01*
G75*
G02*
X70325000Y-117150001I0J249999D01*
G01*
X70325000Y-116449999D01*
G75*
G02*
X70574999Y-116200000I249999J0D01*
G01*
G37*
%TD*%
%TO.C,J2*%
X71200000Y-110500000D03*
X71200000Y-108500000D03*
G36*
G01*
X70574999Y-105900000D02*
X71825001Y-105900000D01*
G75*
G02*
X72075000Y-106149999I0J-249999D01*
G01*
X72075000Y-106850001D01*
G75*
G02*
X71825001Y-107100000I-249999J0D01*
G01*
X70574999Y-107100000D01*
G75*
G02*
X70325000Y-106850001I0J249999D01*
G01*
X70325000Y-106149999D01*
G75*
G02*
X70574999Y-105900000I249999J0D01*
G01*
G37*
%TD*%
%TO.C,J1*%
X71200000Y-100200000D03*
X71200000Y-98200000D03*
G36*
G01*
X70574999Y-95600000D02*
X71825001Y-95600000D01*
G75*
G02*
X72075000Y-95849999I0J-249999D01*
G01*
X72075000Y-96550001D01*
G75*
G02*
X71825001Y-96800000I-249999J0D01*
G01*
X70574999Y-96800000D01*
G75*
G02*
X70325000Y-96550001I0J249999D01*
G01*
X70325000Y-95849999D01*
G75*
G02*
X70574999Y-95600000I249999J0D01*
G01*
G37*
%TD*%
D13*
%TO.C,J3*%
X184770000Y-69290000D03*
X172730000Y-69290000D03*
D14*
X177500000Y-72000000D03*
X180000000Y-72000000D03*
X180000000Y-74000000D03*
D15*
X177500000Y-74000000D03*
%TD*%
D16*
%TO.C,J13*%
X81000000Y-92650000D03*
X83000000Y-92650000D03*
X85000000Y-92650000D03*
X87000000Y-92650000D03*
G36*
G01*
X89600000Y-92024999D02*
X89600000Y-93275001D01*
G75*
G02*
X89350001Y-93525000I-249999J0D01*
G01*
X88649999Y-93525000D01*
G75*
G02*
X88400000Y-93275001I0J249999D01*
G01*
X88400000Y-92024999D01*
G75*
G02*
X88649999Y-91775000I249999J0D01*
G01*
X89350001Y-91775000D01*
G75*
G02*
X89600000Y-92024999I0J-249999D01*
G01*
G37*
%TD*%
%TO.C,J12*%
X137000000Y-92650000D03*
X139000000Y-92650000D03*
X141000000Y-92650000D03*
X143000000Y-92650000D03*
G36*
G01*
X145600000Y-92024999D02*
X145600000Y-93275001D01*
G75*
G02*
X145350001Y-93525000I-249999J0D01*
G01*
X144649999Y-93525000D01*
G75*
G02*
X144400000Y-93275001I0J249999D01*
G01*
X144400000Y-92024999D01*
G75*
G02*
X144649999Y-91775000I249999J0D01*
G01*
X145350001Y-91775000D01*
G75*
G02*
X145600000Y-92024999I0J-249999D01*
G01*
G37*
%TD*%
%TO.C,J11*%
X118250000Y-92650000D03*
X120250000Y-92650000D03*
X122250000Y-92650000D03*
X124250000Y-92650000D03*
G36*
G01*
X126850000Y-92024999D02*
X126850000Y-93275001D01*
G75*
G02*
X126600001Y-93525000I-249999J0D01*
G01*
X125899999Y-93525000D01*
G75*
G02*
X125650000Y-93275001I0J249999D01*
G01*
X125650000Y-92024999D01*
G75*
G02*
X125899999Y-91775000I249999J0D01*
G01*
X126600001Y-91775000D01*
G75*
G02*
X126850000Y-92024999I0J-249999D01*
G01*
G37*
%TD*%
%TO.C,J10*%
X99750000Y-92650000D03*
X101750000Y-92650000D03*
X103750000Y-92650000D03*
X105750000Y-92650000D03*
G36*
G01*
X108350000Y-92024999D02*
X108350000Y-93275001D01*
G75*
G02*
X108100001Y-93525000I-249999J0D01*
G01*
X107399999Y-93525000D01*
G75*
G02*
X107150000Y-93275001I0J249999D01*
G01*
X107150000Y-92024999D01*
G75*
G02*
X107399999Y-91775000I249999J0D01*
G01*
X108100001Y-91775000D01*
G75*
G02*
X108350000Y-92024999I0J-249999D01*
G01*
G37*
%TD*%
D17*
%TO.C,C43*%
X91000000Y-124200000D03*
D18*
X93000000Y-124200000D03*
%TD*%
D17*
%TO.C,C31*%
X208400000Y-76200000D03*
D18*
X206400000Y-76200000D03*
%TD*%
D17*
%TO.C,C30*%
X217600000Y-65200000D03*
D18*
X215600000Y-65200000D03*
%TD*%
D17*
%TO.C,C25*%
X217200000Y-85000000D03*
D18*
X215200000Y-85000000D03*
%TD*%
D17*
%TO.C,C24*%
X172200000Y-101400000D03*
D18*
X170200000Y-101400000D03*
%TD*%
D17*
%TO.C,C21*%
X171700000Y-84100000D03*
D18*
X169700000Y-84100000D03*
%TD*%
D17*
%TO.C,J7*%
X198833930Y-72100000D03*
X201333930Y-72100000D03*
X203333930Y-72100000D03*
D19*
X205833930Y-72100000D03*
D20*
X195763930Y-69390000D03*
X208903930Y-69390000D03*
%TD*%
D17*
%TO.C,J4*%
X219200000Y-73200000D03*
X219200000Y-75700000D03*
X219200000Y-77700000D03*
D21*
X219200000Y-80200000D03*
D20*
X221910000Y-70130000D03*
X221910000Y-83270000D03*
%TD*%
D22*
%TO.C,J8*%
X155300000Y-69800000D03*
X160000000Y-66800000D03*
D23*
X160000000Y-72800000D03*
%TD*%
D24*
%TO.C,SW5*%
X202020000Y-112120000D03*
X195670000Y-114660000D03*
D25*
X199480000Y-117200000D03*
D14*
X194400000Y-117200000D03*
X204560000Y-117200000D03*
D26*
X198210000Y-122280000D03*
X200750000Y-122280000D03*
%TD*%
D27*
%TO.C,J6*%
X217480000Y-62350000D03*
X216210000Y-62350000D03*
X214940000Y-62350000D03*
X213670000Y-62350000D03*
D28*
X212400000Y-62350000D03*
%TD*%
D27*
%TO.C,J5*%
X172030000Y-98850000D03*
X170760000Y-98850000D03*
X169490000Y-98850000D03*
X168220000Y-98850000D03*
D28*
X166950000Y-98850000D03*
%TD*%
D29*
%TO.C,H8*%
X155000000Y-90000000D03*
%TD*%
%TO.C,H7*%
X229000000Y-90000000D03*
%TD*%
%TO.C,H6*%
X155000000Y-127000000D03*
%TD*%
%TO.C,H5*%
X229000000Y-62000000D03*
%TD*%
%TO.C,H4*%
X229000000Y-127000000D03*
%TD*%
%TO.C,H3*%
X190500000Y-62000000D03*
%TD*%
%TO.C,H2*%
X69000000Y-127000000D03*
%TD*%
%TO.C,H1*%
X69000000Y-90000000D03*
%TD*%
D30*
%TO.C,U10*%
X138810000Y-127850000D03*
X136270000Y-127850000D03*
X133730000Y-127850000D03*
X131190000Y-127850000D03*
X128650000Y-127850000D03*
X126110000Y-127850000D03*
X123570000Y-127850000D03*
X121030000Y-127850000D03*
X118490000Y-127850000D03*
X115950000Y-127850000D03*
X113410000Y-127850000D03*
X110870000Y-127850000D03*
X108330000Y-127850000D03*
X105790000Y-127850000D03*
X103250000Y-127850000D03*
X100710000Y-127850000D03*
X98170000Y-127850000D03*
X95630000Y-127850000D03*
X93090000Y-127850000D03*
D15*
X90550000Y-127850000D03*
%TD*%
D24*
%TO.C,SW6*%
X221070000Y-112120000D03*
X214720000Y-114660000D03*
D25*
X218530000Y-117200000D03*
D14*
X213450000Y-117200000D03*
X223610000Y-117200000D03*
D26*
X217260000Y-122280000D03*
X219800000Y-122280000D03*
%TD*%
D24*
%TO.C,SW4*%
X182970000Y-112120000D03*
X176620000Y-114660000D03*
D25*
X180430000Y-117200000D03*
D14*
X175350000Y-117200000D03*
X185510000Y-117200000D03*
D26*
X179160000Y-122280000D03*
X181700000Y-122280000D03*
%TD*%
D24*
%TO.C,SW3*%
X221070000Y-93070000D03*
X214720000Y-95610000D03*
D25*
X218530000Y-98150000D03*
D14*
X213450000Y-98150000D03*
X223610000Y-98150000D03*
D26*
X217260000Y-103230000D03*
X219800000Y-103230000D03*
%TD*%
D24*
%TO.C,SW2*%
X202020000Y-93070000D03*
X195670000Y-95610000D03*
D25*
X199480000Y-98150000D03*
D14*
X194400000Y-98150000D03*
X204560000Y-98150000D03*
D26*
X198210000Y-103230000D03*
X200750000Y-103230000D03*
%TD*%
D24*
%TO.C,SW1*%
X182970000Y-93070000D03*
X176620000Y-95610000D03*
D25*
X180430000Y-98150000D03*
D14*
X175350000Y-98150000D03*
X185510000Y-98150000D03*
D26*
X179160000Y-103230000D03*
X181700000Y-103230000D03*
%TD*%
M02*
