%TF.GenerationSoftware,KiCad,Pcbnew,(5.1.7)-1*%
%TF.CreationDate,2020-11-15T19:07:40-05:00*%
%TF.ProjectId,Console,436f6e73-6f6c-4652-9e6b-696361645f70,rev?*%
%TF.SameCoordinates,Original*%
%TF.FileFunction,Paste,Top*%
%TF.FilePolarity,Positive*%
%FSLAX46Y46*%
G04 Gerber Fmt 4.6, Leading zero omitted, Abs format (unit mm)*
G04 Created by KiCad (PCBNEW (5.1.7)-1) date 2020-11-15 19:07:40*
%MOMM*%
%LPD*%
G01*
G04 APERTURE LIST*
%ADD10R,1.500000X2.000000*%
%ADD11R,3.800000X2.000000*%
%ADD12R,0.600000X0.200000*%
%ADD13R,2.000000X0.900000*%
%ADD14R,0.900000X2.000000*%
%ADD15R,5.000000X5.000000*%
%ADD16R,1.000000X1.200000*%
%ADD17R,1.200000X1.000000*%
%ADD18R,1.600000X0.550000*%
%ADD19R,0.550000X1.600000*%
%ADD20R,0.480000X0.800000*%
%ADD21R,0.950000X1.150000*%
%ADD22R,0.400000X0.425000*%
%ADD23R,2.000000X1.500000*%
%ADD24R,0.800000X0.900000*%
%ADD25R,0.900000X0.800000*%
%ADD26R,1.000000X2.000000*%
%ADD27R,2.800000X2.000000*%
%ADD28R,0.500000X0.500000*%
%ADD29R,1.400000X1.000000*%
%ADD30R,1.400000X1.200000*%
G04 APERTURE END LIST*
%TO.C,R69*%
G36*
G01*
X136035000Y-102240000D02*
X136405000Y-102240000D01*
G75*
G02*
X136540000Y-102375000I0J-135000D01*
G01*
X136540000Y-102645000D01*
G75*
G02*
X136405000Y-102780000I-135000J0D01*
G01*
X136035000Y-102780000D01*
G75*
G02*
X135900000Y-102645000I0J135000D01*
G01*
X135900000Y-102375000D01*
G75*
G02*
X136035000Y-102240000I135000J0D01*
G01*
G37*
G36*
G01*
X136035000Y-101220000D02*
X136405000Y-101220000D01*
G75*
G02*
X136540000Y-101355000I0J-135000D01*
G01*
X136540000Y-101625000D01*
G75*
G02*
X136405000Y-101760000I-135000J0D01*
G01*
X136035000Y-101760000D01*
G75*
G02*
X135900000Y-101625000I0J135000D01*
G01*
X135900000Y-101355000D01*
G75*
G02*
X136035000Y-101220000I135000J0D01*
G01*
G37*
%TD*%
%TO.C,R68*%
G36*
G01*
X137315000Y-102240000D02*
X137685000Y-102240000D01*
G75*
G02*
X137820000Y-102375000I0J-135000D01*
G01*
X137820000Y-102645000D01*
G75*
G02*
X137685000Y-102780000I-135000J0D01*
G01*
X137315000Y-102780000D01*
G75*
G02*
X137180000Y-102645000I0J135000D01*
G01*
X137180000Y-102375000D01*
G75*
G02*
X137315000Y-102240000I135000J0D01*
G01*
G37*
G36*
G01*
X137315000Y-101220000D02*
X137685000Y-101220000D01*
G75*
G02*
X137820000Y-101355000I0J-135000D01*
G01*
X137820000Y-101625000D01*
G75*
G02*
X137685000Y-101760000I-135000J0D01*
G01*
X137315000Y-101760000D01*
G75*
G02*
X137180000Y-101625000I0J135000D01*
G01*
X137180000Y-101355000D01*
G75*
G02*
X137315000Y-101220000I135000J0D01*
G01*
G37*
%TD*%
%TO.C,R33*%
G36*
G01*
X162240000Y-129385000D02*
X162240000Y-129015000D01*
G75*
G02*
X162375000Y-128880000I135000J0D01*
G01*
X162645000Y-128880000D01*
G75*
G02*
X162780000Y-129015000I0J-135000D01*
G01*
X162780000Y-129385000D01*
G75*
G02*
X162645000Y-129520000I-135000J0D01*
G01*
X162375000Y-129520000D01*
G75*
G02*
X162240000Y-129385000I0J135000D01*
G01*
G37*
G36*
G01*
X161220000Y-129385000D02*
X161220000Y-129015000D01*
G75*
G02*
X161355000Y-128880000I135000J0D01*
G01*
X161625000Y-128880000D01*
G75*
G02*
X161760000Y-129015000I0J-135000D01*
G01*
X161760000Y-129385000D01*
G75*
G02*
X161625000Y-129520000I-135000J0D01*
G01*
X161355000Y-129520000D01*
G75*
G02*
X161220000Y-129385000I0J135000D01*
G01*
G37*
%TD*%
%TO.C,D17*%
G36*
G01*
X164450000Y-128943750D02*
X164450000Y-129456250D01*
G75*
G02*
X164231250Y-129675000I-218750J0D01*
G01*
X163793750Y-129675000D01*
G75*
G02*
X163575000Y-129456250I0J218750D01*
G01*
X163575000Y-128943750D01*
G75*
G02*
X163793750Y-128725000I218750J0D01*
G01*
X164231250Y-128725000D01*
G75*
G02*
X164450000Y-128943750I0J-218750D01*
G01*
G37*
G36*
G01*
X166025000Y-128943750D02*
X166025000Y-129456250D01*
G75*
G02*
X165806250Y-129675000I-218750J0D01*
G01*
X165368750Y-129675000D01*
G75*
G02*
X165150000Y-129456250I0J218750D01*
G01*
X165150000Y-128943750D01*
G75*
G02*
X165368750Y-128725000I218750J0D01*
G01*
X165806250Y-128725000D01*
G75*
G02*
X166025000Y-128943750I0J-218750D01*
G01*
G37*
%TD*%
%TO.C,R32*%
G36*
G01*
X191510000Y-78065000D02*
X191510000Y-78435000D01*
G75*
G02*
X191375000Y-78570000I-135000J0D01*
G01*
X191105000Y-78570000D01*
G75*
G02*
X190970000Y-78435000I0J135000D01*
G01*
X190970000Y-78065000D01*
G75*
G02*
X191105000Y-77930000I135000J0D01*
G01*
X191375000Y-77930000D01*
G75*
G02*
X191510000Y-78065000I0J-135000D01*
G01*
G37*
G36*
G01*
X192530000Y-78065000D02*
X192530000Y-78435000D01*
G75*
G02*
X192395000Y-78570000I-135000J0D01*
G01*
X192125000Y-78570000D01*
G75*
G02*
X191990000Y-78435000I0J135000D01*
G01*
X191990000Y-78065000D01*
G75*
G02*
X192125000Y-77930000I135000J0D01*
G01*
X192395000Y-77930000D01*
G75*
G02*
X192530000Y-78065000I0J-135000D01*
G01*
G37*
%TD*%
%TO.C,U4*%
G36*
G01*
X192755000Y-75500000D02*
X193055000Y-75500000D01*
G75*
G02*
X193205000Y-75650000I0J-150000D01*
G01*
X193205000Y-77300000D01*
G75*
G02*
X193055000Y-77450000I-150000J0D01*
G01*
X192755000Y-77450000D01*
G75*
G02*
X192605000Y-77300000I0J150000D01*
G01*
X192605000Y-75650000D01*
G75*
G02*
X192755000Y-75500000I150000J0D01*
G01*
G37*
G36*
G01*
X191485000Y-75500000D02*
X191785000Y-75500000D01*
G75*
G02*
X191935000Y-75650000I0J-150000D01*
G01*
X191935000Y-77300000D01*
G75*
G02*
X191785000Y-77450000I-150000J0D01*
G01*
X191485000Y-77450000D01*
G75*
G02*
X191335000Y-77300000I0J150000D01*
G01*
X191335000Y-75650000D01*
G75*
G02*
X191485000Y-75500000I150000J0D01*
G01*
G37*
G36*
G01*
X190215000Y-75500000D02*
X190515000Y-75500000D01*
G75*
G02*
X190665000Y-75650000I0J-150000D01*
G01*
X190665000Y-77300000D01*
G75*
G02*
X190515000Y-77450000I-150000J0D01*
G01*
X190215000Y-77450000D01*
G75*
G02*
X190065000Y-77300000I0J150000D01*
G01*
X190065000Y-75650000D01*
G75*
G02*
X190215000Y-75500000I150000J0D01*
G01*
G37*
G36*
G01*
X188945000Y-75500000D02*
X189245000Y-75500000D01*
G75*
G02*
X189395000Y-75650000I0J-150000D01*
G01*
X189395000Y-77300000D01*
G75*
G02*
X189245000Y-77450000I-150000J0D01*
G01*
X188945000Y-77450000D01*
G75*
G02*
X188795000Y-77300000I0J150000D01*
G01*
X188795000Y-75650000D01*
G75*
G02*
X188945000Y-75500000I150000J0D01*
G01*
G37*
G36*
G01*
X188945000Y-70550000D02*
X189245000Y-70550000D01*
G75*
G02*
X189395000Y-70700000I0J-150000D01*
G01*
X189395000Y-72350000D01*
G75*
G02*
X189245000Y-72500000I-150000J0D01*
G01*
X188945000Y-72500000D01*
G75*
G02*
X188795000Y-72350000I0J150000D01*
G01*
X188795000Y-70700000D01*
G75*
G02*
X188945000Y-70550000I150000J0D01*
G01*
G37*
G36*
G01*
X190215000Y-70550000D02*
X190515000Y-70550000D01*
G75*
G02*
X190665000Y-70700000I0J-150000D01*
G01*
X190665000Y-72350000D01*
G75*
G02*
X190515000Y-72500000I-150000J0D01*
G01*
X190215000Y-72500000D01*
G75*
G02*
X190065000Y-72350000I0J150000D01*
G01*
X190065000Y-70700000D01*
G75*
G02*
X190215000Y-70550000I150000J0D01*
G01*
G37*
G36*
G01*
X191485000Y-70550000D02*
X191785000Y-70550000D01*
G75*
G02*
X191935000Y-70700000I0J-150000D01*
G01*
X191935000Y-72350000D01*
G75*
G02*
X191785000Y-72500000I-150000J0D01*
G01*
X191485000Y-72500000D01*
G75*
G02*
X191335000Y-72350000I0J150000D01*
G01*
X191335000Y-70700000D01*
G75*
G02*
X191485000Y-70550000I150000J0D01*
G01*
G37*
G36*
G01*
X192755000Y-70550000D02*
X193055000Y-70550000D01*
G75*
G02*
X193205000Y-70700000I0J-150000D01*
G01*
X193205000Y-72350000D01*
G75*
G02*
X193055000Y-72500000I-150000J0D01*
G01*
X192755000Y-72500000D01*
G75*
G02*
X192605000Y-72350000I0J150000D01*
G01*
X192605000Y-70700000D01*
G75*
G02*
X192755000Y-70550000I150000J0D01*
G01*
G37*
%TD*%
%TO.C,R14*%
G36*
G01*
X190435000Y-78500000D02*
X190065000Y-78500000D01*
G75*
G02*
X189930000Y-78365000I0J135000D01*
G01*
X189930000Y-78095000D01*
G75*
G02*
X190065000Y-77960000I135000J0D01*
G01*
X190435000Y-77960000D01*
G75*
G02*
X190570000Y-78095000I0J-135000D01*
G01*
X190570000Y-78365000D01*
G75*
G02*
X190435000Y-78500000I-135000J0D01*
G01*
G37*
G36*
G01*
X190435000Y-79520000D02*
X190065000Y-79520000D01*
G75*
G02*
X189930000Y-79385000I0J135000D01*
G01*
X189930000Y-79115000D01*
G75*
G02*
X190065000Y-78980000I135000J0D01*
G01*
X190435000Y-78980000D01*
G75*
G02*
X190570000Y-79115000I0J-135000D01*
G01*
X190570000Y-79385000D01*
G75*
G02*
X190435000Y-79520000I-135000J0D01*
G01*
G37*
%TD*%
%TO.C,R13*%
G36*
G01*
X188815000Y-78990000D02*
X189185000Y-78990000D01*
G75*
G02*
X189320000Y-79125000I0J-135000D01*
G01*
X189320000Y-79395000D01*
G75*
G02*
X189185000Y-79530000I-135000J0D01*
G01*
X188815000Y-79530000D01*
G75*
G02*
X188680000Y-79395000I0J135000D01*
G01*
X188680000Y-79125000D01*
G75*
G02*
X188815000Y-78990000I135000J0D01*
G01*
G37*
G36*
G01*
X188815000Y-77970000D02*
X189185000Y-77970000D01*
G75*
G02*
X189320000Y-78105000I0J-135000D01*
G01*
X189320000Y-78375000D01*
G75*
G02*
X189185000Y-78510000I-135000J0D01*
G01*
X188815000Y-78510000D01*
G75*
G02*
X188680000Y-78375000I0J135000D01*
G01*
X188680000Y-78105000D01*
G75*
G02*
X188815000Y-77970000I135000J0D01*
G01*
G37*
%TD*%
%TO.C,R12*%
G36*
G01*
X187815000Y-78980000D02*
X188185000Y-78980000D01*
G75*
G02*
X188320000Y-79115000I0J-135000D01*
G01*
X188320000Y-79385000D01*
G75*
G02*
X188185000Y-79520000I-135000J0D01*
G01*
X187815000Y-79520000D01*
G75*
G02*
X187680000Y-79385000I0J135000D01*
G01*
X187680000Y-79115000D01*
G75*
G02*
X187815000Y-78980000I135000J0D01*
G01*
G37*
G36*
G01*
X187815000Y-77960000D02*
X188185000Y-77960000D01*
G75*
G02*
X188320000Y-78095000I0J-135000D01*
G01*
X188320000Y-78365000D01*
G75*
G02*
X188185000Y-78500000I-135000J0D01*
G01*
X187815000Y-78500000D01*
G75*
G02*
X187680000Y-78365000I0J135000D01*
G01*
X187680000Y-78095000D01*
G75*
G02*
X187815000Y-77960000I135000J0D01*
G01*
G37*
%TD*%
%TO.C,C23*%
G36*
G01*
X196175000Y-78250000D02*
X196175000Y-78750000D01*
G75*
G02*
X195950000Y-78975000I-225000J0D01*
G01*
X195500000Y-78975000D01*
G75*
G02*
X195275000Y-78750000I0J225000D01*
G01*
X195275000Y-78250000D01*
G75*
G02*
X195500000Y-78025000I225000J0D01*
G01*
X195950000Y-78025000D01*
G75*
G02*
X196175000Y-78250000I0J-225000D01*
G01*
G37*
G36*
G01*
X197725000Y-78250000D02*
X197725000Y-78750000D01*
G75*
G02*
X197500000Y-78975000I-225000J0D01*
G01*
X197050000Y-78975000D01*
G75*
G02*
X196825000Y-78750000I0J225000D01*
G01*
X196825000Y-78250000D01*
G75*
G02*
X197050000Y-78025000I225000J0D01*
G01*
X197500000Y-78025000D01*
G75*
G02*
X197725000Y-78250000I0J-225000D01*
G01*
G37*
%TD*%
%TO.C,C20*%
G36*
G01*
X195175000Y-76250000D02*
X195175000Y-76750000D01*
G75*
G02*
X194950000Y-76975000I-225000J0D01*
G01*
X194500000Y-76975000D01*
G75*
G02*
X194275000Y-76750000I0J225000D01*
G01*
X194275000Y-76250000D01*
G75*
G02*
X194500000Y-76025000I225000J0D01*
G01*
X194950000Y-76025000D01*
G75*
G02*
X195175000Y-76250000I0J-225000D01*
G01*
G37*
G36*
G01*
X196725000Y-76250000D02*
X196725000Y-76750000D01*
G75*
G02*
X196500000Y-76975000I-225000J0D01*
G01*
X196050000Y-76975000D01*
G75*
G02*
X195825000Y-76750000I0J225000D01*
G01*
X195825000Y-76250000D01*
G75*
G02*
X196050000Y-76025000I225000J0D01*
G01*
X196500000Y-76025000D01*
G75*
G02*
X196725000Y-76250000I0J-225000D01*
G01*
G37*
%TD*%
D10*
%TO.C,U8*%
X163400000Y-79000000D03*
X158800000Y-79000000D03*
X161100000Y-79000000D03*
D11*
X161100000Y-85300000D03*
%TD*%
%TO.C,C28*%
G36*
G01*
X150850001Y-104300000D02*
X149549999Y-104300000D01*
G75*
G02*
X149300000Y-104050001I0J249999D01*
G01*
X149300000Y-103399999D01*
G75*
G02*
X149549999Y-103150000I249999J0D01*
G01*
X150850001Y-103150000D01*
G75*
G02*
X151100000Y-103399999I0J-249999D01*
G01*
X151100000Y-104050001D01*
G75*
G02*
X150850001Y-104300000I-249999J0D01*
G01*
G37*
G36*
G01*
X150850001Y-107250000D02*
X149549999Y-107250000D01*
G75*
G02*
X149300000Y-107000001I0J249999D01*
G01*
X149300000Y-106349999D01*
G75*
G02*
X149549999Y-106100000I249999J0D01*
G01*
X150850001Y-106100000D01*
G75*
G02*
X151100000Y-106349999I0J-249999D01*
G01*
X151100000Y-107000001D01*
G75*
G02*
X150850001Y-107250000I-249999J0D01*
G01*
G37*
%TD*%
%TO.C,R26*%
G36*
G01*
X167640000Y-92185000D02*
X167640000Y-91815000D01*
G75*
G02*
X167775000Y-91680000I135000J0D01*
G01*
X168045000Y-91680000D01*
G75*
G02*
X168180000Y-91815000I0J-135000D01*
G01*
X168180000Y-92185000D01*
G75*
G02*
X168045000Y-92320000I-135000J0D01*
G01*
X167775000Y-92320000D01*
G75*
G02*
X167640000Y-92185000I0J135000D01*
G01*
G37*
G36*
G01*
X166620000Y-92185000D02*
X166620000Y-91815000D01*
G75*
G02*
X166755000Y-91680000I135000J0D01*
G01*
X167025000Y-91680000D01*
G75*
G02*
X167160000Y-91815000I0J-135000D01*
G01*
X167160000Y-92185000D01*
G75*
G02*
X167025000Y-92320000I-135000J0D01*
G01*
X166755000Y-92320000D01*
G75*
G02*
X166620000Y-92185000I0J135000D01*
G01*
G37*
%TD*%
%TO.C,R25*%
G36*
G01*
X163985000Y-88160000D02*
X163615000Y-88160000D01*
G75*
G02*
X163480000Y-88025000I0J135000D01*
G01*
X163480000Y-87755000D01*
G75*
G02*
X163615000Y-87620000I135000J0D01*
G01*
X163985000Y-87620000D01*
G75*
G02*
X164120000Y-87755000I0J-135000D01*
G01*
X164120000Y-88025000D01*
G75*
G02*
X163985000Y-88160000I-135000J0D01*
G01*
G37*
G36*
G01*
X163985000Y-89180000D02*
X163615000Y-89180000D01*
G75*
G02*
X163480000Y-89045000I0J135000D01*
G01*
X163480000Y-88775000D01*
G75*
G02*
X163615000Y-88640000I135000J0D01*
G01*
X163985000Y-88640000D01*
G75*
G02*
X164120000Y-88775000I0J-135000D01*
G01*
X164120000Y-89045000D01*
G75*
G02*
X163985000Y-89180000I-135000J0D01*
G01*
G37*
%TD*%
%TO.C,R24*%
G36*
G01*
X162185000Y-88070000D02*
X161815000Y-88070000D01*
G75*
G02*
X161680000Y-87935000I0J135000D01*
G01*
X161680000Y-87665000D01*
G75*
G02*
X161815000Y-87530000I135000J0D01*
G01*
X162185000Y-87530000D01*
G75*
G02*
X162320000Y-87665000I0J-135000D01*
G01*
X162320000Y-87935000D01*
G75*
G02*
X162185000Y-88070000I-135000J0D01*
G01*
G37*
G36*
G01*
X162185000Y-89090000D02*
X161815000Y-89090000D01*
G75*
G02*
X161680000Y-88955000I0J135000D01*
G01*
X161680000Y-88685000D01*
G75*
G02*
X161815000Y-88550000I135000J0D01*
G01*
X162185000Y-88550000D01*
G75*
G02*
X162320000Y-88685000I0J-135000D01*
G01*
X162320000Y-88955000D01*
G75*
G02*
X162185000Y-89090000I-135000J0D01*
G01*
G37*
%TD*%
%TO.C,D16*%
G36*
G01*
X165343750Y-91350000D02*
X165856250Y-91350000D01*
G75*
G02*
X166075000Y-91568750I0J-218750D01*
G01*
X166075000Y-92006250D01*
G75*
G02*
X165856250Y-92225000I-218750J0D01*
G01*
X165343750Y-92225000D01*
G75*
G02*
X165125000Y-92006250I0J218750D01*
G01*
X165125000Y-91568750D01*
G75*
G02*
X165343750Y-91350000I218750J0D01*
G01*
G37*
G36*
G01*
X165343750Y-89775000D02*
X165856250Y-89775000D01*
G75*
G02*
X166075000Y-89993750I0J-218750D01*
G01*
X166075000Y-90431250D01*
G75*
G02*
X165856250Y-90650000I-218750J0D01*
G01*
X165343750Y-90650000D01*
G75*
G02*
X165125000Y-90431250I0J218750D01*
G01*
X165125000Y-89993750D01*
G75*
G02*
X165343750Y-89775000I218750J0D01*
G01*
G37*
%TD*%
%TO.C,D15*%
G36*
G01*
X164056250Y-90650000D02*
X163543750Y-90650000D01*
G75*
G02*
X163325000Y-90431250I0J218750D01*
G01*
X163325000Y-89993750D01*
G75*
G02*
X163543750Y-89775000I218750J0D01*
G01*
X164056250Y-89775000D01*
G75*
G02*
X164275000Y-89993750I0J-218750D01*
G01*
X164275000Y-90431250D01*
G75*
G02*
X164056250Y-90650000I-218750J0D01*
G01*
G37*
G36*
G01*
X164056250Y-92225000D02*
X163543750Y-92225000D01*
G75*
G02*
X163325000Y-92006250I0J218750D01*
G01*
X163325000Y-91568750D01*
G75*
G02*
X163543750Y-91350000I218750J0D01*
G01*
X164056250Y-91350000D01*
G75*
G02*
X164275000Y-91568750I0J-218750D01*
G01*
X164275000Y-92006250D01*
G75*
G02*
X164056250Y-92225000I-218750J0D01*
G01*
G37*
%TD*%
%TO.C,D13*%
G36*
G01*
X162256250Y-90650000D02*
X161743750Y-90650000D01*
G75*
G02*
X161525000Y-90431250I0J218750D01*
G01*
X161525000Y-89993750D01*
G75*
G02*
X161743750Y-89775000I218750J0D01*
G01*
X162256250Y-89775000D01*
G75*
G02*
X162475000Y-89993750I0J-218750D01*
G01*
X162475000Y-90431250D01*
G75*
G02*
X162256250Y-90650000I-218750J0D01*
G01*
G37*
G36*
G01*
X162256250Y-92225000D02*
X161743750Y-92225000D01*
G75*
G02*
X161525000Y-92006250I0J218750D01*
G01*
X161525000Y-91568750D01*
G75*
G02*
X161743750Y-91350000I218750J0D01*
G01*
X162256250Y-91350000D01*
G75*
G02*
X162475000Y-91568750I0J-218750D01*
G01*
X162475000Y-92006250D01*
G75*
G02*
X162256250Y-92225000I-218750J0D01*
G01*
G37*
%TD*%
%TO.C,R47*%
G36*
G01*
X122740000Y-92185000D02*
X122740000Y-91815000D01*
G75*
G02*
X122875000Y-91680000I135000J0D01*
G01*
X123145000Y-91680000D01*
G75*
G02*
X123280000Y-91815000I0J-135000D01*
G01*
X123280000Y-92185000D01*
G75*
G02*
X123145000Y-92320000I-135000J0D01*
G01*
X122875000Y-92320000D01*
G75*
G02*
X122740000Y-92185000I0J135000D01*
G01*
G37*
G36*
G01*
X121720000Y-92185000D02*
X121720000Y-91815000D01*
G75*
G02*
X121855000Y-91680000I135000J0D01*
G01*
X122125000Y-91680000D01*
G75*
G02*
X122260000Y-91815000I0J-135000D01*
G01*
X122260000Y-92185000D01*
G75*
G02*
X122125000Y-92320000I-135000J0D01*
G01*
X121855000Y-92320000D01*
G75*
G02*
X121720000Y-92185000I0J135000D01*
G01*
G37*
%TD*%
%TO.C,U5*%
G36*
G01*
X191705000Y-82000000D02*
X191405000Y-82000000D01*
G75*
G02*
X191255000Y-81850000I0J150000D01*
G01*
X191255000Y-80200000D01*
G75*
G02*
X191405000Y-80050000I150000J0D01*
G01*
X191705000Y-80050000D01*
G75*
G02*
X191855000Y-80200000I0J-150000D01*
G01*
X191855000Y-81850000D01*
G75*
G02*
X191705000Y-82000000I-150000J0D01*
G01*
G37*
G36*
G01*
X192975000Y-82000000D02*
X192675000Y-82000000D01*
G75*
G02*
X192525000Y-81850000I0J150000D01*
G01*
X192525000Y-80200000D01*
G75*
G02*
X192675000Y-80050000I150000J0D01*
G01*
X192975000Y-80050000D01*
G75*
G02*
X193125000Y-80200000I0J-150000D01*
G01*
X193125000Y-81850000D01*
G75*
G02*
X192975000Y-82000000I-150000J0D01*
G01*
G37*
G36*
G01*
X194245000Y-82000000D02*
X193945000Y-82000000D01*
G75*
G02*
X193795000Y-81850000I0J150000D01*
G01*
X193795000Y-80200000D01*
G75*
G02*
X193945000Y-80050000I150000J0D01*
G01*
X194245000Y-80050000D01*
G75*
G02*
X194395000Y-80200000I0J-150000D01*
G01*
X194395000Y-81850000D01*
G75*
G02*
X194245000Y-82000000I-150000J0D01*
G01*
G37*
G36*
G01*
X195515000Y-82000000D02*
X195215000Y-82000000D01*
G75*
G02*
X195065000Y-81850000I0J150000D01*
G01*
X195065000Y-80200000D01*
G75*
G02*
X195215000Y-80050000I150000J0D01*
G01*
X195515000Y-80050000D01*
G75*
G02*
X195665000Y-80200000I0J-150000D01*
G01*
X195665000Y-81850000D01*
G75*
G02*
X195515000Y-82000000I-150000J0D01*
G01*
G37*
G36*
G01*
X196785000Y-82000000D02*
X196485000Y-82000000D01*
G75*
G02*
X196335000Y-81850000I0J150000D01*
G01*
X196335000Y-80200000D01*
G75*
G02*
X196485000Y-80050000I150000J0D01*
G01*
X196785000Y-80050000D01*
G75*
G02*
X196935000Y-80200000I0J-150000D01*
G01*
X196935000Y-81850000D01*
G75*
G02*
X196785000Y-82000000I-150000J0D01*
G01*
G37*
G36*
G01*
X198055000Y-82000000D02*
X197755000Y-82000000D01*
G75*
G02*
X197605000Y-81850000I0J150000D01*
G01*
X197605000Y-80200000D01*
G75*
G02*
X197755000Y-80050000I150000J0D01*
G01*
X198055000Y-80050000D01*
G75*
G02*
X198205000Y-80200000I0J-150000D01*
G01*
X198205000Y-81850000D01*
G75*
G02*
X198055000Y-82000000I-150000J0D01*
G01*
G37*
G36*
G01*
X199325000Y-82000000D02*
X199025000Y-82000000D01*
G75*
G02*
X198875000Y-81850000I0J150000D01*
G01*
X198875000Y-80200000D01*
G75*
G02*
X199025000Y-80050000I150000J0D01*
G01*
X199325000Y-80050000D01*
G75*
G02*
X199475000Y-80200000I0J-150000D01*
G01*
X199475000Y-81850000D01*
G75*
G02*
X199325000Y-82000000I-150000J0D01*
G01*
G37*
G36*
G01*
X200595000Y-82000000D02*
X200295000Y-82000000D01*
G75*
G02*
X200145000Y-81850000I0J150000D01*
G01*
X200145000Y-80200000D01*
G75*
G02*
X200295000Y-80050000I150000J0D01*
G01*
X200595000Y-80050000D01*
G75*
G02*
X200745000Y-80200000I0J-150000D01*
G01*
X200745000Y-81850000D01*
G75*
G02*
X200595000Y-82000000I-150000J0D01*
G01*
G37*
G36*
G01*
X200595000Y-86950000D02*
X200295000Y-86950000D01*
G75*
G02*
X200145000Y-86800000I0J150000D01*
G01*
X200145000Y-85150000D01*
G75*
G02*
X200295000Y-85000000I150000J0D01*
G01*
X200595000Y-85000000D01*
G75*
G02*
X200745000Y-85150000I0J-150000D01*
G01*
X200745000Y-86800000D01*
G75*
G02*
X200595000Y-86950000I-150000J0D01*
G01*
G37*
G36*
G01*
X199325000Y-86950000D02*
X199025000Y-86950000D01*
G75*
G02*
X198875000Y-86800000I0J150000D01*
G01*
X198875000Y-85150000D01*
G75*
G02*
X199025000Y-85000000I150000J0D01*
G01*
X199325000Y-85000000D01*
G75*
G02*
X199475000Y-85150000I0J-150000D01*
G01*
X199475000Y-86800000D01*
G75*
G02*
X199325000Y-86950000I-150000J0D01*
G01*
G37*
G36*
G01*
X198055000Y-86950000D02*
X197755000Y-86950000D01*
G75*
G02*
X197605000Y-86800000I0J150000D01*
G01*
X197605000Y-85150000D01*
G75*
G02*
X197755000Y-85000000I150000J0D01*
G01*
X198055000Y-85000000D01*
G75*
G02*
X198205000Y-85150000I0J-150000D01*
G01*
X198205000Y-86800000D01*
G75*
G02*
X198055000Y-86950000I-150000J0D01*
G01*
G37*
G36*
G01*
X196785000Y-86950000D02*
X196485000Y-86950000D01*
G75*
G02*
X196335000Y-86800000I0J150000D01*
G01*
X196335000Y-85150000D01*
G75*
G02*
X196485000Y-85000000I150000J0D01*
G01*
X196785000Y-85000000D01*
G75*
G02*
X196935000Y-85150000I0J-150000D01*
G01*
X196935000Y-86800000D01*
G75*
G02*
X196785000Y-86950000I-150000J0D01*
G01*
G37*
G36*
G01*
X195515000Y-86950000D02*
X195215000Y-86950000D01*
G75*
G02*
X195065000Y-86800000I0J150000D01*
G01*
X195065000Y-85150000D01*
G75*
G02*
X195215000Y-85000000I150000J0D01*
G01*
X195515000Y-85000000D01*
G75*
G02*
X195665000Y-85150000I0J-150000D01*
G01*
X195665000Y-86800000D01*
G75*
G02*
X195515000Y-86950000I-150000J0D01*
G01*
G37*
G36*
G01*
X194245000Y-86950000D02*
X193945000Y-86950000D01*
G75*
G02*
X193795000Y-86800000I0J150000D01*
G01*
X193795000Y-85150000D01*
G75*
G02*
X193945000Y-85000000I150000J0D01*
G01*
X194245000Y-85000000D01*
G75*
G02*
X194395000Y-85150000I0J-150000D01*
G01*
X194395000Y-86800000D01*
G75*
G02*
X194245000Y-86950000I-150000J0D01*
G01*
G37*
G36*
G01*
X192975000Y-86950000D02*
X192675000Y-86950000D01*
G75*
G02*
X192525000Y-86800000I0J150000D01*
G01*
X192525000Y-85150000D01*
G75*
G02*
X192675000Y-85000000I150000J0D01*
G01*
X192975000Y-85000000D01*
G75*
G02*
X193125000Y-85150000I0J-150000D01*
G01*
X193125000Y-86800000D01*
G75*
G02*
X192975000Y-86950000I-150000J0D01*
G01*
G37*
G36*
G01*
X191705000Y-86950000D02*
X191405000Y-86950000D01*
G75*
G02*
X191255000Y-86800000I0J150000D01*
G01*
X191255000Y-85150000D01*
G75*
G02*
X191405000Y-85000000I150000J0D01*
G01*
X191705000Y-85000000D01*
G75*
G02*
X191855000Y-85150000I0J-150000D01*
G01*
X191855000Y-86800000D01*
G75*
G02*
X191705000Y-86950000I-150000J0D01*
G01*
G37*
%TD*%
D12*
%TO.C,D9*%
X184525000Y-88800000D03*
X184525000Y-87900000D03*
X184525000Y-87100000D03*
X184525000Y-86200000D03*
X185475000Y-85800000D03*
X185475000Y-86700000D03*
X185475000Y-87500000D03*
X185475000Y-88300000D03*
X185475000Y-89200000D03*
%TD*%
%TO.C,C5*%
G36*
G01*
X171650000Y-117875000D02*
X171150000Y-117875000D01*
G75*
G02*
X170925000Y-117650000I0J225000D01*
G01*
X170925000Y-117200000D01*
G75*
G02*
X171150000Y-116975000I225000J0D01*
G01*
X171650000Y-116975000D01*
G75*
G02*
X171875000Y-117200000I0J-225000D01*
G01*
X171875000Y-117650000D01*
G75*
G02*
X171650000Y-117875000I-225000J0D01*
G01*
G37*
G36*
G01*
X171650000Y-119425000D02*
X171150000Y-119425000D01*
G75*
G02*
X170925000Y-119200000I0J225000D01*
G01*
X170925000Y-118750000D01*
G75*
G02*
X171150000Y-118525000I225000J0D01*
G01*
X171650000Y-118525000D01*
G75*
G02*
X171875000Y-118750000I0J-225000D01*
G01*
X171875000Y-119200000D01*
G75*
G02*
X171650000Y-119425000I-225000J0D01*
G01*
G37*
%TD*%
D13*
%TO.C,U9*%
X133800000Y-103045000D03*
X133800000Y-104315000D03*
X133800000Y-105585000D03*
X133800000Y-106855000D03*
X133800000Y-108125000D03*
X133800000Y-109395000D03*
X133800000Y-110665000D03*
X133800000Y-111935000D03*
X133800000Y-113205000D03*
X133800000Y-114475000D03*
X133800000Y-115745000D03*
X133800000Y-117015000D03*
X133800000Y-118285000D03*
X133800000Y-119555000D03*
D14*
X131015000Y-120555000D03*
X129745000Y-120555000D03*
X128475000Y-120555000D03*
X127205000Y-120555000D03*
X125935000Y-120555000D03*
X124665000Y-120555000D03*
X123395000Y-120555000D03*
X122125000Y-120555000D03*
X120855000Y-120555000D03*
X119585000Y-120555000D03*
D13*
X116800000Y-119555000D03*
X116800000Y-118285000D03*
X116800000Y-117015000D03*
X116800000Y-115745000D03*
X116800000Y-114475000D03*
X116800000Y-113205000D03*
X116800000Y-111935000D03*
X116800000Y-110665000D03*
X116800000Y-109395000D03*
X116800000Y-108125000D03*
X116800000Y-106855000D03*
X116800000Y-105585000D03*
X116800000Y-104315000D03*
X116800000Y-103045000D03*
D15*
X124300000Y-110545000D03*
%TD*%
%TO.C,R2*%
G36*
G01*
X108815000Y-101490000D02*
X109185000Y-101490000D01*
G75*
G02*
X109320000Y-101625000I0J-135000D01*
G01*
X109320000Y-101895000D01*
G75*
G02*
X109185000Y-102030000I-135000J0D01*
G01*
X108815000Y-102030000D01*
G75*
G02*
X108680000Y-101895000I0J135000D01*
G01*
X108680000Y-101625000D01*
G75*
G02*
X108815000Y-101490000I135000J0D01*
G01*
G37*
G36*
G01*
X108815000Y-100470000D02*
X109185000Y-100470000D01*
G75*
G02*
X109320000Y-100605000I0J-135000D01*
G01*
X109320000Y-100875000D01*
G75*
G02*
X109185000Y-101010000I-135000J0D01*
G01*
X108815000Y-101010000D01*
G75*
G02*
X108680000Y-100875000I0J135000D01*
G01*
X108680000Y-100605000D01*
G75*
G02*
X108815000Y-100470000I135000J0D01*
G01*
G37*
%TD*%
D16*
%TO.C,Y2*%
X180850000Y-90350000D03*
X179550000Y-90350000D03*
X179550000Y-88650000D03*
X180850000Y-88650000D03*
%TD*%
D17*
%TO.C,Y1*%
X97214999Y-106214999D03*
X97214999Y-104914999D03*
X98914999Y-104914999D03*
X98914999Y-106214999D03*
%TD*%
%TO.C,C4*%
G36*
G01*
X97800000Y-107670000D02*
X97800000Y-107330000D01*
G75*
G02*
X97940000Y-107190000I140000J0D01*
G01*
X98220000Y-107190000D01*
G75*
G02*
X98360000Y-107330000I0J-140000D01*
G01*
X98360000Y-107670000D01*
G75*
G02*
X98220000Y-107810000I-140000J0D01*
G01*
X97940000Y-107810000D01*
G75*
G02*
X97800000Y-107670000I0J140000D01*
G01*
G37*
G36*
G01*
X96840000Y-107670000D02*
X96840000Y-107330000D01*
G75*
G02*
X96980000Y-107190000I140000J0D01*
G01*
X97260000Y-107190000D01*
G75*
G02*
X97400000Y-107330000I0J-140000D01*
G01*
X97400000Y-107670000D01*
G75*
G02*
X97260000Y-107810000I-140000J0D01*
G01*
X96980000Y-107810000D01*
G75*
G02*
X96840000Y-107670000I0J140000D01*
G01*
G37*
%TD*%
%TO.C,C3*%
G36*
G01*
X96900000Y-103870000D02*
X96900000Y-103530000D01*
G75*
G02*
X97040000Y-103390000I140000J0D01*
G01*
X97320000Y-103390000D01*
G75*
G02*
X97460000Y-103530000I0J-140000D01*
G01*
X97460000Y-103870000D01*
G75*
G02*
X97320000Y-104010000I-140000J0D01*
G01*
X97040000Y-104010000D01*
G75*
G02*
X96900000Y-103870000I0J140000D01*
G01*
G37*
G36*
G01*
X95940000Y-103870000D02*
X95940000Y-103530000D01*
G75*
G02*
X96080000Y-103390000I140000J0D01*
G01*
X96360000Y-103390000D01*
G75*
G02*
X96500000Y-103530000I0J-140000D01*
G01*
X96500000Y-103870000D01*
G75*
G02*
X96360000Y-104010000I-140000J0D01*
G01*
X96080000Y-104010000D01*
G75*
G02*
X95940000Y-103870000I0J140000D01*
G01*
G37*
%TD*%
D18*
%TO.C,U1*%
X110400000Y-105250000D03*
X110400000Y-106050000D03*
X110400000Y-106850000D03*
X110400000Y-107650000D03*
X110400000Y-108450000D03*
X110400000Y-109250000D03*
X110400000Y-110050000D03*
X110400000Y-110850000D03*
D19*
X108950000Y-112300000D03*
X108150000Y-112300000D03*
X107350000Y-112300000D03*
X106550000Y-112300000D03*
X105750000Y-112300000D03*
X104950000Y-112300000D03*
X104150000Y-112300000D03*
X103350000Y-112300000D03*
D18*
X101900000Y-110850000D03*
X101900000Y-110050000D03*
X101900000Y-109250000D03*
X101900000Y-108450000D03*
X101900000Y-107650000D03*
X101900000Y-106850000D03*
X101900000Y-106050000D03*
X101900000Y-105250000D03*
D19*
X103350000Y-103800000D03*
X104150000Y-103800000D03*
X104950000Y-103800000D03*
X105750000Y-103800000D03*
X106550000Y-103800000D03*
X107350000Y-103800000D03*
X108150000Y-103800000D03*
X108950000Y-103800000D03*
%TD*%
%TO.C,R67*%
G36*
G01*
X188815000Y-81040000D02*
X189185000Y-81040000D01*
G75*
G02*
X189320000Y-81175000I0J-135000D01*
G01*
X189320000Y-81445000D01*
G75*
G02*
X189185000Y-81580000I-135000J0D01*
G01*
X188815000Y-81580000D01*
G75*
G02*
X188680000Y-81445000I0J135000D01*
G01*
X188680000Y-81175000D01*
G75*
G02*
X188815000Y-81040000I135000J0D01*
G01*
G37*
G36*
G01*
X188815000Y-80020000D02*
X189185000Y-80020000D01*
G75*
G02*
X189320000Y-80155000I0J-135000D01*
G01*
X189320000Y-80425000D01*
G75*
G02*
X189185000Y-80560000I-135000J0D01*
G01*
X188815000Y-80560000D01*
G75*
G02*
X188680000Y-80425000I0J135000D01*
G01*
X188680000Y-80155000D01*
G75*
G02*
X188815000Y-80020000I135000J0D01*
G01*
G37*
%TD*%
%TO.C,R66*%
G36*
G01*
X187815000Y-81040000D02*
X188185000Y-81040000D01*
G75*
G02*
X188320000Y-81175000I0J-135000D01*
G01*
X188320000Y-81445000D01*
G75*
G02*
X188185000Y-81580000I-135000J0D01*
G01*
X187815000Y-81580000D01*
G75*
G02*
X187680000Y-81445000I0J135000D01*
G01*
X187680000Y-81175000D01*
G75*
G02*
X187815000Y-81040000I135000J0D01*
G01*
G37*
G36*
G01*
X187815000Y-80020000D02*
X188185000Y-80020000D01*
G75*
G02*
X188320000Y-80155000I0J-135000D01*
G01*
X188320000Y-80425000D01*
G75*
G02*
X188185000Y-80560000I-135000J0D01*
G01*
X187815000Y-80560000D01*
G75*
G02*
X187680000Y-80425000I0J135000D01*
G01*
X187680000Y-80155000D01*
G75*
G02*
X187815000Y-80020000I135000J0D01*
G01*
G37*
%TD*%
%TO.C,R65*%
G36*
G01*
X186815000Y-81040000D02*
X187185000Y-81040000D01*
G75*
G02*
X187320000Y-81175000I0J-135000D01*
G01*
X187320000Y-81445000D01*
G75*
G02*
X187185000Y-81580000I-135000J0D01*
G01*
X186815000Y-81580000D01*
G75*
G02*
X186680000Y-81445000I0J135000D01*
G01*
X186680000Y-81175000D01*
G75*
G02*
X186815000Y-81040000I135000J0D01*
G01*
G37*
G36*
G01*
X186815000Y-80020000D02*
X187185000Y-80020000D01*
G75*
G02*
X187320000Y-80155000I0J-135000D01*
G01*
X187320000Y-80425000D01*
G75*
G02*
X187185000Y-80560000I-135000J0D01*
G01*
X186815000Y-80560000D01*
G75*
G02*
X186680000Y-80425000I0J135000D01*
G01*
X186680000Y-80155000D01*
G75*
G02*
X186815000Y-80020000I135000J0D01*
G01*
G37*
%TD*%
%TO.C,R64*%
G36*
G01*
X185815000Y-81040000D02*
X186185000Y-81040000D01*
G75*
G02*
X186320000Y-81175000I0J-135000D01*
G01*
X186320000Y-81445000D01*
G75*
G02*
X186185000Y-81580000I-135000J0D01*
G01*
X185815000Y-81580000D01*
G75*
G02*
X185680000Y-81445000I0J135000D01*
G01*
X185680000Y-81175000D01*
G75*
G02*
X185815000Y-81040000I135000J0D01*
G01*
G37*
G36*
G01*
X185815000Y-80020000D02*
X186185000Y-80020000D01*
G75*
G02*
X186320000Y-80155000I0J-135000D01*
G01*
X186320000Y-80425000D01*
G75*
G02*
X186185000Y-80560000I-135000J0D01*
G01*
X185815000Y-80560000D01*
G75*
G02*
X185680000Y-80425000I0J135000D01*
G01*
X185680000Y-80155000D01*
G75*
G02*
X185815000Y-80020000I135000J0D01*
G01*
G37*
%TD*%
%TO.C,R63*%
G36*
G01*
X85685000Y-93260000D02*
X85315000Y-93260000D01*
G75*
G02*
X85180000Y-93125000I0J135000D01*
G01*
X85180000Y-92855000D01*
G75*
G02*
X85315000Y-92720000I135000J0D01*
G01*
X85685000Y-92720000D01*
G75*
G02*
X85820000Y-92855000I0J-135000D01*
G01*
X85820000Y-93125000D01*
G75*
G02*
X85685000Y-93260000I-135000J0D01*
G01*
G37*
G36*
G01*
X85685000Y-94280000D02*
X85315000Y-94280000D01*
G75*
G02*
X85180000Y-94145000I0J135000D01*
G01*
X85180000Y-93875000D01*
G75*
G02*
X85315000Y-93740000I135000J0D01*
G01*
X85685000Y-93740000D01*
G75*
G02*
X85820000Y-93875000I0J-135000D01*
G01*
X85820000Y-94145000D01*
G75*
G02*
X85685000Y-94280000I-135000J0D01*
G01*
G37*
%TD*%
%TO.C,R62*%
G36*
G01*
X85760000Y-91815000D02*
X85760000Y-92185000D01*
G75*
G02*
X85625000Y-92320000I-135000J0D01*
G01*
X85355000Y-92320000D01*
G75*
G02*
X85220000Y-92185000I0J135000D01*
G01*
X85220000Y-91815000D01*
G75*
G02*
X85355000Y-91680000I135000J0D01*
G01*
X85625000Y-91680000D01*
G75*
G02*
X85760000Y-91815000I0J-135000D01*
G01*
G37*
G36*
G01*
X86780000Y-91815000D02*
X86780000Y-92185000D01*
G75*
G02*
X86645000Y-92320000I-135000J0D01*
G01*
X86375000Y-92320000D01*
G75*
G02*
X86240000Y-92185000I0J135000D01*
G01*
X86240000Y-91815000D01*
G75*
G02*
X86375000Y-91680000I135000J0D01*
G01*
X86645000Y-91680000D01*
G75*
G02*
X86780000Y-91815000I0J-135000D01*
G01*
G37*
%TD*%
%TO.C,R61*%
G36*
G01*
X76315000Y-93740000D02*
X76685000Y-93740000D01*
G75*
G02*
X76820000Y-93875000I0J-135000D01*
G01*
X76820000Y-94145000D01*
G75*
G02*
X76685000Y-94280000I-135000J0D01*
G01*
X76315000Y-94280000D01*
G75*
G02*
X76180000Y-94145000I0J135000D01*
G01*
X76180000Y-93875000D01*
G75*
G02*
X76315000Y-93740000I135000J0D01*
G01*
G37*
G36*
G01*
X76315000Y-92720000D02*
X76685000Y-92720000D01*
G75*
G02*
X76820000Y-92855000I0J-135000D01*
G01*
X76820000Y-93125000D01*
G75*
G02*
X76685000Y-93260000I-135000J0D01*
G01*
X76315000Y-93260000D01*
G75*
G02*
X76180000Y-93125000I0J135000D01*
G01*
X76180000Y-92855000D01*
G75*
G02*
X76315000Y-92720000I135000J0D01*
G01*
G37*
%TD*%
%TO.C,R60*%
G36*
G01*
X78815000Y-93740000D02*
X79185000Y-93740000D01*
G75*
G02*
X79320000Y-93875000I0J-135000D01*
G01*
X79320000Y-94145000D01*
G75*
G02*
X79185000Y-94280000I-135000J0D01*
G01*
X78815000Y-94280000D01*
G75*
G02*
X78680000Y-94145000I0J135000D01*
G01*
X78680000Y-93875000D01*
G75*
G02*
X78815000Y-93740000I135000J0D01*
G01*
G37*
G36*
G01*
X78815000Y-92720000D02*
X79185000Y-92720000D01*
G75*
G02*
X79320000Y-92855000I0J-135000D01*
G01*
X79320000Y-93125000D01*
G75*
G02*
X79185000Y-93260000I-135000J0D01*
G01*
X78815000Y-93260000D01*
G75*
G02*
X78680000Y-93125000I0J135000D01*
G01*
X78680000Y-92855000D01*
G75*
G02*
X78815000Y-92720000I135000J0D01*
G01*
G37*
%TD*%
%TO.C,R59*%
G36*
G01*
X79740000Y-92185000D02*
X79740000Y-91815000D01*
G75*
G02*
X79875000Y-91680000I135000J0D01*
G01*
X80145000Y-91680000D01*
G75*
G02*
X80280000Y-91815000I0J-135000D01*
G01*
X80280000Y-92185000D01*
G75*
G02*
X80145000Y-92320000I-135000J0D01*
G01*
X79875000Y-92320000D01*
G75*
G02*
X79740000Y-92185000I0J135000D01*
G01*
G37*
G36*
G01*
X78720000Y-92185000D02*
X78720000Y-91815000D01*
G75*
G02*
X78855000Y-91680000I135000J0D01*
G01*
X79125000Y-91680000D01*
G75*
G02*
X79260000Y-91815000I0J-135000D01*
G01*
X79260000Y-92185000D01*
G75*
G02*
X79125000Y-92320000I-135000J0D01*
G01*
X78855000Y-92320000D01*
G75*
G02*
X78720000Y-92185000I0J135000D01*
G01*
G37*
%TD*%
%TO.C,R58*%
G36*
G01*
X75760000Y-91815000D02*
X75760000Y-92185000D01*
G75*
G02*
X75625000Y-92320000I-135000J0D01*
G01*
X75355000Y-92320000D01*
G75*
G02*
X75220000Y-92185000I0J135000D01*
G01*
X75220000Y-91815000D01*
G75*
G02*
X75355000Y-91680000I135000J0D01*
G01*
X75625000Y-91680000D01*
G75*
G02*
X75760000Y-91815000I0J-135000D01*
G01*
G37*
G36*
G01*
X76780000Y-91815000D02*
X76780000Y-92185000D01*
G75*
G02*
X76645000Y-92320000I-135000J0D01*
G01*
X76375000Y-92320000D01*
G75*
G02*
X76240000Y-92185000I0J135000D01*
G01*
X76240000Y-91815000D01*
G75*
G02*
X76375000Y-91680000I135000J0D01*
G01*
X76645000Y-91680000D01*
G75*
G02*
X76780000Y-91815000I0J-135000D01*
G01*
G37*
%TD*%
%TO.C,R57*%
G36*
G01*
X150685000Y-93260000D02*
X150315000Y-93260000D01*
G75*
G02*
X150180000Y-93125000I0J135000D01*
G01*
X150180000Y-92855000D01*
G75*
G02*
X150315000Y-92720000I135000J0D01*
G01*
X150685000Y-92720000D01*
G75*
G02*
X150820000Y-92855000I0J-135000D01*
G01*
X150820000Y-93125000D01*
G75*
G02*
X150685000Y-93260000I-135000J0D01*
G01*
G37*
G36*
G01*
X150685000Y-94280000D02*
X150315000Y-94280000D01*
G75*
G02*
X150180000Y-94145000I0J135000D01*
G01*
X150180000Y-93875000D01*
G75*
G02*
X150315000Y-93740000I135000J0D01*
G01*
X150685000Y-93740000D01*
G75*
G02*
X150820000Y-93875000I0J-135000D01*
G01*
X150820000Y-94145000D01*
G75*
G02*
X150685000Y-94280000I-135000J0D01*
G01*
G37*
%TD*%
%TO.C,R56*%
G36*
G01*
X150760000Y-91815000D02*
X150760000Y-92185000D01*
G75*
G02*
X150625000Y-92320000I-135000J0D01*
G01*
X150355000Y-92320000D01*
G75*
G02*
X150220000Y-92185000I0J135000D01*
G01*
X150220000Y-91815000D01*
G75*
G02*
X150355000Y-91680000I135000J0D01*
G01*
X150625000Y-91680000D01*
G75*
G02*
X150760000Y-91815000I0J-135000D01*
G01*
G37*
G36*
G01*
X151780000Y-91815000D02*
X151780000Y-92185000D01*
G75*
G02*
X151645000Y-92320000I-135000J0D01*
G01*
X151375000Y-92320000D01*
G75*
G02*
X151240000Y-92185000I0J135000D01*
G01*
X151240000Y-91815000D01*
G75*
G02*
X151375000Y-91680000I135000J0D01*
G01*
X151645000Y-91680000D01*
G75*
G02*
X151780000Y-91815000I0J-135000D01*
G01*
G37*
%TD*%
%TO.C,R55*%
G36*
G01*
X141315000Y-93750000D02*
X141685000Y-93750000D01*
G75*
G02*
X141820000Y-93885000I0J-135000D01*
G01*
X141820000Y-94155000D01*
G75*
G02*
X141685000Y-94290000I-135000J0D01*
G01*
X141315000Y-94290000D01*
G75*
G02*
X141180000Y-94155000I0J135000D01*
G01*
X141180000Y-93885000D01*
G75*
G02*
X141315000Y-93750000I135000J0D01*
G01*
G37*
G36*
G01*
X141315000Y-92730000D02*
X141685000Y-92730000D01*
G75*
G02*
X141820000Y-92865000I0J-135000D01*
G01*
X141820000Y-93135000D01*
G75*
G02*
X141685000Y-93270000I-135000J0D01*
G01*
X141315000Y-93270000D01*
G75*
G02*
X141180000Y-93135000I0J135000D01*
G01*
X141180000Y-92865000D01*
G75*
G02*
X141315000Y-92730000I135000J0D01*
G01*
G37*
%TD*%
%TO.C,R54*%
G36*
G01*
X143815000Y-93740000D02*
X144185000Y-93740000D01*
G75*
G02*
X144320000Y-93875000I0J-135000D01*
G01*
X144320000Y-94145000D01*
G75*
G02*
X144185000Y-94280000I-135000J0D01*
G01*
X143815000Y-94280000D01*
G75*
G02*
X143680000Y-94145000I0J135000D01*
G01*
X143680000Y-93875000D01*
G75*
G02*
X143815000Y-93740000I135000J0D01*
G01*
G37*
G36*
G01*
X143815000Y-92720000D02*
X144185000Y-92720000D01*
G75*
G02*
X144320000Y-92855000I0J-135000D01*
G01*
X144320000Y-93125000D01*
G75*
G02*
X144185000Y-93260000I-135000J0D01*
G01*
X143815000Y-93260000D01*
G75*
G02*
X143680000Y-93125000I0J135000D01*
G01*
X143680000Y-92855000D01*
G75*
G02*
X143815000Y-92720000I135000J0D01*
G01*
G37*
%TD*%
%TO.C,R53*%
G36*
G01*
X144740000Y-92185000D02*
X144740000Y-91815000D01*
G75*
G02*
X144875000Y-91680000I135000J0D01*
G01*
X145145000Y-91680000D01*
G75*
G02*
X145280000Y-91815000I0J-135000D01*
G01*
X145280000Y-92185000D01*
G75*
G02*
X145145000Y-92320000I-135000J0D01*
G01*
X144875000Y-92320000D01*
G75*
G02*
X144740000Y-92185000I0J135000D01*
G01*
G37*
G36*
G01*
X143720000Y-92185000D02*
X143720000Y-91815000D01*
G75*
G02*
X143855000Y-91680000I135000J0D01*
G01*
X144125000Y-91680000D01*
G75*
G02*
X144260000Y-91815000I0J-135000D01*
G01*
X144260000Y-92185000D01*
G75*
G02*
X144125000Y-92320000I-135000J0D01*
G01*
X143855000Y-92320000D01*
G75*
G02*
X143720000Y-92185000I0J135000D01*
G01*
G37*
%TD*%
%TO.C,R52*%
G36*
G01*
X140760000Y-91815000D02*
X140760000Y-92185000D01*
G75*
G02*
X140625000Y-92320000I-135000J0D01*
G01*
X140355000Y-92320000D01*
G75*
G02*
X140220000Y-92185000I0J135000D01*
G01*
X140220000Y-91815000D01*
G75*
G02*
X140355000Y-91680000I135000J0D01*
G01*
X140625000Y-91680000D01*
G75*
G02*
X140760000Y-91815000I0J-135000D01*
G01*
G37*
G36*
G01*
X141780000Y-91815000D02*
X141780000Y-92185000D01*
G75*
G02*
X141645000Y-92320000I-135000J0D01*
G01*
X141375000Y-92320000D01*
G75*
G02*
X141240000Y-92185000I0J135000D01*
G01*
X141240000Y-91815000D01*
G75*
G02*
X141375000Y-91680000I135000J0D01*
G01*
X141645000Y-91680000D01*
G75*
G02*
X141780000Y-91815000I0J-135000D01*
G01*
G37*
%TD*%
%TO.C,R51*%
G36*
G01*
X128685000Y-93260000D02*
X128315000Y-93260000D01*
G75*
G02*
X128180000Y-93125000I0J135000D01*
G01*
X128180000Y-92855000D01*
G75*
G02*
X128315000Y-92720000I135000J0D01*
G01*
X128685000Y-92720000D01*
G75*
G02*
X128820000Y-92855000I0J-135000D01*
G01*
X128820000Y-93125000D01*
G75*
G02*
X128685000Y-93260000I-135000J0D01*
G01*
G37*
G36*
G01*
X128685000Y-94280000D02*
X128315000Y-94280000D01*
G75*
G02*
X128180000Y-94145000I0J135000D01*
G01*
X128180000Y-93875000D01*
G75*
G02*
X128315000Y-93740000I135000J0D01*
G01*
X128685000Y-93740000D01*
G75*
G02*
X128820000Y-93875000I0J-135000D01*
G01*
X128820000Y-94145000D01*
G75*
G02*
X128685000Y-94280000I-135000J0D01*
G01*
G37*
%TD*%
%TO.C,R50*%
G36*
G01*
X128760000Y-91815000D02*
X128760000Y-92185000D01*
G75*
G02*
X128625000Y-92320000I-135000J0D01*
G01*
X128355000Y-92320000D01*
G75*
G02*
X128220000Y-92185000I0J135000D01*
G01*
X128220000Y-91815000D01*
G75*
G02*
X128355000Y-91680000I135000J0D01*
G01*
X128625000Y-91680000D01*
G75*
G02*
X128760000Y-91815000I0J-135000D01*
G01*
G37*
G36*
G01*
X129780000Y-91815000D02*
X129780000Y-92185000D01*
G75*
G02*
X129645000Y-92320000I-135000J0D01*
G01*
X129375000Y-92320000D01*
G75*
G02*
X129240000Y-92185000I0J135000D01*
G01*
X129240000Y-91815000D01*
G75*
G02*
X129375000Y-91680000I135000J0D01*
G01*
X129645000Y-91680000D01*
G75*
G02*
X129780000Y-91815000I0J-135000D01*
G01*
G37*
%TD*%
%TO.C,R49*%
G36*
G01*
X119315000Y-93740000D02*
X119685000Y-93740000D01*
G75*
G02*
X119820000Y-93875000I0J-135000D01*
G01*
X119820000Y-94145000D01*
G75*
G02*
X119685000Y-94280000I-135000J0D01*
G01*
X119315000Y-94280000D01*
G75*
G02*
X119180000Y-94145000I0J135000D01*
G01*
X119180000Y-93875000D01*
G75*
G02*
X119315000Y-93740000I135000J0D01*
G01*
G37*
G36*
G01*
X119315000Y-92720000D02*
X119685000Y-92720000D01*
G75*
G02*
X119820000Y-92855000I0J-135000D01*
G01*
X119820000Y-93125000D01*
G75*
G02*
X119685000Y-93260000I-135000J0D01*
G01*
X119315000Y-93260000D01*
G75*
G02*
X119180000Y-93125000I0J135000D01*
G01*
X119180000Y-92855000D01*
G75*
G02*
X119315000Y-92720000I135000J0D01*
G01*
G37*
%TD*%
%TO.C,R48*%
G36*
G01*
X121815000Y-93740000D02*
X122185000Y-93740000D01*
G75*
G02*
X122320000Y-93875000I0J-135000D01*
G01*
X122320000Y-94145000D01*
G75*
G02*
X122185000Y-94280000I-135000J0D01*
G01*
X121815000Y-94280000D01*
G75*
G02*
X121680000Y-94145000I0J135000D01*
G01*
X121680000Y-93875000D01*
G75*
G02*
X121815000Y-93740000I135000J0D01*
G01*
G37*
G36*
G01*
X121815000Y-92720000D02*
X122185000Y-92720000D01*
G75*
G02*
X122320000Y-92855000I0J-135000D01*
G01*
X122320000Y-93125000D01*
G75*
G02*
X122185000Y-93260000I-135000J0D01*
G01*
X121815000Y-93260000D01*
G75*
G02*
X121680000Y-93125000I0J135000D01*
G01*
X121680000Y-92855000D01*
G75*
G02*
X121815000Y-92720000I135000J0D01*
G01*
G37*
%TD*%
%TO.C,R46*%
G36*
G01*
X118760000Y-91815000D02*
X118760000Y-92185000D01*
G75*
G02*
X118625000Y-92320000I-135000J0D01*
G01*
X118355000Y-92320000D01*
G75*
G02*
X118220000Y-92185000I0J135000D01*
G01*
X118220000Y-91815000D01*
G75*
G02*
X118355000Y-91680000I135000J0D01*
G01*
X118625000Y-91680000D01*
G75*
G02*
X118760000Y-91815000I0J-135000D01*
G01*
G37*
G36*
G01*
X119780000Y-91815000D02*
X119780000Y-92185000D01*
G75*
G02*
X119645000Y-92320000I-135000J0D01*
G01*
X119375000Y-92320000D01*
G75*
G02*
X119240000Y-92185000I0J135000D01*
G01*
X119240000Y-91815000D01*
G75*
G02*
X119375000Y-91680000I135000J0D01*
G01*
X119645000Y-91680000D01*
G75*
G02*
X119780000Y-91815000I0J-135000D01*
G01*
G37*
%TD*%
%TO.C,R45*%
G36*
G01*
X107185000Y-93260000D02*
X106815000Y-93260000D01*
G75*
G02*
X106680000Y-93125000I0J135000D01*
G01*
X106680000Y-92855000D01*
G75*
G02*
X106815000Y-92720000I135000J0D01*
G01*
X107185000Y-92720000D01*
G75*
G02*
X107320000Y-92855000I0J-135000D01*
G01*
X107320000Y-93125000D01*
G75*
G02*
X107185000Y-93260000I-135000J0D01*
G01*
G37*
G36*
G01*
X107185000Y-94280000D02*
X106815000Y-94280000D01*
G75*
G02*
X106680000Y-94145000I0J135000D01*
G01*
X106680000Y-93875000D01*
G75*
G02*
X106815000Y-93740000I135000J0D01*
G01*
X107185000Y-93740000D01*
G75*
G02*
X107320000Y-93875000I0J-135000D01*
G01*
X107320000Y-94145000D01*
G75*
G02*
X107185000Y-94280000I-135000J0D01*
G01*
G37*
%TD*%
%TO.C,R44*%
G36*
G01*
X107250000Y-91815000D02*
X107250000Y-92185000D01*
G75*
G02*
X107115000Y-92320000I-135000J0D01*
G01*
X106845000Y-92320000D01*
G75*
G02*
X106710000Y-92185000I0J135000D01*
G01*
X106710000Y-91815000D01*
G75*
G02*
X106845000Y-91680000I135000J0D01*
G01*
X107115000Y-91680000D01*
G75*
G02*
X107250000Y-91815000I0J-135000D01*
G01*
G37*
G36*
G01*
X108270000Y-91815000D02*
X108270000Y-92185000D01*
G75*
G02*
X108135000Y-92320000I-135000J0D01*
G01*
X107865000Y-92320000D01*
G75*
G02*
X107730000Y-92185000I0J135000D01*
G01*
X107730000Y-91815000D01*
G75*
G02*
X107865000Y-91680000I135000J0D01*
G01*
X108135000Y-91680000D01*
G75*
G02*
X108270000Y-91815000I0J-135000D01*
G01*
G37*
%TD*%
%TO.C,R43*%
G36*
G01*
X97815000Y-93730000D02*
X98185000Y-93730000D01*
G75*
G02*
X98320000Y-93865000I0J-135000D01*
G01*
X98320000Y-94135000D01*
G75*
G02*
X98185000Y-94270000I-135000J0D01*
G01*
X97815000Y-94270000D01*
G75*
G02*
X97680000Y-94135000I0J135000D01*
G01*
X97680000Y-93865000D01*
G75*
G02*
X97815000Y-93730000I135000J0D01*
G01*
G37*
G36*
G01*
X97815000Y-92710000D02*
X98185000Y-92710000D01*
G75*
G02*
X98320000Y-92845000I0J-135000D01*
G01*
X98320000Y-93115000D01*
G75*
G02*
X98185000Y-93250000I-135000J0D01*
G01*
X97815000Y-93250000D01*
G75*
G02*
X97680000Y-93115000I0J135000D01*
G01*
X97680000Y-92845000D01*
G75*
G02*
X97815000Y-92710000I135000J0D01*
G01*
G37*
%TD*%
%TO.C,R42*%
G36*
G01*
X100215000Y-93740000D02*
X100585000Y-93740000D01*
G75*
G02*
X100720000Y-93875000I0J-135000D01*
G01*
X100720000Y-94145000D01*
G75*
G02*
X100585000Y-94280000I-135000J0D01*
G01*
X100215000Y-94280000D01*
G75*
G02*
X100080000Y-94145000I0J135000D01*
G01*
X100080000Y-93875000D01*
G75*
G02*
X100215000Y-93740000I135000J0D01*
G01*
G37*
G36*
G01*
X100215000Y-92720000D02*
X100585000Y-92720000D01*
G75*
G02*
X100720000Y-92855000I0J-135000D01*
G01*
X100720000Y-93125000D01*
G75*
G02*
X100585000Y-93260000I-135000J0D01*
G01*
X100215000Y-93260000D01*
G75*
G02*
X100080000Y-93125000I0J135000D01*
G01*
X100080000Y-92855000D01*
G75*
G02*
X100215000Y-92720000I135000J0D01*
G01*
G37*
%TD*%
%TO.C,R41*%
G36*
G01*
X101130000Y-92185000D02*
X101130000Y-91815000D01*
G75*
G02*
X101265000Y-91680000I135000J0D01*
G01*
X101535000Y-91680000D01*
G75*
G02*
X101670000Y-91815000I0J-135000D01*
G01*
X101670000Y-92185000D01*
G75*
G02*
X101535000Y-92320000I-135000J0D01*
G01*
X101265000Y-92320000D01*
G75*
G02*
X101130000Y-92185000I0J135000D01*
G01*
G37*
G36*
G01*
X100110000Y-92185000D02*
X100110000Y-91815000D01*
G75*
G02*
X100245000Y-91680000I135000J0D01*
G01*
X100515000Y-91680000D01*
G75*
G02*
X100650000Y-91815000I0J-135000D01*
G01*
X100650000Y-92185000D01*
G75*
G02*
X100515000Y-92320000I-135000J0D01*
G01*
X100245000Y-92320000D01*
G75*
G02*
X100110000Y-92185000I0J135000D01*
G01*
G37*
%TD*%
%TO.C,R40*%
G36*
G01*
X97260000Y-91815000D02*
X97260000Y-92185000D01*
G75*
G02*
X97125000Y-92320000I-135000J0D01*
G01*
X96855000Y-92320000D01*
G75*
G02*
X96720000Y-92185000I0J135000D01*
G01*
X96720000Y-91815000D01*
G75*
G02*
X96855000Y-91680000I135000J0D01*
G01*
X97125000Y-91680000D01*
G75*
G02*
X97260000Y-91815000I0J-135000D01*
G01*
G37*
G36*
G01*
X98280000Y-91815000D02*
X98280000Y-92185000D01*
G75*
G02*
X98145000Y-92320000I-135000J0D01*
G01*
X97875000Y-92320000D01*
G75*
G02*
X97740000Y-92185000I0J135000D01*
G01*
X97740000Y-91815000D01*
G75*
G02*
X97875000Y-91680000I135000J0D01*
G01*
X98145000Y-91680000D01*
G75*
G02*
X98280000Y-91815000I0J-135000D01*
G01*
G37*
%TD*%
%TO.C,R39*%
G36*
G01*
X210685000Y-114760000D02*
X210315000Y-114760000D01*
G75*
G02*
X210180000Y-114625000I0J135000D01*
G01*
X210180000Y-114355000D01*
G75*
G02*
X210315000Y-114220000I135000J0D01*
G01*
X210685000Y-114220000D01*
G75*
G02*
X210820000Y-114355000I0J-135000D01*
G01*
X210820000Y-114625000D01*
G75*
G02*
X210685000Y-114760000I-135000J0D01*
G01*
G37*
G36*
G01*
X210685000Y-115780000D02*
X210315000Y-115780000D01*
G75*
G02*
X210180000Y-115645000I0J135000D01*
G01*
X210180000Y-115375000D01*
G75*
G02*
X210315000Y-115240000I135000J0D01*
G01*
X210685000Y-115240000D01*
G75*
G02*
X210820000Y-115375000I0J-135000D01*
G01*
X210820000Y-115645000D01*
G75*
G02*
X210685000Y-115780000I-135000J0D01*
G01*
G37*
%TD*%
%TO.C,R38*%
G36*
G01*
X191685000Y-114760000D02*
X191315000Y-114760000D01*
G75*
G02*
X191180000Y-114625000I0J135000D01*
G01*
X191180000Y-114355000D01*
G75*
G02*
X191315000Y-114220000I135000J0D01*
G01*
X191685000Y-114220000D01*
G75*
G02*
X191820000Y-114355000I0J-135000D01*
G01*
X191820000Y-114625000D01*
G75*
G02*
X191685000Y-114760000I-135000J0D01*
G01*
G37*
G36*
G01*
X191685000Y-115780000D02*
X191315000Y-115780000D01*
G75*
G02*
X191180000Y-115645000I0J135000D01*
G01*
X191180000Y-115375000D01*
G75*
G02*
X191315000Y-115240000I135000J0D01*
G01*
X191685000Y-115240000D01*
G75*
G02*
X191820000Y-115375000I0J-135000D01*
G01*
X191820000Y-115645000D01*
G75*
G02*
X191685000Y-115780000I-135000J0D01*
G01*
G37*
%TD*%
%TO.C,R37*%
G36*
G01*
X172685000Y-114760000D02*
X172315000Y-114760000D01*
G75*
G02*
X172180000Y-114625000I0J135000D01*
G01*
X172180000Y-114355000D01*
G75*
G02*
X172315000Y-114220000I135000J0D01*
G01*
X172685000Y-114220000D01*
G75*
G02*
X172820000Y-114355000I0J-135000D01*
G01*
X172820000Y-114625000D01*
G75*
G02*
X172685000Y-114760000I-135000J0D01*
G01*
G37*
G36*
G01*
X172685000Y-115780000D02*
X172315000Y-115780000D01*
G75*
G02*
X172180000Y-115645000I0J135000D01*
G01*
X172180000Y-115375000D01*
G75*
G02*
X172315000Y-115240000I135000J0D01*
G01*
X172685000Y-115240000D01*
G75*
G02*
X172820000Y-115375000I0J-135000D01*
G01*
X172820000Y-115645000D01*
G75*
G02*
X172685000Y-115780000I-135000J0D01*
G01*
G37*
%TD*%
%TO.C,R36*%
G36*
G01*
X210315000Y-95240000D02*
X210685000Y-95240000D01*
G75*
G02*
X210820000Y-95375000I0J-135000D01*
G01*
X210820000Y-95645000D01*
G75*
G02*
X210685000Y-95780000I-135000J0D01*
G01*
X210315000Y-95780000D01*
G75*
G02*
X210180000Y-95645000I0J135000D01*
G01*
X210180000Y-95375000D01*
G75*
G02*
X210315000Y-95240000I135000J0D01*
G01*
G37*
G36*
G01*
X210315000Y-94220000D02*
X210685000Y-94220000D01*
G75*
G02*
X210820000Y-94355000I0J-135000D01*
G01*
X210820000Y-94625000D01*
G75*
G02*
X210685000Y-94760000I-135000J0D01*
G01*
X210315000Y-94760000D01*
G75*
G02*
X210180000Y-94625000I0J135000D01*
G01*
X210180000Y-94355000D01*
G75*
G02*
X210315000Y-94220000I135000J0D01*
G01*
G37*
%TD*%
%TO.C,R35*%
G36*
G01*
X191315000Y-95240000D02*
X191685000Y-95240000D01*
G75*
G02*
X191820000Y-95375000I0J-135000D01*
G01*
X191820000Y-95645000D01*
G75*
G02*
X191685000Y-95780000I-135000J0D01*
G01*
X191315000Y-95780000D01*
G75*
G02*
X191180000Y-95645000I0J135000D01*
G01*
X191180000Y-95375000D01*
G75*
G02*
X191315000Y-95240000I135000J0D01*
G01*
G37*
G36*
G01*
X191315000Y-94220000D02*
X191685000Y-94220000D01*
G75*
G02*
X191820000Y-94355000I0J-135000D01*
G01*
X191820000Y-94625000D01*
G75*
G02*
X191685000Y-94760000I-135000J0D01*
G01*
X191315000Y-94760000D01*
G75*
G02*
X191180000Y-94625000I0J135000D01*
G01*
X191180000Y-94355000D01*
G75*
G02*
X191315000Y-94220000I135000J0D01*
G01*
G37*
%TD*%
%TO.C,R34*%
G36*
G01*
X172215000Y-95240000D02*
X172585000Y-95240000D01*
G75*
G02*
X172720000Y-95375000I0J-135000D01*
G01*
X172720000Y-95645000D01*
G75*
G02*
X172585000Y-95780000I-135000J0D01*
G01*
X172215000Y-95780000D01*
G75*
G02*
X172080000Y-95645000I0J135000D01*
G01*
X172080000Y-95375000D01*
G75*
G02*
X172215000Y-95240000I135000J0D01*
G01*
G37*
G36*
G01*
X172215000Y-94220000D02*
X172585000Y-94220000D01*
G75*
G02*
X172720000Y-94355000I0J-135000D01*
G01*
X172720000Y-94625000D01*
G75*
G02*
X172585000Y-94760000I-135000J0D01*
G01*
X172215000Y-94760000D01*
G75*
G02*
X172080000Y-94625000I0J135000D01*
G01*
X172080000Y-94355000D01*
G75*
G02*
X172215000Y-94220000I135000J0D01*
G01*
G37*
%TD*%
%TO.C,C16*%
G36*
G01*
X75330000Y-93700000D02*
X75670000Y-93700000D01*
G75*
G02*
X75810000Y-93840000I0J-140000D01*
G01*
X75810000Y-94120000D01*
G75*
G02*
X75670000Y-94260000I-140000J0D01*
G01*
X75330000Y-94260000D01*
G75*
G02*
X75190000Y-94120000I0J140000D01*
G01*
X75190000Y-93840000D01*
G75*
G02*
X75330000Y-93700000I140000J0D01*
G01*
G37*
G36*
G01*
X75330000Y-92740000D02*
X75670000Y-92740000D01*
G75*
G02*
X75810000Y-92880000I0J-140000D01*
G01*
X75810000Y-93160000D01*
G75*
G02*
X75670000Y-93300000I-140000J0D01*
G01*
X75330000Y-93300000D01*
G75*
G02*
X75190000Y-93160000I0J140000D01*
G01*
X75190000Y-92880000D01*
G75*
G02*
X75330000Y-92740000I140000J0D01*
G01*
G37*
%TD*%
%TO.C,C14*%
G36*
G01*
X151330000Y-93700000D02*
X151670000Y-93700000D01*
G75*
G02*
X151810000Y-93840000I0J-140000D01*
G01*
X151810000Y-94120000D01*
G75*
G02*
X151670000Y-94260000I-140000J0D01*
G01*
X151330000Y-94260000D01*
G75*
G02*
X151190000Y-94120000I0J140000D01*
G01*
X151190000Y-93840000D01*
G75*
G02*
X151330000Y-93700000I140000J0D01*
G01*
G37*
G36*
G01*
X151330000Y-92740000D02*
X151670000Y-92740000D01*
G75*
G02*
X151810000Y-92880000I0J-140000D01*
G01*
X151810000Y-93160000D01*
G75*
G02*
X151670000Y-93300000I-140000J0D01*
G01*
X151330000Y-93300000D01*
G75*
G02*
X151190000Y-93160000I0J140000D01*
G01*
X151190000Y-92880000D01*
G75*
G02*
X151330000Y-92740000I140000J0D01*
G01*
G37*
%TD*%
%TO.C,C13*%
G36*
G01*
X140330000Y-93700000D02*
X140670000Y-93700000D01*
G75*
G02*
X140810000Y-93840000I0J-140000D01*
G01*
X140810000Y-94120000D01*
G75*
G02*
X140670000Y-94260000I-140000J0D01*
G01*
X140330000Y-94260000D01*
G75*
G02*
X140190000Y-94120000I0J140000D01*
G01*
X140190000Y-93840000D01*
G75*
G02*
X140330000Y-93700000I140000J0D01*
G01*
G37*
G36*
G01*
X140330000Y-92740000D02*
X140670000Y-92740000D01*
G75*
G02*
X140810000Y-92880000I0J-140000D01*
G01*
X140810000Y-93160000D01*
G75*
G02*
X140670000Y-93300000I-140000J0D01*
G01*
X140330000Y-93300000D01*
G75*
G02*
X140190000Y-93160000I0J140000D01*
G01*
X140190000Y-92880000D01*
G75*
G02*
X140330000Y-92740000I140000J0D01*
G01*
G37*
%TD*%
%TO.C,C12*%
G36*
G01*
X144830000Y-93700000D02*
X145170000Y-93700000D01*
G75*
G02*
X145310000Y-93840000I0J-140000D01*
G01*
X145310000Y-94120000D01*
G75*
G02*
X145170000Y-94260000I-140000J0D01*
G01*
X144830000Y-94260000D01*
G75*
G02*
X144690000Y-94120000I0J140000D01*
G01*
X144690000Y-93840000D01*
G75*
G02*
X144830000Y-93700000I140000J0D01*
G01*
G37*
G36*
G01*
X144830000Y-92740000D02*
X145170000Y-92740000D01*
G75*
G02*
X145310000Y-92880000I0J-140000D01*
G01*
X145310000Y-93160000D01*
G75*
G02*
X145170000Y-93300000I-140000J0D01*
G01*
X144830000Y-93300000D01*
G75*
G02*
X144690000Y-93160000I0J140000D01*
G01*
X144690000Y-92880000D01*
G75*
G02*
X144830000Y-92740000I140000J0D01*
G01*
G37*
%TD*%
%TO.C,C11*%
G36*
G01*
X129330000Y-93700000D02*
X129670000Y-93700000D01*
G75*
G02*
X129810000Y-93840000I0J-140000D01*
G01*
X129810000Y-94120000D01*
G75*
G02*
X129670000Y-94260000I-140000J0D01*
G01*
X129330000Y-94260000D01*
G75*
G02*
X129190000Y-94120000I0J140000D01*
G01*
X129190000Y-93840000D01*
G75*
G02*
X129330000Y-93700000I140000J0D01*
G01*
G37*
G36*
G01*
X129330000Y-92740000D02*
X129670000Y-92740000D01*
G75*
G02*
X129810000Y-92880000I0J-140000D01*
G01*
X129810000Y-93160000D01*
G75*
G02*
X129670000Y-93300000I-140000J0D01*
G01*
X129330000Y-93300000D01*
G75*
G02*
X129190000Y-93160000I0J140000D01*
G01*
X129190000Y-92880000D01*
G75*
G02*
X129330000Y-92740000I140000J0D01*
G01*
G37*
%TD*%
%TO.C,C10*%
G36*
G01*
X118330000Y-93700000D02*
X118670000Y-93700000D01*
G75*
G02*
X118810000Y-93840000I0J-140000D01*
G01*
X118810000Y-94120000D01*
G75*
G02*
X118670000Y-94260000I-140000J0D01*
G01*
X118330000Y-94260000D01*
G75*
G02*
X118190000Y-94120000I0J140000D01*
G01*
X118190000Y-93840000D01*
G75*
G02*
X118330000Y-93700000I140000J0D01*
G01*
G37*
G36*
G01*
X118330000Y-92740000D02*
X118670000Y-92740000D01*
G75*
G02*
X118810000Y-92880000I0J-140000D01*
G01*
X118810000Y-93160000D01*
G75*
G02*
X118670000Y-93300000I-140000J0D01*
G01*
X118330000Y-93300000D01*
G75*
G02*
X118190000Y-93160000I0J140000D01*
G01*
X118190000Y-92880000D01*
G75*
G02*
X118330000Y-92740000I140000J0D01*
G01*
G37*
%TD*%
%TO.C,C9*%
G36*
G01*
X122830000Y-93700000D02*
X123170000Y-93700000D01*
G75*
G02*
X123310000Y-93840000I0J-140000D01*
G01*
X123310000Y-94120000D01*
G75*
G02*
X123170000Y-94260000I-140000J0D01*
G01*
X122830000Y-94260000D01*
G75*
G02*
X122690000Y-94120000I0J140000D01*
G01*
X122690000Y-93840000D01*
G75*
G02*
X122830000Y-93700000I140000J0D01*
G01*
G37*
G36*
G01*
X122830000Y-92740000D02*
X123170000Y-92740000D01*
G75*
G02*
X123310000Y-92880000I0J-140000D01*
G01*
X123310000Y-93160000D01*
G75*
G02*
X123170000Y-93300000I-140000J0D01*
G01*
X122830000Y-93300000D01*
G75*
G02*
X122690000Y-93160000I0J140000D01*
G01*
X122690000Y-92880000D01*
G75*
G02*
X122830000Y-92740000I140000J0D01*
G01*
G37*
%TD*%
%TO.C,C6*%
G36*
G01*
X101230000Y-93700000D02*
X101570000Y-93700000D01*
G75*
G02*
X101710000Y-93840000I0J-140000D01*
G01*
X101710000Y-94120000D01*
G75*
G02*
X101570000Y-94260000I-140000J0D01*
G01*
X101230000Y-94260000D01*
G75*
G02*
X101090000Y-94120000I0J140000D01*
G01*
X101090000Y-93840000D01*
G75*
G02*
X101230000Y-93700000I140000J0D01*
G01*
G37*
G36*
G01*
X101230000Y-92740000D02*
X101570000Y-92740000D01*
G75*
G02*
X101710000Y-92880000I0J-140000D01*
G01*
X101710000Y-93160000D01*
G75*
G02*
X101570000Y-93300000I-140000J0D01*
G01*
X101230000Y-93300000D01*
G75*
G02*
X101090000Y-93160000I0J140000D01*
G01*
X101090000Y-92880000D01*
G75*
G02*
X101230000Y-92740000I140000J0D01*
G01*
G37*
%TD*%
D20*
%TO.C,U7*%
X164100000Y-76100000D03*
D21*
X163075000Y-76100000D03*
D22*
X162750000Y-75162500D03*
X163400000Y-75162500D03*
X164050000Y-75162500D03*
X164050000Y-77037500D03*
X163400000Y-77037500D03*
X162750000Y-77037500D03*
%TD*%
%TO.C,U6*%
G36*
G01*
X143912500Y-104224999D02*
X143912500Y-104775001D01*
G75*
G02*
X143662501Y-105025000I-249999J0D01*
G01*
X143112499Y-105025000D01*
G75*
G02*
X142862500Y-104775001I0J249999D01*
G01*
X142862500Y-104224999D01*
G75*
G02*
X143112499Y-103975000I249999J0D01*
G01*
X143662501Y-103975000D01*
G75*
G02*
X143912500Y-104224999I0J-249999D01*
G01*
G37*
G36*
G01*
X143912500Y-105524999D02*
X143912500Y-106075001D01*
G75*
G02*
X143662501Y-106325000I-249999J0D01*
G01*
X143112499Y-106325000D01*
G75*
G02*
X142862500Y-106075001I0J249999D01*
G01*
X142862500Y-105524999D01*
G75*
G02*
X143112499Y-105275000I249999J0D01*
G01*
X143662501Y-105275000D01*
G75*
G02*
X143912500Y-105524999I0J-249999D01*
G01*
G37*
G36*
G01*
X145212500Y-104224999D02*
X145212500Y-104775001D01*
G75*
G02*
X144962501Y-105025000I-249999J0D01*
G01*
X144412499Y-105025000D01*
G75*
G02*
X144162500Y-104775001I0J249999D01*
G01*
X144162500Y-104224999D01*
G75*
G02*
X144412499Y-103975000I249999J0D01*
G01*
X144962501Y-103975000D01*
G75*
G02*
X145212500Y-104224999I0J-249999D01*
G01*
G37*
G36*
G01*
X145212500Y-105524999D02*
X145212500Y-106075001D01*
G75*
G02*
X144962501Y-106325000I-249999J0D01*
G01*
X144412499Y-106325000D01*
G75*
G02*
X144162500Y-106075001I0J249999D01*
G01*
X144162500Y-105524999D01*
G75*
G02*
X144412499Y-105275000I249999J0D01*
G01*
X144962501Y-105275000D01*
G75*
G02*
X145212500Y-105524999I0J-249999D01*
G01*
G37*
G36*
G01*
X145412500Y-106737500D02*
X145412500Y-107437500D01*
G75*
G02*
X145350000Y-107500000I-62500J0D01*
G01*
X145225000Y-107500000D01*
G75*
G02*
X145162500Y-107437500I0J62500D01*
G01*
X145162500Y-106737500D01*
G75*
G02*
X145225000Y-106675000I62500J0D01*
G01*
X145350000Y-106675000D01*
G75*
G02*
X145412500Y-106737500I0J-62500D01*
G01*
G37*
G36*
G01*
X144912500Y-106737500D02*
X144912500Y-107437500D01*
G75*
G02*
X144850000Y-107500000I-62500J0D01*
G01*
X144725000Y-107500000D01*
G75*
G02*
X144662500Y-107437500I0J62500D01*
G01*
X144662500Y-106737500D01*
G75*
G02*
X144725000Y-106675000I62500J0D01*
G01*
X144850000Y-106675000D01*
G75*
G02*
X144912500Y-106737500I0J-62500D01*
G01*
G37*
G36*
G01*
X144412500Y-106737500D02*
X144412500Y-107437500D01*
G75*
G02*
X144350000Y-107500000I-62500J0D01*
G01*
X144225000Y-107500000D01*
G75*
G02*
X144162500Y-107437500I0J62500D01*
G01*
X144162500Y-106737500D01*
G75*
G02*
X144225000Y-106675000I62500J0D01*
G01*
X144350000Y-106675000D01*
G75*
G02*
X144412500Y-106737500I0J-62500D01*
G01*
G37*
G36*
G01*
X143912500Y-106737500D02*
X143912500Y-107437500D01*
G75*
G02*
X143850000Y-107500000I-62500J0D01*
G01*
X143725000Y-107500000D01*
G75*
G02*
X143662500Y-107437500I0J62500D01*
G01*
X143662500Y-106737500D01*
G75*
G02*
X143725000Y-106675000I62500J0D01*
G01*
X143850000Y-106675000D01*
G75*
G02*
X143912500Y-106737500I0J-62500D01*
G01*
G37*
G36*
G01*
X143412500Y-106737500D02*
X143412500Y-107437500D01*
G75*
G02*
X143350000Y-107500000I-62500J0D01*
G01*
X143225000Y-107500000D01*
G75*
G02*
X143162500Y-107437500I0J62500D01*
G01*
X143162500Y-106737500D01*
G75*
G02*
X143225000Y-106675000I62500J0D01*
G01*
X143350000Y-106675000D01*
G75*
G02*
X143412500Y-106737500I0J-62500D01*
G01*
G37*
G36*
G01*
X142912500Y-106737500D02*
X142912500Y-107437500D01*
G75*
G02*
X142850000Y-107500000I-62500J0D01*
G01*
X142725000Y-107500000D01*
G75*
G02*
X142662500Y-107437500I0J62500D01*
G01*
X142662500Y-106737500D01*
G75*
G02*
X142725000Y-106675000I62500J0D01*
G01*
X142850000Y-106675000D01*
G75*
G02*
X142912500Y-106737500I0J-62500D01*
G01*
G37*
G36*
G01*
X142512500Y-106337500D02*
X142512500Y-106462500D01*
G75*
G02*
X142450000Y-106525000I-62500J0D01*
G01*
X141750000Y-106525000D01*
G75*
G02*
X141687500Y-106462500I0J62500D01*
G01*
X141687500Y-106337500D01*
G75*
G02*
X141750000Y-106275000I62500J0D01*
G01*
X142450000Y-106275000D01*
G75*
G02*
X142512500Y-106337500I0J-62500D01*
G01*
G37*
G36*
G01*
X142512500Y-105837500D02*
X142512500Y-105962500D01*
G75*
G02*
X142450000Y-106025000I-62500J0D01*
G01*
X141750000Y-106025000D01*
G75*
G02*
X141687500Y-105962500I0J62500D01*
G01*
X141687500Y-105837500D01*
G75*
G02*
X141750000Y-105775000I62500J0D01*
G01*
X142450000Y-105775000D01*
G75*
G02*
X142512500Y-105837500I0J-62500D01*
G01*
G37*
G36*
G01*
X142512500Y-105337500D02*
X142512500Y-105462500D01*
G75*
G02*
X142450000Y-105525000I-62500J0D01*
G01*
X141750000Y-105525000D01*
G75*
G02*
X141687500Y-105462500I0J62500D01*
G01*
X141687500Y-105337500D01*
G75*
G02*
X141750000Y-105275000I62500J0D01*
G01*
X142450000Y-105275000D01*
G75*
G02*
X142512500Y-105337500I0J-62500D01*
G01*
G37*
G36*
G01*
X142512500Y-104837500D02*
X142512500Y-104962500D01*
G75*
G02*
X142450000Y-105025000I-62500J0D01*
G01*
X141750000Y-105025000D01*
G75*
G02*
X141687500Y-104962500I0J62500D01*
G01*
X141687500Y-104837500D01*
G75*
G02*
X141750000Y-104775000I62500J0D01*
G01*
X142450000Y-104775000D01*
G75*
G02*
X142512500Y-104837500I0J-62500D01*
G01*
G37*
G36*
G01*
X142512500Y-104337500D02*
X142512500Y-104462500D01*
G75*
G02*
X142450000Y-104525000I-62500J0D01*
G01*
X141750000Y-104525000D01*
G75*
G02*
X141687500Y-104462500I0J62500D01*
G01*
X141687500Y-104337500D01*
G75*
G02*
X141750000Y-104275000I62500J0D01*
G01*
X142450000Y-104275000D01*
G75*
G02*
X142512500Y-104337500I0J-62500D01*
G01*
G37*
G36*
G01*
X142512500Y-103837500D02*
X142512500Y-103962500D01*
G75*
G02*
X142450000Y-104025000I-62500J0D01*
G01*
X141750000Y-104025000D01*
G75*
G02*
X141687500Y-103962500I0J62500D01*
G01*
X141687500Y-103837500D01*
G75*
G02*
X141750000Y-103775000I62500J0D01*
G01*
X142450000Y-103775000D01*
G75*
G02*
X142512500Y-103837500I0J-62500D01*
G01*
G37*
G36*
G01*
X142912500Y-102862500D02*
X142912500Y-103562500D01*
G75*
G02*
X142850000Y-103625000I-62500J0D01*
G01*
X142725000Y-103625000D01*
G75*
G02*
X142662500Y-103562500I0J62500D01*
G01*
X142662500Y-102862500D01*
G75*
G02*
X142725000Y-102800000I62500J0D01*
G01*
X142850000Y-102800000D01*
G75*
G02*
X142912500Y-102862500I0J-62500D01*
G01*
G37*
G36*
G01*
X143412500Y-102862500D02*
X143412500Y-103562500D01*
G75*
G02*
X143350000Y-103625000I-62500J0D01*
G01*
X143225000Y-103625000D01*
G75*
G02*
X143162500Y-103562500I0J62500D01*
G01*
X143162500Y-102862500D01*
G75*
G02*
X143225000Y-102800000I62500J0D01*
G01*
X143350000Y-102800000D01*
G75*
G02*
X143412500Y-102862500I0J-62500D01*
G01*
G37*
G36*
G01*
X143912500Y-102862500D02*
X143912500Y-103562500D01*
G75*
G02*
X143850000Y-103625000I-62500J0D01*
G01*
X143725000Y-103625000D01*
G75*
G02*
X143662500Y-103562500I0J62500D01*
G01*
X143662500Y-102862500D01*
G75*
G02*
X143725000Y-102800000I62500J0D01*
G01*
X143850000Y-102800000D01*
G75*
G02*
X143912500Y-102862500I0J-62500D01*
G01*
G37*
G36*
G01*
X144412500Y-102862500D02*
X144412500Y-103562500D01*
G75*
G02*
X144350000Y-103625000I-62500J0D01*
G01*
X144225000Y-103625000D01*
G75*
G02*
X144162500Y-103562500I0J62500D01*
G01*
X144162500Y-102862500D01*
G75*
G02*
X144225000Y-102800000I62500J0D01*
G01*
X144350000Y-102800000D01*
G75*
G02*
X144412500Y-102862500I0J-62500D01*
G01*
G37*
G36*
G01*
X144912500Y-102862500D02*
X144912500Y-103562500D01*
G75*
G02*
X144850000Y-103625000I-62500J0D01*
G01*
X144725000Y-103625000D01*
G75*
G02*
X144662500Y-103562500I0J62500D01*
G01*
X144662500Y-102862500D01*
G75*
G02*
X144725000Y-102800000I62500J0D01*
G01*
X144850000Y-102800000D01*
G75*
G02*
X144912500Y-102862500I0J-62500D01*
G01*
G37*
G36*
G01*
X145412500Y-102862500D02*
X145412500Y-103562500D01*
G75*
G02*
X145350000Y-103625000I-62500J0D01*
G01*
X145225000Y-103625000D01*
G75*
G02*
X145162500Y-103562500I0J62500D01*
G01*
X145162500Y-102862500D01*
G75*
G02*
X145225000Y-102800000I62500J0D01*
G01*
X145350000Y-102800000D01*
G75*
G02*
X145412500Y-102862500I0J-62500D01*
G01*
G37*
G36*
G01*
X146387500Y-103837500D02*
X146387500Y-103962500D01*
G75*
G02*
X146325000Y-104025000I-62500J0D01*
G01*
X145625000Y-104025000D01*
G75*
G02*
X145562500Y-103962500I0J62500D01*
G01*
X145562500Y-103837500D01*
G75*
G02*
X145625000Y-103775000I62500J0D01*
G01*
X146325000Y-103775000D01*
G75*
G02*
X146387500Y-103837500I0J-62500D01*
G01*
G37*
G36*
G01*
X146387500Y-104337500D02*
X146387500Y-104462500D01*
G75*
G02*
X146325000Y-104525000I-62500J0D01*
G01*
X145625000Y-104525000D01*
G75*
G02*
X145562500Y-104462500I0J62500D01*
G01*
X145562500Y-104337500D01*
G75*
G02*
X145625000Y-104275000I62500J0D01*
G01*
X146325000Y-104275000D01*
G75*
G02*
X146387500Y-104337500I0J-62500D01*
G01*
G37*
G36*
G01*
X146387500Y-104837500D02*
X146387500Y-104962500D01*
G75*
G02*
X146325000Y-105025000I-62500J0D01*
G01*
X145625000Y-105025000D01*
G75*
G02*
X145562500Y-104962500I0J62500D01*
G01*
X145562500Y-104837500D01*
G75*
G02*
X145625000Y-104775000I62500J0D01*
G01*
X146325000Y-104775000D01*
G75*
G02*
X146387500Y-104837500I0J-62500D01*
G01*
G37*
G36*
G01*
X146387500Y-105337500D02*
X146387500Y-105462500D01*
G75*
G02*
X146325000Y-105525000I-62500J0D01*
G01*
X145625000Y-105525000D01*
G75*
G02*
X145562500Y-105462500I0J62500D01*
G01*
X145562500Y-105337500D01*
G75*
G02*
X145625000Y-105275000I62500J0D01*
G01*
X146325000Y-105275000D01*
G75*
G02*
X146387500Y-105337500I0J-62500D01*
G01*
G37*
G36*
G01*
X146387500Y-105837500D02*
X146387500Y-105962500D01*
G75*
G02*
X146325000Y-106025000I-62500J0D01*
G01*
X145625000Y-106025000D01*
G75*
G02*
X145562500Y-105962500I0J62500D01*
G01*
X145562500Y-105837500D01*
G75*
G02*
X145625000Y-105775000I62500J0D01*
G01*
X146325000Y-105775000D01*
G75*
G02*
X146387500Y-105837500I0J-62500D01*
G01*
G37*
G36*
G01*
X146387500Y-106337500D02*
X146387500Y-106462500D01*
G75*
G02*
X146325000Y-106525000I-62500J0D01*
G01*
X145625000Y-106525000D01*
G75*
G02*
X145562500Y-106462500I0J62500D01*
G01*
X145562500Y-106337500D01*
G75*
G02*
X145625000Y-106275000I62500J0D01*
G01*
X146325000Y-106275000D01*
G75*
G02*
X146387500Y-106337500I0J-62500D01*
G01*
G37*
%TD*%
%TO.C,U3*%
G36*
G01*
X181270000Y-85345000D02*
X181270000Y-84895000D01*
G75*
G02*
X181495000Y-84670000I225000J0D01*
G01*
X181945000Y-84670000D01*
G75*
G02*
X182170000Y-84895000I0J-225000D01*
G01*
X182170000Y-85345000D01*
G75*
G02*
X181945000Y-85570000I-225000J0D01*
G01*
X181495000Y-85570000D01*
G75*
G02*
X181270000Y-85345000I0J225000D01*
G01*
G37*
G36*
G01*
X181270000Y-84225000D02*
X181270000Y-83775000D01*
G75*
G02*
X181495000Y-83550000I225000J0D01*
G01*
X181945000Y-83550000D01*
G75*
G02*
X182170000Y-83775000I0J-225000D01*
G01*
X182170000Y-84225000D01*
G75*
G02*
X181945000Y-84450000I-225000J0D01*
G01*
X181495000Y-84450000D01*
G75*
G02*
X181270000Y-84225000I0J225000D01*
G01*
G37*
G36*
G01*
X181270000Y-83105000D02*
X181270000Y-82655000D01*
G75*
G02*
X181495000Y-82430000I225000J0D01*
G01*
X181945000Y-82430000D01*
G75*
G02*
X182170000Y-82655000I0J-225000D01*
G01*
X182170000Y-83105000D01*
G75*
G02*
X181945000Y-83330000I-225000J0D01*
G01*
X181495000Y-83330000D01*
G75*
G02*
X181270000Y-83105000I0J225000D01*
G01*
G37*
G36*
G01*
X180150000Y-85345000D02*
X180150000Y-84895000D01*
G75*
G02*
X180375000Y-84670000I225000J0D01*
G01*
X180825000Y-84670000D01*
G75*
G02*
X181050000Y-84895000I0J-225000D01*
G01*
X181050000Y-85345000D01*
G75*
G02*
X180825000Y-85570000I-225000J0D01*
G01*
X180375000Y-85570000D01*
G75*
G02*
X180150000Y-85345000I0J225000D01*
G01*
G37*
G36*
G01*
X180150000Y-84225000D02*
X180150000Y-83775000D01*
G75*
G02*
X180375000Y-83550000I225000J0D01*
G01*
X180825000Y-83550000D01*
G75*
G02*
X181050000Y-83775000I0J-225000D01*
G01*
X181050000Y-84225000D01*
G75*
G02*
X180825000Y-84450000I-225000J0D01*
G01*
X180375000Y-84450000D01*
G75*
G02*
X180150000Y-84225000I0J225000D01*
G01*
G37*
G36*
G01*
X180150000Y-83105000D02*
X180150000Y-82655000D01*
G75*
G02*
X180375000Y-82430000I225000J0D01*
G01*
X180825000Y-82430000D01*
G75*
G02*
X181050000Y-82655000I0J-225000D01*
G01*
X181050000Y-83105000D01*
G75*
G02*
X180825000Y-83330000I-225000J0D01*
G01*
X180375000Y-83330000D01*
G75*
G02*
X180150000Y-83105000I0J225000D01*
G01*
G37*
G36*
G01*
X179030000Y-85345000D02*
X179030000Y-84895000D01*
G75*
G02*
X179255000Y-84670000I225000J0D01*
G01*
X179705000Y-84670000D01*
G75*
G02*
X179930000Y-84895000I0J-225000D01*
G01*
X179930000Y-85345000D01*
G75*
G02*
X179705000Y-85570000I-225000J0D01*
G01*
X179255000Y-85570000D01*
G75*
G02*
X179030000Y-85345000I0J225000D01*
G01*
G37*
G36*
G01*
X179030000Y-84225000D02*
X179030000Y-83775000D01*
G75*
G02*
X179255000Y-83550000I225000J0D01*
G01*
X179705000Y-83550000D01*
G75*
G02*
X179930000Y-83775000I0J-225000D01*
G01*
X179930000Y-84225000D01*
G75*
G02*
X179705000Y-84450000I-225000J0D01*
G01*
X179255000Y-84450000D01*
G75*
G02*
X179030000Y-84225000I0J225000D01*
G01*
G37*
G36*
G01*
X179030000Y-83105000D02*
X179030000Y-82655000D01*
G75*
G02*
X179255000Y-82430000I225000J0D01*
G01*
X179705000Y-82430000D01*
G75*
G02*
X179930000Y-82655000I0J-225000D01*
G01*
X179930000Y-83105000D01*
G75*
G02*
X179705000Y-83330000I-225000J0D01*
G01*
X179255000Y-83330000D01*
G75*
G02*
X179030000Y-83105000I0J225000D01*
G01*
G37*
G36*
G01*
X178975000Y-81887500D02*
X178975000Y-81212500D01*
G75*
G02*
X179037500Y-81150000I62500J0D01*
G01*
X179162500Y-81150000D01*
G75*
G02*
X179225000Y-81212500I0J-62500D01*
G01*
X179225000Y-81887500D01*
G75*
G02*
X179162500Y-81950000I-62500J0D01*
G01*
X179037500Y-81950000D01*
G75*
G02*
X178975000Y-81887500I0J62500D01*
G01*
G37*
G36*
G01*
X179475000Y-81887500D02*
X179475000Y-81212500D01*
G75*
G02*
X179537500Y-81150000I62500J0D01*
G01*
X179662500Y-81150000D01*
G75*
G02*
X179725000Y-81212500I0J-62500D01*
G01*
X179725000Y-81887500D01*
G75*
G02*
X179662500Y-81950000I-62500J0D01*
G01*
X179537500Y-81950000D01*
G75*
G02*
X179475000Y-81887500I0J62500D01*
G01*
G37*
G36*
G01*
X179975000Y-81887500D02*
X179975000Y-81212500D01*
G75*
G02*
X180037500Y-81150000I62500J0D01*
G01*
X180162500Y-81150000D01*
G75*
G02*
X180225000Y-81212500I0J-62500D01*
G01*
X180225000Y-81887500D01*
G75*
G02*
X180162500Y-81950000I-62500J0D01*
G01*
X180037500Y-81950000D01*
G75*
G02*
X179975000Y-81887500I0J62500D01*
G01*
G37*
G36*
G01*
X180475000Y-81887500D02*
X180475000Y-81212500D01*
G75*
G02*
X180537500Y-81150000I62500J0D01*
G01*
X180662500Y-81150000D01*
G75*
G02*
X180725000Y-81212500I0J-62500D01*
G01*
X180725000Y-81887500D01*
G75*
G02*
X180662500Y-81950000I-62500J0D01*
G01*
X180537500Y-81950000D01*
G75*
G02*
X180475000Y-81887500I0J62500D01*
G01*
G37*
G36*
G01*
X180975000Y-81887500D02*
X180975000Y-81212500D01*
G75*
G02*
X181037500Y-81150000I62500J0D01*
G01*
X181162500Y-81150000D01*
G75*
G02*
X181225000Y-81212500I0J-62500D01*
G01*
X181225000Y-81887500D01*
G75*
G02*
X181162500Y-81950000I-62500J0D01*
G01*
X181037500Y-81950000D01*
G75*
G02*
X180975000Y-81887500I0J62500D01*
G01*
G37*
G36*
G01*
X181475000Y-81887500D02*
X181475000Y-81212500D01*
G75*
G02*
X181537500Y-81150000I62500J0D01*
G01*
X181662500Y-81150000D01*
G75*
G02*
X181725000Y-81212500I0J-62500D01*
G01*
X181725000Y-81887500D01*
G75*
G02*
X181662500Y-81950000I-62500J0D01*
G01*
X181537500Y-81950000D01*
G75*
G02*
X181475000Y-81887500I0J62500D01*
G01*
G37*
G36*
G01*
X181975000Y-81887500D02*
X181975000Y-81212500D01*
G75*
G02*
X182037500Y-81150000I62500J0D01*
G01*
X182162500Y-81150000D01*
G75*
G02*
X182225000Y-81212500I0J-62500D01*
G01*
X182225000Y-81887500D01*
G75*
G02*
X182162500Y-81950000I-62500J0D01*
G01*
X182037500Y-81950000D01*
G75*
G02*
X181975000Y-81887500I0J62500D01*
G01*
G37*
G36*
G01*
X182650000Y-82562500D02*
X182650000Y-82437500D01*
G75*
G02*
X182712500Y-82375000I62500J0D01*
G01*
X183387500Y-82375000D01*
G75*
G02*
X183450000Y-82437500I0J-62500D01*
G01*
X183450000Y-82562500D01*
G75*
G02*
X183387500Y-82625000I-62500J0D01*
G01*
X182712500Y-82625000D01*
G75*
G02*
X182650000Y-82562500I0J62500D01*
G01*
G37*
G36*
G01*
X182650000Y-83062500D02*
X182650000Y-82937500D01*
G75*
G02*
X182712500Y-82875000I62500J0D01*
G01*
X183387500Y-82875000D01*
G75*
G02*
X183450000Y-82937500I0J-62500D01*
G01*
X183450000Y-83062500D01*
G75*
G02*
X183387500Y-83125000I-62500J0D01*
G01*
X182712500Y-83125000D01*
G75*
G02*
X182650000Y-83062500I0J62500D01*
G01*
G37*
G36*
G01*
X182650000Y-83562500D02*
X182650000Y-83437500D01*
G75*
G02*
X182712500Y-83375000I62500J0D01*
G01*
X183387500Y-83375000D01*
G75*
G02*
X183450000Y-83437500I0J-62500D01*
G01*
X183450000Y-83562500D01*
G75*
G02*
X183387500Y-83625000I-62500J0D01*
G01*
X182712500Y-83625000D01*
G75*
G02*
X182650000Y-83562500I0J62500D01*
G01*
G37*
G36*
G01*
X182650000Y-84062500D02*
X182650000Y-83937500D01*
G75*
G02*
X182712500Y-83875000I62500J0D01*
G01*
X183387500Y-83875000D01*
G75*
G02*
X183450000Y-83937500I0J-62500D01*
G01*
X183450000Y-84062500D01*
G75*
G02*
X183387500Y-84125000I-62500J0D01*
G01*
X182712500Y-84125000D01*
G75*
G02*
X182650000Y-84062500I0J62500D01*
G01*
G37*
G36*
G01*
X182650000Y-84562500D02*
X182650000Y-84437500D01*
G75*
G02*
X182712500Y-84375000I62500J0D01*
G01*
X183387500Y-84375000D01*
G75*
G02*
X183450000Y-84437500I0J-62500D01*
G01*
X183450000Y-84562500D01*
G75*
G02*
X183387500Y-84625000I-62500J0D01*
G01*
X182712500Y-84625000D01*
G75*
G02*
X182650000Y-84562500I0J62500D01*
G01*
G37*
G36*
G01*
X182650000Y-85062500D02*
X182650000Y-84937500D01*
G75*
G02*
X182712500Y-84875000I62500J0D01*
G01*
X183387500Y-84875000D01*
G75*
G02*
X183450000Y-84937500I0J-62500D01*
G01*
X183450000Y-85062500D01*
G75*
G02*
X183387500Y-85125000I-62500J0D01*
G01*
X182712500Y-85125000D01*
G75*
G02*
X182650000Y-85062500I0J62500D01*
G01*
G37*
G36*
G01*
X182650000Y-85562500D02*
X182650000Y-85437500D01*
G75*
G02*
X182712500Y-85375000I62500J0D01*
G01*
X183387500Y-85375000D01*
G75*
G02*
X183450000Y-85437500I0J-62500D01*
G01*
X183450000Y-85562500D01*
G75*
G02*
X183387500Y-85625000I-62500J0D01*
G01*
X182712500Y-85625000D01*
G75*
G02*
X182650000Y-85562500I0J62500D01*
G01*
G37*
G36*
G01*
X181975000Y-86787500D02*
X181975000Y-86112500D01*
G75*
G02*
X182037500Y-86050000I62500J0D01*
G01*
X182162500Y-86050000D01*
G75*
G02*
X182225000Y-86112500I0J-62500D01*
G01*
X182225000Y-86787500D01*
G75*
G02*
X182162500Y-86850000I-62500J0D01*
G01*
X182037500Y-86850000D01*
G75*
G02*
X181975000Y-86787500I0J62500D01*
G01*
G37*
G36*
G01*
X181475000Y-86787500D02*
X181475000Y-86112500D01*
G75*
G02*
X181537500Y-86050000I62500J0D01*
G01*
X181662500Y-86050000D01*
G75*
G02*
X181725000Y-86112500I0J-62500D01*
G01*
X181725000Y-86787500D01*
G75*
G02*
X181662500Y-86850000I-62500J0D01*
G01*
X181537500Y-86850000D01*
G75*
G02*
X181475000Y-86787500I0J62500D01*
G01*
G37*
G36*
G01*
X180975000Y-86787500D02*
X180975000Y-86112500D01*
G75*
G02*
X181037500Y-86050000I62500J0D01*
G01*
X181162500Y-86050000D01*
G75*
G02*
X181225000Y-86112500I0J-62500D01*
G01*
X181225000Y-86787500D01*
G75*
G02*
X181162500Y-86850000I-62500J0D01*
G01*
X181037500Y-86850000D01*
G75*
G02*
X180975000Y-86787500I0J62500D01*
G01*
G37*
G36*
G01*
X180475000Y-86787500D02*
X180475000Y-86112500D01*
G75*
G02*
X180537500Y-86050000I62500J0D01*
G01*
X180662500Y-86050000D01*
G75*
G02*
X180725000Y-86112500I0J-62500D01*
G01*
X180725000Y-86787500D01*
G75*
G02*
X180662500Y-86850000I-62500J0D01*
G01*
X180537500Y-86850000D01*
G75*
G02*
X180475000Y-86787500I0J62500D01*
G01*
G37*
G36*
G01*
X179975000Y-86787500D02*
X179975000Y-86112500D01*
G75*
G02*
X180037500Y-86050000I62500J0D01*
G01*
X180162500Y-86050000D01*
G75*
G02*
X180225000Y-86112500I0J-62500D01*
G01*
X180225000Y-86787500D01*
G75*
G02*
X180162500Y-86850000I-62500J0D01*
G01*
X180037500Y-86850000D01*
G75*
G02*
X179975000Y-86787500I0J62500D01*
G01*
G37*
G36*
G01*
X179475000Y-86787500D02*
X179475000Y-86112500D01*
G75*
G02*
X179537500Y-86050000I62500J0D01*
G01*
X179662500Y-86050000D01*
G75*
G02*
X179725000Y-86112500I0J-62500D01*
G01*
X179725000Y-86787500D01*
G75*
G02*
X179662500Y-86850000I-62500J0D01*
G01*
X179537500Y-86850000D01*
G75*
G02*
X179475000Y-86787500I0J62500D01*
G01*
G37*
G36*
G01*
X178975000Y-86787500D02*
X178975000Y-86112500D01*
G75*
G02*
X179037500Y-86050000I62500J0D01*
G01*
X179162500Y-86050000D01*
G75*
G02*
X179225000Y-86112500I0J-62500D01*
G01*
X179225000Y-86787500D01*
G75*
G02*
X179162500Y-86850000I-62500J0D01*
G01*
X179037500Y-86850000D01*
G75*
G02*
X178975000Y-86787500I0J62500D01*
G01*
G37*
G36*
G01*
X177750000Y-85562500D02*
X177750000Y-85437500D01*
G75*
G02*
X177812500Y-85375000I62500J0D01*
G01*
X178487500Y-85375000D01*
G75*
G02*
X178550000Y-85437500I0J-62500D01*
G01*
X178550000Y-85562500D01*
G75*
G02*
X178487500Y-85625000I-62500J0D01*
G01*
X177812500Y-85625000D01*
G75*
G02*
X177750000Y-85562500I0J62500D01*
G01*
G37*
G36*
G01*
X177750000Y-85062500D02*
X177750000Y-84937500D01*
G75*
G02*
X177812500Y-84875000I62500J0D01*
G01*
X178487500Y-84875000D01*
G75*
G02*
X178550000Y-84937500I0J-62500D01*
G01*
X178550000Y-85062500D01*
G75*
G02*
X178487500Y-85125000I-62500J0D01*
G01*
X177812500Y-85125000D01*
G75*
G02*
X177750000Y-85062500I0J62500D01*
G01*
G37*
G36*
G01*
X177750000Y-84562500D02*
X177750000Y-84437500D01*
G75*
G02*
X177812500Y-84375000I62500J0D01*
G01*
X178487500Y-84375000D01*
G75*
G02*
X178550000Y-84437500I0J-62500D01*
G01*
X178550000Y-84562500D01*
G75*
G02*
X178487500Y-84625000I-62500J0D01*
G01*
X177812500Y-84625000D01*
G75*
G02*
X177750000Y-84562500I0J62500D01*
G01*
G37*
G36*
G01*
X177750000Y-84062500D02*
X177750000Y-83937500D01*
G75*
G02*
X177812500Y-83875000I62500J0D01*
G01*
X178487500Y-83875000D01*
G75*
G02*
X178550000Y-83937500I0J-62500D01*
G01*
X178550000Y-84062500D01*
G75*
G02*
X178487500Y-84125000I-62500J0D01*
G01*
X177812500Y-84125000D01*
G75*
G02*
X177750000Y-84062500I0J62500D01*
G01*
G37*
G36*
G01*
X177750000Y-83562500D02*
X177750000Y-83437500D01*
G75*
G02*
X177812500Y-83375000I62500J0D01*
G01*
X178487500Y-83375000D01*
G75*
G02*
X178550000Y-83437500I0J-62500D01*
G01*
X178550000Y-83562500D01*
G75*
G02*
X178487500Y-83625000I-62500J0D01*
G01*
X177812500Y-83625000D01*
G75*
G02*
X177750000Y-83562500I0J62500D01*
G01*
G37*
G36*
G01*
X177750000Y-83062500D02*
X177750000Y-82937500D01*
G75*
G02*
X177812500Y-82875000I62500J0D01*
G01*
X178487500Y-82875000D01*
G75*
G02*
X178550000Y-82937500I0J-62500D01*
G01*
X178550000Y-83062500D01*
G75*
G02*
X178487500Y-83125000I-62500J0D01*
G01*
X177812500Y-83125000D01*
G75*
G02*
X177750000Y-83062500I0J62500D01*
G01*
G37*
G36*
G01*
X177750000Y-82562500D02*
X177750000Y-82437500D01*
G75*
G02*
X177812500Y-82375000I62500J0D01*
G01*
X178487500Y-82375000D01*
G75*
G02*
X178550000Y-82437500I0J-62500D01*
G01*
X178550000Y-82562500D01*
G75*
G02*
X178487500Y-82625000I-62500J0D01*
G01*
X177812500Y-82625000D01*
G75*
G02*
X177750000Y-82562500I0J62500D01*
G01*
G37*
%TD*%
%TO.C,U2*%
G36*
G01*
X167625000Y-104895000D02*
X167625000Y-104595000D01*
G75*
G02*
X167775000Y-104445000I150000J0D01*
G01*
X169525000Y-104445000D01*
G75*
G02*
X169675000Y-104595000I0J-150000D01*
G01*
X169675000Y-104895000D01*
G75*
G02*
X169525000Y-105045000I-150000J0D01*
G01*
X167775000Y-105045000D01*
G75*
G02*
X167625000Y-104895000I0J150000D01*
G01*
G37*
G36*
G01*
X167625000Y-106165000D02*
X167625000Y-105865000D01*
G75*
G02*
X167775000Y-105715000I150000J0D01*
G01*
X169525000Y-105715000D01*
G75*
G02*
X169675000Y-105865000I0J-150000D01*
G01*
X169675000Y-106165000D01*
G75*
G02*
X169525000Y-106315000I-150000J0D01*
G01*
X167775000Y-106315000D01*
G75*
G02*
X167625000Y-106165000I0J150000D01*
G01*
G37*
G36*
G01*
X167625000Y-107435000D02*
X167625000Y-107135000D01*
G75*
G02*
X167775000Y-106985000I150000J0D01*
G01*
X169525000Y-106985000D01*
G75*
G02*
X169675000Y-107135000I0J-150000D01*
G01*
X169675000Y-107435000D01*
G75*
G02*
X169525000Y-107585000I-150000J0D01*
G01*
X167775000Y-107585000D01*
G75*
G02*
X167625000Y-107435000I0J150000D01*
G01*
G37*
G36*
G01*
X167625000Y-108705000D02*
X167625000Y-108405000D01*
G75*
G02*
X167775000Y-108255000I150000J0D01*
G01*
X169525000Y-108255000D01*
G75*
G02*
X169675000Y-108405000I0J-150000D01*
G01*
X169675000Y-108705000D01*
G75*
G02*
X169525000Y-108855000I-150000J0D01*
G01*
X167775000Y-108855000D01*
G75*
G02*
X167625000Y-108705000I0J150000D01*
G01*
G37*
G36*
G01*
X167625000Y-109975000D02*
X167625000Y-109675000D01*
G75*
G02*
X167775000Y-109525000I150000J0D01*
G01*
X169525000Y-109525000D01*
G75*
G02*
X169675000Y-109675000I0J-150000D01*
G01*
X169675000Y-109975000D01*
G75*
G02*
X169525000Y-110125000I-150000J0D01*
G01*
X167775000Y-110125000D01*
G75*
G02*
X167625000Y-109975000I0J150000D01*
G01*
G37*
G36*
G01*
X167625000Y-111245000D02*
X167625000Y-110945000D01*
G75*
G02*
X167775000Y-110795000I150000J0D01*
G01*
X169525000Y-110795000D01*
G75*
G02*
X169675000Y-110945000I0J-150000D01*
G01*
X169675000Y-111245000D01*
G75*
G02*
X169525000Y-111395000I-150000J0D01*
G01*
X167775000Y-111395000D01*
G75*
G02*
X167625000Y-111245000I0J150000D01*
G01*
G37*
G36*
G01*
X167625000Y-112515000D02*
X167625000Y-112215000D01*
G75*
G02*
X167775000Y-112065000I150000J0D01*
G01*
X169525000Y-112065000D01*
G75*
G02*
X169675000Y-112215000I0J-150000D01*
G01*
X169675000Y-112515000D01*
G75*
G02*
X169525000Y-112665000I-150000J0D01*
G01*
X167775000Y-112665000D01*
G75*
G02*
X167625000Y-112515000I0J150000D01*
G01*
G37*
G36*
G01*
X167625000Y-113785000D02*
X167625000Y-113485000D01*
G75*
G02*
X167775000Y-113335000I150000J0D01*
G01*
X169525000Y-113335000D01*
G75*
G02*
X169675000Y-113485000I0J-150000D01*
G01*
X169675000Y-113785000D01*
G75*
G02*
X169525000Y-113935000I-150000J0D01*
G01*
X167775000Y-113935000D01*
G75*
G02*
X167625000Y-113785000I0J150000D01*
G01*
G37*
G36*
G01*
X167625000Y-115055000D02*
X167625000Y-114755000D01*
G75*
G02*
X167775000Y-114605000I150000J0D01*
G01*
X169525000Y-114605000D01*
G75*
G02*
X169675000Y-114755000I0J-150000D01*
G01*
X169675000Y-115055000D01*
G75*
G02*
X169525000Y-115205000I-150000J0D01*
G01*
X167775000Y-115205000D01*
G75*
G02*
X167625000Y-115055000I0J150000D01*
G01*
G37*
G36*
G01*
X167625000Y-116325000D02*
X167625000Y-116025000D01*
G75*
G02*
X167775000Y-115875000I150000J0D01*
G01*
X169525000Y-115875000D01*
G75*
G02*
X169675000Y-116025000I0J-150000D01*
G01*
X169675000Y-116325000D01*
G75*
G02*
X169525000Y-116475000I-150000J0D01*
G01*
X167775000Y-116475000D01*
G75*
G02*
X167625000Y-116325000I0J150000D01*
G01*
G37*
G36*
G01*
X167625000Y-117595000D02*
X167625000Y-117295000D01*
G75*
G02*
X167775000Y-117145000I150000J0D01*
G01*
X169525000Y-117145000D01*
G75*
G02*
X169675000Y-117295000I0J-150000D01*
G01*
X169675000Y-117595000D01*
G75*
G02*
X169525000Y-117745000I-150000J0D01*
G01*
X167775000Y-117745000D01*
G75*
G02*
X167625000Y-117595000I0J150000D01*
G01*
G37*
G36*
G01*
X167625000Y-118865000D02*
X167625000Y-118565000D01*
G75*
G02*
X167775000Y-118415000I150000J0D01*
G01*
X169525000Y-118415000D01*
G75*
G02*
X169675000Y-118565000I0J-150000D01*
G01*
X169675000Y-118865000D01*
G75*
G02*
X169525000Y-119015000I-150000J0D01*
G01*
X167775000Y-119015000D01*
G75*
G02*
X167625000Y-118865000I0J150000D01*
G01*
G37*
G36*
G01*
X167625000Y-120135000D02*
X167625000Y-119835000D01*
G75*
G02*
X167775000Y-119685000I150000J0D01*
G01*
X169525000Y-119685000D01*
G75*
G02*
X169675000Y-119835000I0J-150000D01*
G01*
X169675000Y-120135000D01*
G75*
G02*
X169525000Y-120285000I-150000J0D01*
G01*
X167775000Y-120285000D01*
G75*
G02*
X167625000Y-120135000I0J150000D01*
G01*
G37*
G36*
G01*
X167625000Y-121405000D02*
X167625000Y-121105000D01*
G75*
G02*
X167775000Y-120955000I150000J0D01*
G01*
X169525000Y-120955000D01*
G75*
G02*
X169675000Y-121105000I0J-150000D01*
G01*
X169675000Y-121405000D01*
G75*
G02*
X169525000Y-121555000I-150000J0D01*
G01*
X167775000Y-121555000D01*
G75*
G02*
X167625000Y-121405000I0J150000D01*
G01*
G37*
G36*
G01*
X158325000Y-121405000D02*
X158325000Y-121105000D01*
G75*
G02*
X158475000Y-120955000I150000J0D01*
G01*
X160225000Y-120955000D01*
G75*
G02*
X160375000Y-121105000I0J-150000D01*
G01*
X160375000Y-121405000D01*
G75*
G02*
X160225000Y-121555000I-150000J0D01*
G01*
X158475000Y-121555000D01*
G75*
G02*
X158325000Y-121405000I0J150000D01*
G01*
G37*
G36*
G01*
X158325000Y-120135000D02*
X158325000Y-119835000D01*
G75*
G02*
X158475000Y-119685000I150000J0D01*
G01*
X160225000Y-119685000D01*
G75*
G02*
X160375000Y-119835000I0J-150000D01*
G01*
X160375000Y-120135000D01*
G75*
G02*
X160225000Y-120285000I-150000J0D01*
G01*
X158475000Y-120285000D01*
G75*
G02*
X158325000Y-120135000I0J150000D01*
G01*
G37*
G36*
G01*
X158325000Y-118865000D02*
X158325000Y-118565000D01*
G75*
G02*
X158475000Y-118415000I150000J0D01*
G01*
X160225000Y-118415000D01*
G75*
G02*
X160375000Y-118565000I0J-150000D01*
G01*
X160375000Y-118865000D01*
G75*
G02*
X160225000Y-119015000I-150000J0D01*
G01*
X158475000Y-119015000D01*
G75*
G02*
X158325000Y-118865000I0J150000D01*
G01*
G37*
G36*
G01*
X158325000Y-117595000D02*
X158325000Y-117295000D01*
G75*
G02*
X158475000Y-117145000I150000J0D01*
G01*
X160225000Y-117145000D01*
G75*
G02*
X160375000Y-117295000I0J-150000D01*
G01*
X160375000Y-117595000D01*
G75*
G02*
X160225000Y-117745000I-150000J0D01*
G01*
X158475000Y-117745000D01*
G75*
G02*
X158325000Y-117595000I0J150000D01*
G01*
G37*
G36*
G01*
X158325000Y-116325000D02*
X158325000Y-116025000D01*
G75*
G02*
X158475000Y-115875000I150000J0D01*
G01*
X160225000Y-115875000D01*
G75*
G02*
X160375000Y-116025000I0J-150000D01*
G01*
X160375000Y-116325000D01*
G75*
G02*
X160225000Y-116475000I-150000J0D01*
G01*
X158475000Y-116475000D01*
G75*
G02*
X158325000Y-116325000I0J150000D01*
G01*
G37*
G36*
G01*
X158325000Y-115055000D02*
X158325000Y-114755000D01*
G75*
G02*
X158475000Y-114605000I150000J0D01*
G01*
X160225000Y-114605000D01*
G75*
G02*
X160375000Y-114755000I0J-150000D01*
G01*
X160375000Y-115055000D01*
G75*
G02*
X160225000Y-115205000I-150000J0D01*
G01*
X158475000Y-115205000D01*
G75*
G02*
X158325000Y-115055000I0J150000D01*
G01*
G37*
G36*
G01*
X158325000Y-113785000D02*
X158325000Y-113485000D01*
G75*
G02*
X158475000Y-113335000I150000J0D01*
G01*
X160225000Y-113335000D01*
G75*
G02*
X160375000Y-113485000I0J-150000D01*
G01*
X160375000Y-113785000D01*
G75*
G02*
X160225000Y-113935000I-150000J0D01*
G01*
X158475000Y-113935000D01*
G75*
G02*
X158325000Y-113785000I0J150000D01*
G01*
G37*
G36*
G01*
X158325000Y-112515000D02*
X158325000Y-112215000D01*
G75*
G02*
X158475000Y-112065000I150000J0D01*
G01*
X160225000Y-112065000D01*
G75*
G02*
X160375000Y-112215000I0J-150000D01*
G01*
X160375000Y-112515000D01*
G75*
G02*
X160225000Y-112665000I-150000J0D01*
G01*
X158475000Y-112665000D01*
G75*
G02*
X158325000Y-112515000I0J150000D01*
G01*
G37*
G36*
G01*
X158325000Y-111245000D02*
X158325000Y-110945000D01*
G75*
G02*
X158475000Y-110795000I150000J0D01*
G01*
X160225000Y-110795000D01*
G75*
G02*
X160375000Y-110945000I0J-150000D01*
G01*
X160375000Y-111245000D01*
G75*
G02*
X160225000Y-111395000I-150000J0D01*
G01*
X158475000Y-111395000D01*
G75*
G02*
X158325000Y-111245000I0J150000D01*
G01*
G37*
G36*
G01*
X158325000Y-109975000D02*
X158325000Y-109675000D01*
G75*
G02*
X158475000Y-109525000I150000J0D01*
G01*
X160225000Y-109525000D01*
G75*
G02*
X160375000Y-109675000I0J-150000D01*
G01*
X160375000Y-109975000D01*
G75*
G02*
X160225000Y-110125000I-150000J0D01*
G01*
X158475000Y-110125000D01*
G75*
G02*
X158325000Y-109975000I0J150000D01*
G01*
G37*
G36*
G01*
X158325000Y-108705000D02*
X158325000Y-108405000D01*
G75*
G02*
X158475000Y-108255000I150000J0D01*
G01*
X160225000Y-108255000D01*
G75*
G02*
X160375000Y-108405000I0J-150000D01*
G01*
X160375000Y-108705000D01*
G75*
G02*
X160225000Y-108855000I-150000J0D01*
G01*
X158475000Y-108855000D01*
G75*
G02*
X158325000Y-108705000I0J150000D01*
G01*
G37*
G36*
G01*
X158325000Y-107435000D02*
X158325000Y-107135000D01*
G75*
G02*
X158475000Y-106985000I150000J0D01*
G01*
X160225000Y-106985000D01*
G75*
G02*
X160375000Y-107135000I0J-150000D01*
G01*
X160375000Y-107435000D01*
G75*
G02*
X160225000Y-107585000I-150000J0D01*
G01*
X158475000Y-107585000D01*
G75*
G02*
X158325000Y-107435000I0J150000D01*
G01*
G37*
G36*
G01*
X158325000Y-106165000D02*
X158325000Y-105865000D01*
G75*
G02*
X158475000Y-105715000I150000J0D01*
G01*
X160225000Y-105715000D01*
G75*
G02*
X160375000Y-105865000I0J-150000D01*
G01*
X160375000Y-106165000D01*
G75*
G02*
X160225000Y-106315000I-150000J0D01*
G01*
X158475000Y-106315000D01*
G75*
G02*
X158325000Y-106165000I0J150000D01*
G01*
G37*
G36*
G01*
X158325000Y-104895000D02*
X158325000Y-104595000D01*
G75*
G02*
X158475000Y-104445000I150000J0D01*
G01*
X160225000Y-104445000D01*
G75*
G02*
X160375000Y-104595000I0J-150000D01*
G01*
X160375000Y-104895000D01*
G75*
G02*
X160225000Y-105045000I-150000J0D01*
G01*
X158475000Y-105045000D01*
G75*
G02*
X158325000Y-104895000I0J150000D01*
G01*
G37*
%TD*%
D23*
%TO.C,SW12*%
X150400000Y-128000000D03*
X142200000Y-128000000D03*
%TD*%
%TO.C,SW11*%
X86400000Y-128100000D03*
X78200000Y-128100000D03*
%TD*%
%TO.C,R31*%
G36*
G01*
X86470000Y-125415000D02*
X86470000Y-125785000D01*
G75*
G02*
X86335000Y-125920000I-135000J0D01*
G01*
X86065000Y-125920000D01*
G75*
G02*
X85930000Y-125785000I0J135000D01*
G01*
X85930000Y-125415000D01*
G75*
G02*
X86065000Y-125280000I135000J0D01*
G01*
X86335000Y-125280000D01*
G75*
G02*
X86470000Y-125415000I0J-135000D01*
G01*
G37*
G36*
G01*
X87490000Y-125415000D02*
X87490000Y-125785000D01*
G75*
G02*
X87355000Y-125920000I-135000J0D01*
G01*
X87085000Y-125920000D01*
G75*
G02*
X86950000Y-125785000I0J135000D01*
G01*
X86950000Y-125415000D01*
G75*
G02*
X87085000Y-125280000I135000J0D01*
G01*
X87355000Y-125280000D01*
G75*
G02*
X87490000Y-125415000I0J-135000D01*
G01*
G37*
%TD*%
%TO.C,R30*%
G36*
G01*
X168910000Y-125515000D02*
X168910000Y-125885000D01*
G75*
G02*
X168775000Y-126020000I-135000J0D01*
G01*
X168505000Y-126020000D01*
G75*
G02*
X168370000Y-125885000I0J135000D01*
G01*
X168370000Y-125515000D01*
G75*
G02*
X168505000Y-125380000I135000J0D01*
G01*
X168775000Y-125380000D01*
G75*
G02*
X168910000Y-125515000I0J-135000D01*
G01*
G37*
G36*
G01*
X169930000Y-125515000D02*
X169930000Y-125885000D01*
G75*
G02*
X169795000Y-126020000I-135000J0D01*
G01*
X169525000Y-126020000D01*
G75*
G02*
X169390000Y-125885000I0J135000D01*
G01*
X169390000Y-125515000D01*
G75*
G02*
X169525000Y-125380000I135000J0D01*
G01*
X169795000Y-125380000D01*
G75*
G02*
X169930000Y-125515000I0J-135000D01*
G01*
G37*
%TD*%
%TO.C,R29*%
G36*
G01*
X168910000Y-123265000D02*
X168910000Y-123635000D01*
G75*
G02*
X168775000Y-123770000I-135000J0D01*
G01*
X168505000Y-123770000D01*
G75*
G02*
X168370000Y-123635000I0J135000D01*
G01*
X168370000Y-123265000D01*
G75*
G02*
X168505000Y-123130000I135000J0D01*
G01*
X168775000Y-123130000D01*
G75*
G02*
X168910000Y-123265000I0J-135000D01*
G01*
G37*
G36*
G01*
X169930000Y-123265000D02*
X169930000Y-123635000D01*
G75*
G02*
X169795000Y-123770000I-135000J0D01*
G01*
X169525000Y-123770000D01*
G75*
G02*
X169390000Y-123635000I0J135000D01*
G01*
X169390000Y-123265000D01*
G75*
G02*
X169525000Y-123130000I135000J0D01*
G01*
X169795000Y-123130000D01*
G75*
G02*
X169930000Y-123265000I0J-135000D01*
G01*
G37*
%TD*%
%TO.C,R28*%
G36*
G01*
X166670000Y-126015000D02*
X166670000Y-126385000D01*
G75*
G02*
X166535000Y-126520000I-135000J0D01*
G01*
X166265000Y-126520000D01*
G75*
G02*
X166130000Y-126385000I0J135000D01*
G01*
X166130000Y-126015000D01*
G75*
G02*
X166265000Y-125880000I135000J0D01*
G01*
X166535000Y-125880000D01*
G75*
G02*
X166670000Y-126015000I0J-135000D01*
G01*
G37*
G36*
G01*
X167690000Y-126015000D02*
X167690000Y-126385000D01*
G75*
G02*
X167555000Y-126520000I-135000J0D01*
G01*
X167285000Y-126520000D01*
G75*
G02*
X167150000Y-126385000I0J135000D01*
G01*
X167150000Y-126015000D01*
G75*
G02*
X167285000Y-125880000I135000J0D01*
G01*
X167555000Y-125880000D01*
G75*
G02*
X167690000Y-126015000I0J-135000D01*
G01*
G37*
%TD*%
%TO.C,R27*%
G36*
G01*
X166660000Y-124765000D02*
X166660000Y-125135000D01*
G75*
G02*
X166525000Y-125270000I-135000J0D01*
G01*
X166255000Y-125270000D01*
G75*
G02*
X166120000Y-125135000I0J135000D01*
G01*
X166120000Y-124765000D01*
G75*
G02*
X166255000Y-124630000I135000J0D01*
G01*
X166525000Y-124630000D01*
G75*
G02*
X166660000Y-124765000I0J-135000D01*
G01*
G37*
G36*
G01*
X167680000Y-124765000D02*
X167680000Y-125135000D01*
G75*
G02*
X167545000Y-125270000I-135000J0D01*
G01*
X167275000Y-125270000D01*
G75*
G02*
X167140000Y-125135000I0J135000D01*
G01*
X167140000Y-124765000D01*
G75*
G02*
X167275000Y-124630000I135000J0D01*
G01*
X167545000Y-124630000D01*
G75*
G02*
X167680000Y-124765000I0J-135000D01*
G01*
G37*
%TD*%
%TO.C,R23*%
G36*
G01*
X170565000Y-88480000D02*
X170935000Y-88480000D01*
G75*
G02*
X171070000Y-88615000I0J-135000D01*
G01*
X171070000Y-88885000D01*
G75*
G02*
X170935000Y-89020000I-135000J0D01*
G01*
X170565000Y-89020000D01*
G75*
G02*
X170430000Y-88885000I0J135000D01*
G01*
X170430000Y-88615000D01*
G75*
G02*
X170565000Y-88480000I135000J0D01*
G01*
G37*
G36*
G01*
X170565000Y-87460000D02*
X170935000Y-87460000D01*
G75*
G02*
X171070000Y-87595000I0J-135000D01*
G01*
X171070000Y-87865000D01*
G75*
G02*
X170935000Y-88000000I-135000J0D01*
G01*
X170565000Y-88000000D01*
G75*
G02*
X170430000Y-87865000I0J135000D01*
G01*
X170430000Y-87595000D01*
G75*
G02*
X170565000Y-87460000I135000J0D01*
G01*
G37*
%TD*%
%TO.C,R22*%
G36*
G01*
X157815000Y-76240000D02*
X158185000Y-76240000D01*
G75*
G02*
X158320000Y-76375000I0J-135000D01*
G01*
X158320000Y-76645000D01*
G75*
G02*
X158185000Y-76780000I-135000J0D01*
G01*
X157815000Y-76780000D01*
G75*
G02*
X157680000Y-76645000I0J135000D01*
G01*
X157680000Y-76375000D01*
G75*
G02*
X157815000Y-76240000I135000J0D01*
G01*
G37*
G36*
G01*
X157815000Y-75220000D02*
X158185000Y-75220000D01*
G75*
G02*
X158320000Y-75355000I0J-135000D01*
G01*
X158320000Y-75625000D01*
G75*
G02*
X158185000Y-75760000I-135000J0D01*
G01*
X157815000Y-75760000D01*
G75*
G02*
X157680000Y-75625000I0J135000D01*
G01*
X157680000Y-75355000D01*
G75*
G02*
X157815000Y-75220000I135000J0D01*
G01*
G37*
%TD*%
%TO.C,R21*%
G36*
G01*
X156010000Y-75315000D02*
X156010000Y-75685000D01*
G75*
G02*
X155875000Y-75820000I-135000J0D01*
G01*
X155605000Y-75820000D01*
G75*
G02*
X155470000Y-75685000I0J135000D01*
G01*
X155470000Y-75315000D01*
G75*
G02*
X155605000Y-75180000I135000J0D01*
G01*
X155875000Y-75180000D01*
G75*
G02*
X156010000Y-75315000I0J-135000D01*
G01*
G37*
G36*
G01*
X157030000Y-75315000D02*
X157030000Y-75685000D01*
G75*
G02*
X156895000Y-75820000I-135000J0D01*
G01*
X156625000Y-75820000D01*
G75*
G02*
X156490000Y-75685000I0J135000D01*
G01*
X156490000Y-75315000D01*
G75*
G02*
X156625000Y-75180000I135000J0D01*
G01*
X156895000Y-75180000D01*
G75*
G02*
X157030000Y-75315000I0J-135000D01*
G01*
G37*
%TD*%
%TO.C,R20*%
G36*
G01*
X140935000Y-103050000D02*
X140565000Y-103050000D01*
G75*
G02*
X140430000Y-102915000I0J135000D01*
G01*
X140430000Y-102645000D01*
G75*
G02*
X140565000Y-102510000I135000J0D01*
G01*
X140935000Y-102510000D01*
G75*
G02*
X141070000Y-102645000I0J-135000D01*
G01*
X141070000Y-102915000D01*
G75*
G02*
X140935000Y-103050000I-135000J0D01*
G01*
G37*
G36*
G01*
X140935000Y-104070000D02*
X140565000Y-104070000D01*
G75*
G02*
X140430000Y-103935000I0J135000D01*
G01*
X140430000Y-103665000D01*
G75*
G02*
X140565000Y-103530000I135000J0D01*
G01*
X140935000Y-103530000D01*
G75*
G02*
X141070000Y-103665000I0J-135000D01*
G01*
X141070000Y-103935000D01*
G75*
G02*
X140935000Y-104070000I-135000J0D01*
G01*
G37*
%TD*%
%TO.C,R19*%
G36*
G01*
X141760000Y-108415000D02*
X141760000Y-108785000D01*
G75*
G02*
X141625000Y-108920000I-135000J0D01*
G01*
X141355000Y-108920000D01*
G75*
G02*
X141220000Y-108785000I0J135000D01*
G01*
X141220000Y-108415000D01*
G75*
G02*
X141355000Y-108280000I135000J0D01*
G01*
X141625000Y-108280000D01*
G75*
G02*
X141760000Y-108415000I0J-135000D01*
G01*
G37*
G36*
G01*
X142780000Y-108415000D02*
X142780000Y-108785000D01*
G75*
G02*
X142645000Y-108920000I-135000J0D01*
G01*
X142375000Y-108920000D01*
G75*
G02*
X142240000Y-108785000I0J135000D01*
G01*
X142240000Y-108415000D01*
G75*
G02*
X142375000Y-108280000I135000J0D01*
G01*
X142645000Y-108280000D01*
G75*
G02*
X142780000Y-108415000I0J-135000D01*
G01*
G37*
%TD*%
%TO.C,R18*%
G36*
G01*
X144240000Y-108785000D02*
X144240000Y-108415000D01*
G75*
G02*
X144375000Y-108280000I135000J0D01*
G01*
X144645000Y-108280000D01*
G75*
G02*
X144780000Y-108415000I0J-135000D01*
G01*
X144780000Y-108785000D01*
G75*
G02*
X144645000Y-108920000I-135000J0D01*
G01*
X144375000Y-108920000D01*
G75*
G02*
X144240000Y-108785000I0J135000D01*
G01*
G37*
G36*
G01*
X143220000Y-108785000D02*
X143220000Y-108415000D01*
G75*
G02*
X143355000Y-108280000I135000J0D01*
G01*
X143625000Y-108280000D01*
G75*
G02*
X143760000Y-108415000I0J-135000D01*
G01*
X143760000Y-108785000D01*
G75*
G02*
X143625000Y-108920000I-135000J0D01*
G01*
X143355000Y-108920000D01*
G75*
G02*
X143220000Y-108785000I0J135000D01*
G01*
G37*
%TD*%
%TO.C,R17*%
G36*
G01*
X143985000Y-100860000D02*
X143615000Y-100860000D01*
G75*
G02*
X143480000Y-100725000I0J135000D01*
G01*
X143480000Y-100455000D01*
G75*
G02*
X143615000Y-100320000I135000J0D01*
G01*
X143985000Y-100320000D01*
G75*
G02*
X144120000Y-100455000I0J-135000D01*
G01*
X144120000Y-100725000D01*
G75*
G02*
X143985000Y-100860000I-135000J0D01*
G01*
G37*
G36*
G01*
X143985000Y-101880000D02*
X143615000Y-101880000D01*
G75*
G02*
X143480000Y-101745000I0J135000D01*
G01*
X143480000Y-101475000D01*
G75*
G02*
X143615000Y-101340000I135000J0D01*
G01*
X143985000Y-101340000D01*
G75*
G02*
X144120000Y-101475000I0J-135000D01*
G01*
X144120000Y-101745000D01*
G75*
G02*
X143985000Y-101880000I-135000J0D01*
G01*
G37*
%TD*%
%TO.C,R16*%
G36*
G01*
X146015000Y-101330000D02*
X146385000Y-101330000D01*
G75*
G02*
X146520000Y-101465000I0J-135000D01*
G01*
X146520000Y-101735000D01*
G75*
G02*
X146385000Y-101870000I-135000J0D01*
G01*
X146015000Y-101870000D01*
G75*
G02*
X145880000Y-101735000I0J135000D01*
G01*
X145880000Y-101465000D01*
G75*
G02*
X146015000Y-101330000I135000J0D01*
G01*
G37*
G36*
G01*
X146015000Y-100310000D02*
X146385000Y-100310000D01*
G75*
G02*
X146520000Y-100445000I0J-135000D01*
G01*
X146520000Y-100715000D01*
G75*
G02*
X146385000Y-100850000I-135000J0D01*
G01*
X146015000Y-100850000D01*
G75*
G02*
X145880000Y-100715000I0J135000D01*
G01*
X145880000Y-100445000D01*
G75*
G02*
X146015000Y-100310000I135000J0D01*
G01*
G37*
%TD*%
%TO.C,R15*%
G36*
G01*
X145185000Y-100850000D02*
X144815000Y-100850000D01*
G75*
G02*
X144680000Y-100715000I0J135000D01*
G01*
X144680000Y-100445000D01*
G75*
G02*
X144815000Y-100310000I135000J0D01*
G01*
X145185000Y-100310000D01*
G75*
G02*
X145320000Y-100445000I0J-135000D01*
G01*
X145320000Y-100715000D01*
G75*
G02*
X145185000Y-100850000I-135000J0D01*
G01*
G37*
G36*
G01*
X145185000Y-101870000D02*
X144815000Y-101870000D01*
G75*
G02*
X144680000Y-101735000I0J135000D01*
G01*
X144680000Y-101465000D01*
G75*
G02*
X144815000Y-101330000I135000J0D01*
G01*
X145185000Y-101330000D01*
G75*
G02*
X145320000Y-101465000I0J-135000D01*
G01*
X145320000Y-101735000D01*
G75*
G02*
X145185000Y-101870000I-135000J0D01*
G01*
G37*
%TD*%
%TO.C,R11*%
G36*
G01*
X176435000Y-87760000D02*
X176065000Y-87760000D01*
G75*
G02*
X175930000Y-87625000I0J135000D01*
G01*
X175930000Y-87355000D01*
G75*
G02*
X176065000Y-87220000I135000J0D01*
G01*
X176435000Y-87220000D01*
G75*
G02*
X176570000Y-87355000I0J-135000D01*
G01*
X176570000Y-87625000D01*
G75*
G02*
X176435000Y-87760000I-135000J0D01*
G01*
G37*
G36*
G01*
X176435000Y-88780000D02*
X176065000Y-88780000D01*
G75*
G02*
X175930000Y-88645000I0J135000D01*
G01*
X175930000Y-88375000D01*
G75*
G02*
X176065000Y-88240000I135000J0D01*
G01*
X176435000Y-88240000D01*
G75*
G02*
X176570000Y-88375000I0J-135000D01*
G01*
X176570000Y-88645000D01*
G75*
G02*
X176435000Y-88780000I-135000J0D01*
G01*
G37*
%TD*%
%TO.C,R10*%
G36*
G01*
X181870000Y-80215000D02*
X181870000Y-80585000D01*
G75*
G02*
X181735000Y-80720000I-135000J0D01*
G01*
X181465000Y-80720000D01*
G75*
G02*
X181330000Y-80585000I0J135000D01*
G01*
X181330000Y-80215000D01*
G75*
G02*
X181465000Y-80080000I135000J0D01*
G01*
X181735000Y-80080000D01*
G75*
G02*
X181870000Y-80215000I0J-135000D01*
G01*
G37*
G36*
G01*
X182890000Y-80215000D02*
X182890000Y-80585000D01*
G75*
G02*
X182755000Y-80720000I-135000J0D01*
G01*
X182485000Y-80720000D01*
G75*
G02*
X182350000Y-80585000I0J135000D01*
G01*
X182350000Y-80215000D01*
G75*
G02*
X182485000Y-80080000I135000J0D01*
G01*
X182755000Y-80080000D01*
G75*
G02*
X182890000Y-80215000I0J-135000D01*
G01*
G37*
%TD*%
%TO.C,R9*%
G36*
G01*
X184760000Y-84565000D02*
X184760000Y-84935000D01*
G75*
G02*
X184625000Y-85070000I-135000J0D01*
G01*
X184355000Y-85070000D01*
G75*
G02*
X184220000Y-84935000I0J135000D01*
G01*
X184220000Y-84565000D01*
G75*
G02*
X184355000Y-84430000I135000J0D01*
G01*
X184625000Y-84430000D01*
G75*
G02*
X184760000Y-84565000I0J-135000D01*
G01*
G37*
G36*
G01*
X185780000Y-84565000D02*
X185780000Y-84935000D01*
G75*
G02*
X185645000Y-85070000I-135000J0D01*
G01*
X185375000Y-85070000D01*
G75*
G02*
X185240000Y-84935000I0J135000D01*
G01*
X185240000Y-84565000D01*
G75*
G02*
X185375000Y-84430000I135000J0D01*
G01*
X185645000Y-84430000D01*
G75*
G02*
X185780000Y-84565000I0J-135000D01*
G01*
G37*
%TD*%
%TO.C,R8*%
G36*
G01*
X219985000Y-125250000D02*
X219615000Y-125250000D01*
G75*
G02*
X219480000Y-125115000I0J135000D01*
G01*
X219480000Y-124845000D01*
G75*
G02*
X219615000Y-124710000I135000J0D01*
G01*
X219985000Y-124710000D01*
G75*
G02*
X220120000Y-124845000I0J-135000D01*
G01*
X220120000Y-125115000D01*
G75*
G02*
X219985000Y-125250000I-135000J0D01*
G01*
G37*
G36*
G01*
X219985000Y-126270000D02*
X219615000Y-126270000D01*
G75*
G02*
X219480000Y-126135000I0J135000D01*
G01*
X219480000Y-125865000D01*
G75*
G02*
X219615000Y-125730000I135000J0D01*
G01*
X219985000Y-125730000D01*
G75*
G02*
X220120000Y-125865000I0J-135000D01*
G01*
X220120000Y-126135000D01*
G75*
G02*
X219985000Y-126270000I-135000J0D01*
G01*
G37*
%TD*%
%TO.C,R7*%
G36*
G01*
X200885000Y-125260000D02*
X200515000Y-125260000D01*
G75*
G02*
X200380000Y-125125000I0J135000D01*
G01*
X200380000Y-124855000D01*
G75*
G02*
X200515000Y-124720000I135000J0D01*
G01*
X200885000Y-124720000D01*
G75*
G02*
X201020000Y-124855000I0J-135000D01*
G01*
X201020000Y-125125000D01*
G75*
G02*
X200885000Y-125260000I-135000J0D01*
G01*
G37*
G36*
G01*
X200885000Y-126280000D02*
X200515000Y-126280000D01*
G75*
G02*
X200380000Y-126145000I0J135000D01*
G01*
X200380000Y-125875000D01*
G75*
G02*
X200515000Y-125740000I135000J0D01*
G01*
X200885000Y-125740000D01*
G75*
G02*
X201020000Y-125875000I0J-135000D01*
G01*
X201020000Y-126145000D01*
G75*
G02*
X200885000Y-126280000I-135000J0D01*
G01*
G37*
%TD*%
%TO.C,R6*%
G36*
G01*
X181885000Y-125260000D02*
X181515000Y-125260000D01*
G75*
G02*
X181380000Y-125125000I0J135000D01*
G01*
X181380000Y-124855000D01*
G75*
G02*
X181515000Y-124720000I135000J0D01*
G01*
X181885000Y-124720000D01*
G75*
G02*
X182020000Y-124855000I0J-135000D01*
G01*
X182020000Y-125125000D01*
G75*
G02*
X181885000Y-125260000I-135000J0D01*
G01*
G37*
G36*
G01*
X181885000Y-126280000D02*
X181515000Y-126280000D01*
G75*
G02*
X181380000Y-126145000I0J135000D01*
G01*
X181380000Y-125875000D01*
G75*
G02*
X181515000Y-125740000I135000J0D01*
G01*
X181885000Y-125740000D01*
G75*
G02*
X182020000Y-125875000I0J-135000D01*
G01*
X182020000Y-126145000D01*
G75*
G02*
X181885000Y-126280000I-135000J0D01*
G01*
G37*
%TD*%
%TO.C,R5*%
G36*
G01*
X219985000Y-106750000D02*
X219615000Y-106750000D01*
G75*
G02*
X219480000Y-106615000I0J135000D01*
G01*
X219480000Y-106345000D01*
G75*
G02*
X219615000Y-106210000I135000J0D01*
G01*
X219985000Y-106210000D01*
G75*
G02*
X220120000Y-106345000I0J-135000D01*
G01*
X220120000Y-106615000D01*
G75*
G02*
X219985000Y-106750000I-135000J0D01*
G01*
G37*
G36*
G01*
X219985000Y-107770000D02*
X219615000Y-107770000D01*
G75*
G02*
X219480000Y-107635000I0J135000D01*
G01*
X219480000Y-107365000D01*
G75*
G02*
X219615000Y-107230000I135000J0D01*
G01*
X219985000Y-107230000D01*
G75*
G02*
X220120000Y-107365000I0J-135000D01*
G01*
X220120000Y-107635000D01*
G75*
G02*
X219985000Y-107770000I-135000J0D01*
G01*
G37*
%TD*%
%TO.C,R4*%
G36*
G01*
X200885000Y-106750000D02*
X200515000Y-106750000D01*
G75*
G02*
X200380000Y-106615000I0J135000D01*
G01*
X200380000Y-106345000D01*
G75*
G02*
X200515000Y-106210000I135000J0D01*
G01*
X200885000Y-106210000D01*
G75*
G02*
X201020000Y-106345000I0J-135000D01*
G01*
X201020000Y-106615000D01*
G75*
G02*
X200885000Y-106750000I-135000J0D01*
G01*
G37*
G36*
G01*
X200885000Y-107770000D02*
X200515000Y-107770000D01*
G75*
G02*
X200380000Y-107635000I0J135000D01*
G01*
X200380000Y-107365000D01*
G75*
G02*
X200515000Y-107230000I135000J0D01*
G01*
X200885000Y-107230000D01*
G75*
G02*
X201020000Y-107365000I0J-135000D01*
G01*
X201020000Y-107635000D01*
G75*
G02*
X200885000Y-107770000I-135000J0D01*
G01*
G37*
%TD*%
%TO.C,R3*%
G36*
G01*
X181885000Y-106750000D02*
X181515000Y-106750000D01*
G75*
G02*
X181380000Y-106615000I0J135000D01*
G01*
X181380000Y-106345000D01*
G75*
G02*
X181515000Y-106210000I135000J0D01*
G01*
X181885000Y-106210000D01*
G75*
G02*
X182020000Y-106345000I0J-135000D01*
G01*
X182020000Y-106615000D01*
G75*
G02*
X181885000Y-106750000I-135000J0D01*
G01*
G37*
G36*
G01*
X181885000Y-107770000D02*
X181515000Y-107770000D01*
G75*
G02*
X181380000Y-107635000I0J135000D01*
G01*
X181380000Y-107365000D01*
G75*
G02*
X181515000Y-107230000I135000J0D01*
G01*
X181885000Y-107230000D01*
G75*
G02*
X182020000Y-107365000I0J-135000D01*
G01*
X182020000Y-107635000D01*
G75*
G02*
X181885000Y-107770000I-135000J0D01*
G01*
G37*
%TD*%
%TO.C,R1*%
G36*
G01*
X75565000Y-128990000D02*
X75935000Y-128990000D01*
G75*
G02*
X76070000Y-129125000I0J-135000D01*
G01*
X76070000Y-129395000D01*
G75*
G02*
X75935000Y-129530000I-135000J0D01*
G01*
X75565000Y-129530000D01*
G75*
G02*
X75430000Y-129395000I0J135000D01*
G01*
X75430000Y-129125000D01*
G75*
G02*
X75565000Y-128990000I135000J0D01*
G01*
G37*
G36*
G01*
X75565000Y-127970000D02*
X75935000Y-127970000D01*
G75*
G02*
X76070000Y-128105000I0J-135000D01*
G01*
X76070000Y-128375000D01*
G75*
G02*
X75935000Y-128510000I-135000J0D01*
G01*
X75565000Y-128510000D01*
G75*
G02*
X75430000Y-128375000I0J135000D01*
G01*
X75430000Y-128105000D01*
G75*
G02*
X75565000Y-127970000I135000J0D01*
G01*
G37*
%TD*%
D24*
%TO.C,Q3*%
X169900000Y-129200000D03*
X168950000Y-127200000D03*
X170850000Y-127200000D03*
%TD*%
D25*
%TO.C,Q2*%
X172900000Y-124450000D03*
X170900000Y-125400000D03*
X170900000Y-123500000D03*
%TD*%
D24*
%TO.C,Q1*%
X168250000Y-90750000D03*
X167300000Y-88750000D03*
X169200000Y-88750000D03*
%TD*%
%TO.C,FB10*%
G36*
G01*
X199312500Y-75618750D02*
X199312500Y-76381250D01*
G75*
G02*
X199093750Y-76600000I-218750J0D01*
G01*
X198656250Y-76600000D01*
G75*
G02*
X198437500Y-76381250I0J218750D01*
G01*
X198437500Y-75618750D01*
G75*
G02*
X198656250Y-75400000I218750J0D01*
G01*
X199093750Y-75400000D01*
G75*
G02*
X199312500Y-75618750I0J-218750D01*
G01*
G37*
G36*
G01*
X201437500Y-75618750D02*
X201437500Y-76381250D01*
G75*
G02*
X201218750Y-76600000I-218750J0D01*
G01*
X200781250Y-76600000D01*
G75*
G02*
X200562500Y-76381250I0J218750D01*
G01*
X200562500Y-75618750D01*
G75*
G02*
X200781250Y-75400000I218750J0D01*
G01*
X201218750Y-75400000D01*
G75*
G02*
X201437500Y-75618750I0J-218750D01*
G01*
G37*
%TD*%
%TO.C,FB9*%
G36*
G01*
X207487500Y-76381250D02*
X207487500Y-75618750D01*
G75*
G02*
X207706250Y-75400000I218750J0D01*
G01*
X208143750Y-75400000D01*
G75*
G02*
X208362500Y-75618750I0J-218750D01*
G01*
X208362500Y-76381250D01*
G75*
G02*
X208143750Y-76600000I-218750J0D01*
G01*
X207706250Y-76600000D01*
G75*
G02*
X207487500Y-76381250I0J218750D01*
G01*
G37*
G36*
G01*
X205362500Y-76381250D02*
X205362500Y-75618750D01*
G75*
G02*
X205581250Y-75400000I218750J0D01*
G01*
X206018750Y-75400000D01*
G75*
G02*
X206237500Y-75618750I0J-218750D01*
G01*
X206237500Y-76381250D01*
G75*
G02*
X206018750Y-76600000I-218750J0D01*
G01*
X205581250Y-76600000D01*
G75*
G02*
X205362500Y-76381250I0J218750D01*
G01*
G37*
%TD*%
%TO.C,FB8*%
G36*
G01*
X206875000Y-83631250D02*
X206875000Y-82868750D01*
G75*
G02*
X207093750Y-82650000I218750J0D01*
G01*
X207531250Y-82650000D01*
G75*
G02*
X207750000Y-82868750I0J-218750D01*
G01*
X207750000Y-83631250D01*
G75*
G02*
X207531250Y-83850000I-218750J0D01*
G01*
X207093750Y-83850000D01*
G75*
G02*
X206875000Y-83631250I0J218750D01*
G01*
G37*
G36*
G01*
X204750000Y-83631250D02*
X204750000Y-82868750D01*
G75*
G02*
X204968750Y-82650000I218750J0D01*
G01*
X205406250Y-82650000D01*
G75*
G02*
X205625000Y-82868750I0J-218750D01*
G01*
X205625000Y-83631250D01*
G75*
G02*
X205406250Y-83850000I-218750J0D01*
G01*
X204968750Y-83850000D01*
G75*
G02*
X204750000Y-83631250I0J218750D01*
G01*
G37*
%TD*%
%TO.C,FB7*%
G36*
G01*
X204375000Y-89131250D02*
X204375000Y-88368750D01*
G75*
G02*
X204593750Y-88150000I218750J0D01*
G01*
X205031250Y-88150000D01*
G75*
G02*
X205250000Y-88368750I0J-218750D01*
G01*
X205250000Y-89131250D01*
G75*
G02*
X205031250Y-89350000I-218750J0D01*
G01*
X204593750Y-89350000D01*
G75*
G02*
X204375000Y-89131250I0J218750D01*
G01*
G37*
G36*
G01*
X202250000Y-89131250D02*
X202250000Y-88368750D01*
G75*
G02*
X202468750Y-88150000I218750J0D01*
G01*
X202906250Y-88150000D01*
G75*
G02*
X203125000Y-88368750I0J-218750D01*
G01*
X203125000Y-89131250D01*
G75*
G02*
X202906250Y-89350000I-218750J0D01*
G01*
X202468750Y-89350000D01*
G75*
G02*
X202250000Y-89131250I0J218750D01*
G01*
G37*
%TD*%
%TO.C,FB6*%
G36*
G01*
X213775000Y-71218750D02*
X213775000Y-71981250D01*
G75*
G02*
X213556250Y-72200000I-218750J0D01*
G01*
X213118750Y-72200000D01*
G75*
G02*
X212900000Y-71981250I0J218750D01*
G01*
X212900000Y-71218750D01*
G75*
G02*
X213118750Y-71000000I218750J0D01*
G01*
X213556250Y-71000000D01*
G75*
G02*
X213775000Y-71218750I0J-218750D01*
G01*
G37*
G36*
G01*
X215900000Y-71218750D02*
X215900000Y-71981250D01*
G75*
G02*
X215681250Y-72200000I-218750J0D01*
G01*
X215243750Y-72200000D01*
G75*
G02*
X215025000Y-71981250I0J218750D01*
G01*
X215025000Y-71218750D01*
G75*
G02*
X215243750Y-71000000I218750J0D01*
G01*
X215681250Y-71000000D01*
G75*
G02*
X215900000Y-71218750I0J-218750D01*
G01*
G37*
%TD*%
%TO.C,FB5*%
G36*
G01*
X213712500Y-82418750D02*
X213712500Y-83181250D01*
G75*
G02*
X213493750Y-83400000I-218750J0D01*
G01*
X213056250Y-83400000D01*
G75*
G02*
X212837500Y-83181250I0J218750D01*
G01*
X212837500Y-82418750D01*
G75*
G02*
X213056250Y-82200000I218750J0D01*
G01*
X213493750Y-82200000D01*
G75*
G02*
X213712500Y-82418750I0J-218750D01*
G01*
G37*
G36*
G01*
X215837500Y-82418750D02*
X215837500Y-83181250D01*
G75*
G02*
X215618750Y-83400000I-218750J0D01*
G01*
X215181250Y-83400000D01*
G75*
G02*
X214962500Y-83181250I0J218750D01*
G01*
X214962500Y-82418750D01*
G75*
G02*
X215181250Y-82200000I218750J0D01*
G01*
X215618750Y-82200000D01*
G75*
G02*
X215837500Y-82418750I0J-218750D01*
G01*
G37*
%TD*%
%TO.C,FB4*%
G36*
G01*
X170687500Y-102381250D02*
X170687500Y-101618750D01*
G75*
G02*
X170906250Y-101400000I218750J0D01*
G01*
X171343750Y-101400000D01*
G75*
G02*
X171562500Y-101618750I0J-218750D01*
G01*
X171562500Y-102381250D01*
G75*
G02*
X171343750Y-102600000I-218750J0D01*
G01*
X170906250Y-102600000D01*
G75*
G02*
X170687500Y-102381250I0J218750D01*
G01*
G37*
G36*
G01*
X168562500Y-102381250D02*
X168562500Y-101618750D01*
G75*
G02*
X168781250Y-101400000I218750J0D01*
G01*
X169218750Y-101400000D01*
G75*
G02*
X169437500Y-101618750I0J-218750D01*
G01*
X169437500Y-102381250D01*
G75*
G02*
X169218750Y-102600000I-218750J0D01*
G01*
X168781250Y-102600000D01*
G75*
G02*
X168562500Y-102381250I0J218750D01*
G01*
G37*
%TD*%
%TO.C,FB3*%
G36*
G01*
X162312500Y-101618750D02*
X162312500Y-102381250D01*
G75*
G02*
X162093750Y-102600000I-218750J0D01*
G01*
X161656250Y-102600000D01*
G75*
G02*
X161437500Y-102381250I0J218750D01*
G01*
X161437500Y-101618750D01*
G75*
G02*
X161656250Y-101400000I218750J0D01*
G01*
X162093750Y-101400000D01*
G75*
G02*
X162312500Y-101618750I0J-218750D01*
G01*
G37*
G36*
G01*
X164437500Y-101618750D02*
X164437500Y-102381250D01*
G75*
G02*
X164218750Y-102600000I-218750J0D01*
G01*
X163781250Y-102600000D01*
G75*
G02*
X163562500Y-102381250I0J218750D01*
G01*
X163562500Y-101618750D01*
G75*
G02*
X163781250Y-101400000I218750J0D01*
G01*
X164218750Y-101400000D01*
G75*
G02*
X164437500Y-101618750I0J-218750D01*
G01*
G37*
%TD*%
%TO.C,FB2*%
G36*
G01*
X178575000Y-78568750D02*
X178575000Y-79331250D01*
G75*
G02*
X178356250Y-79550000I-218750J0D01*
G01*
X177918750Y-79550000D01*
G75*
G02*
X177700000Y-79331250I0J218750D01*
G01*
X177700000Y-78568750D01*
G75*
G02*
X177918750Y-78350000I218750J0D01*
G01*
X178356250Y-78350000D01*
G75*
G02*
X178575000Y-78568750I0J-218750D01*
G01*
G37*
G36*
G01*
X180700000Y-78568750D02*
X180700000Y-79331250D01*
G75*
G02*
X180481250Y-79550000I-218750J0D01*
G01*
X180043750Y-79550000D01*
G75*
G02*
X179825000Y-79331250I0J218750D01*
G01*
X179825000Y-78568750D01*
G75*
G02*
X180043750Y-78350000I218750J0D01*
G01*
X180481250Y-78350000D01*
G75*
G02*
X180700000Y-78568750I0J-218750D01*
G01*
G37*
%TD*%
%TO.C,FB1*%
G36*
G01*
X178575000Y-76668750D02*
X178575000Y-77431250D01*
G75*
G02*
X178356250Y-77650000I-218750J0D01*
G01*
X177918750Y-77650000D01*
G75*
G02*
X177700000Y-77431250I0J218750D01*
G01*
X177700000Y-76668750D01*
G75*
G02*
X177918750Y-76450000I218750J0D01*
G01*
X178356250Y-76450000D01*
G75*
G02*
X178575000Y-76668750I0J-218750D01*
G01*
G37*
G36*
G01*
X180700000Y-76668750D02*
X180700000Y-77431250D01*
G75*
G02*
X180481250Y-77650000I-218750J0D01*
G01*
X180043750Y-77650000D01*
G75*
G02*
X179825000Y-77431250I0J218750D01*
G01*
X179825000Y-76668750D01*
G75*
G02*
X180043750Y-76450000I218750J0D01*
G01*
X180481250Y-76450000D01*
G75*
G02*
X180700000Y-76668750I0J-218750D01*
G01*
G37*
%TD*%
D26*
%TO.C,D14*%
X168580000Y-68400000D03*
X166820000Y-68400000D03*
D27*
X167700000Y-72400000D03*
%TD*%
D28*
%TO.C,D12*%
X159200000Y-76000000D03*
X161400000Y-76000000D03*
%TD*%
%TO.C,D11*%
G36*
G01*
X144056250Y-110350000D02*
X143543750Y-110350000D01*
G75*
G02*
X143325000Y-110131250I0J218750D01*
G01*
X143325000Y-109693750D01*
G75*
G02*
X143543750Y-109475000I218750J0D01*
G01*
X144056250Y-109475000D01*
G75*
G02*
X144275000Y-109693750I0J-218750D01*
G01*
X144275000Y-110131250D01*
G75*
G02*
X144056250Y-110350000I-218750J0D01*
G01*
G37*
G36*
G01*
X144056250Y-111925000D02*
X143543750Y-111925000D01*
G75*
G02*
X143325000Y-111706250I0J218750D01*
G01*
X143325000Y-111268750D01*
G75*
G02*
X143543750Y-111050000I218750J0D01*
G01*
X144056250Y-111050000D01*
G75*
G02*
X144275000Y-111268750I0J-218750D01*
G01*
X144275000Y-111706250D01*
G75*
G02*
X144056250Y-111925000I-218750J0D01*
G01*
G37*
%TD*%
%TO.C,D10*%
G36*
G01*
X142456250Y-110350000D02*
X141943750Y-110350000D01*
G75*
G02*
X141725000Y-110131250I0J218750D01*
G01*
X141725000Y-109693750D01*
G75*
G02*
X141943750Y-109475000I218750J0D01*
G01*
X142456250Y-109475000D01*
G75*
G02*
X142675000Y-109693750I0J-218750D01*
G01*
X142675000Y-110131250D01*
G75*
G02*
X142456250Y-110350000I-218750J0D01*
G01*
G37*
G36*
G01*
X142456250Y-111925000D02*
X141943750Y-111925000D01*
G75*
G02*
X141725000Y-111706250I0J218750D01*
G01*
X141725000Y-111268750D01*
G75*
G02*
X141943750Y-111050000I218750J0D01*
G01*
X142456250Y-111050000D01*
G75*
G02*
X142675000Y-111268750I0J-218750D01*
G01*
X142675000Y-111706250D01*
G75*
G02*
X142456250Y-111925000I-218750J0D01*
G01*
G37*
%TD*%
D29*
%TO.C,D8*%
X184100000Y-78950000D03*
X184100000Y-77050000D03*
X186300000Y-77050000D03*
D30*
X186300000Y-78770000D03*
%TD*%
%TO.C,D1*%
G36*
G01*
X73850000Y-129556250D02*
X73850000Y-129043750D01*
G75*
G02*
X74068750Y-128825000I218750J0D01*
G01*
X74506250Y-128825000D01*
G75*
G02*
X74725000Y-129043750I0J-218750D01*
G01*
X74725000Y-129556250D01*
G75*
G02*
X74506250Y-129775000I-218750J0D01*
G01*
X74068750Y-129775000D01*
G75*
G02*
X73850000Y-129556250I0J218750D01*
G01*
G37*
G36*
G01*
X72275000Y-129556250D02*
X72275000Y-129043750D01*
G75*
G02*
X72493750Y-128825000I218750J0D01*
G01*
X72931250Y-128825000D01*
G75*
G02*
X73150000Y-129043750I0J-218750D01*
G01*
X73150000Y-129556250D01*
G75*
G02*
X72931250Y-129775000I-218750J0D01*
G01*
X72493750Y-129775000D01*
G75*
G02*
X72275000Y-129556250I0J218750D01*
G01*
G37*
%TD*%
%TO.C,C42*%
G36*
G01*
X91675000Y-124750000D02*
X91675000Y-125250000D01*
G75*
G02*
X91450000Y-125475000I-225000J0D01*
G01*
X91000000Y-125475000D01*
G75*
G02*
X90775000Y-125250000I0J225000D01*
G01*
X90775000Y-124750000D01*
G75*
G02*
X91000000Y-124525000I225000J0D01*
G01*
X91450000Y-124525000D01*
G75*
G02*
X91675000Y-124750000I0J-225000D01*
G01*
G37*
G36*
G01*
X93225000Y-124750000D02*
X93225000Y-125250000D01*
G75*
G02*
X93000000Y-125475000I-225000J0D01*
G01*
X92550000Y-125475000D01*
G75*
G02*
X92325000Y-125250000I0J225000D01*
G01*
X92325000Y-124750000D01*
G75*
G02*
X92550000Y-124525000I225000J0D01*
G01*
X93000000Y-124525000D01*
G75*
G02*
X93225000Y-124750000I0J-225000D01*
G01*
G37*
%TD*%
%TO.C,C41*%
G36*
G01*
X144675000Y-124750000D02*
X144675000Y-125250000D01*
G75*
G02*
X144450000Y-125475000I-225000J0D01*
G01*
X144000000Y-125475000D01*
G75*
G02*
X143775000Y-125250000I0J225000D01*
G01*
X143775000Y-124750000D01*
G75*
G02*
X144000000Y-124525000I225000J0D01*
G01*
X144450000Y-124525000D01*
G75*
G02*
X144675000Y-124750000I0J-225000D01*
G01*
G37*
G36*
G01*
X146225000Y-124750000D02*
X146225000Y-125250000D01*
G75*
G02*
X146000000Y-125475000I-225000J0D01*
G01*
X145550000Y-125475000D01*
G75*
G02*
X145325000Y-125250000I0J225000D01*
G01*
X145325000Y-124750000D01*
G75*
G02*
X145550000Y-124525000I225000J0D01*
G01*
X146000000Y-124525000D01*
G75*
G02*
X146225000Y-124750000I0J-225000D01*
G01*
G37*
%TD*%
%TO.C,C40*%
G36*
G01*
X83475000Y-125150000D02*
X83475000Y-125650000D01*
G75*
G02*
X83250000Y-125875000I-225000J0D01*
G01*
X82800000Y-125875000D01*
G75*
G02*
X82575000Y-125650000I0J225000D01*
G01*
X82575000Y-125150000D01*
G75*
G02*
X82800000Y-124925000I225000J0D01*
G01*
X83250000Y-124925000D01*
G75*
G02*
X83475000Y-125150000I0J-225000D01*
G01*
G37*
G36*
G01*
X85025000Y-125150000D02*
X85025000Y-125650000D01*
G75*
G02*
X84800000Y-125875000I-225000J0D01*
G01*
X84350000Y-125875000D01*
G75*
G02*
X84125000Y-125650000I0J225000D01*
G01*
X84125000Y-125150000D01*
G75*
G02*
X84350000Y-124925000I225000J0D01*
G01*
X84800000Y-124925000D01*
G75*
G02*
X85025000Y-125150000I0J-225000D01*
G01*
G37*
%TD*%
%TO.C,C39*%
G36*
G01*
X114775000Y-102950000D02*
X113825000Y-102950000D01*
G75*
G02*
X113575000Y-102700000I0J250000D01*
G01*
X113575000Y-102200000D01*
G75*
G02*
X113825000Y-101950000I250000J0D01*
G01*
X114775000Y-101950000D01*
G75*
G02*
X115025000Y-102200000I0J-250000D01*
G01*
X115025000Y-102700000D01*
G75*
G02*
X114775000Y-102950000I-250000J0D01*
G01*
G37*
G36*
G01*
X114775000Y-104850000D02*
X113825000Y-104850000D01*
G75*
G02*
X113575000Y-104600000I0J250000D01*
G01*
X113575000Y-104100000D01*
G75*
G02*
X113825000Y-103850000I250000J0D01*
G01*
X114775000Y-103850000D01*
G75*
G02*
X115025000Y-104100000I0J-250000D01*
G01*
X115025000Y-104600000D01*
G75*
G02*
X114775000Y-104850000I-250000J0D01*
G01*
G37*
%TD*%
%TO.C,C38*%
G36*
G01*
X155549999Y-81375000D02*
X156850001Y-81375000D01*
G75*
G02*
X157100000Y-81624999I0J-249999D01*
G01*
X157100000Y-82275001D01*
G75*
G02*
X156850001Y-82525000I-249999J0D01*
G01*
X155549999Y-82525000D01*
G75*
G02*
X155300000Y-82275001I0J249999D01*
G01*
X155300000Y-81624999D01*
G75*
G02*
X155549999Y-81375000I249999J0D01*
G01*
G37*
G36*
G01*
X155549999Y-78425000D02*
X156850001Y-78425000D01*
G75*
G02*
X157100000Y-78674999I0J-249999D01*
G01*
X157100000Y-79325001D01*
G75*
G02*
X156850001Y-79575000I-249999J0D01*
G01*
X155549999Y-79575000D01*
G75*
G02*
X155300000Y-79325001I0J249999D01*
G01*
X155300000Y-78674999D01*
G75*
G02*
X155549999Y-78425000I249999J0D01*
G01*
G37*
%TD*%
%TO.C,C36*%
G36*
G01*
X168100000Y-80150001D02*
X168100000Y-78849999D01*
G75*
G02*
X168349999Y-78600000I249999J0D01*
G01*
X169000001Y-78600000D01*
G75*
G02*
X169250000Y-78849999I0J-249999D01*
G01*
X169250000Y-80150001D01*
G75*
G02*
X169000001Y-80400000I-249999J0D01*
G01*
X168349999Y-80400000D01*
G75*
G02*
X168100000Y-80150001I0J249999D01*
G01*
G37*
G36*
G01*
X165150000Y-80150001D02*
X165150000Y-78849999D01*
G75*
G02*
X165399999Y-78600000I249999J0D01*
G01*
X166050001Y-78600000D01*
G75*
G02*
X166300000Y-78849999I0J-249999D01*
G01*
X166300000Y-80150001D01*
G75*
G02*
X166050001Y-80400000I-249999J0D01*
G01*
X165399999Y-80400000D01*
G75*
G02*
X165150000Y-80150001I0J249999D01*
G01*
G37*
%TD*%
%TO.C,C35*%
G36*
G01*
X168100000Y-77750001D02*
X168100000Y-76449999D01*
G75*
G02*
X168349999Y-76200000I249999J0D01*
G01*
X169000001Y-76200000D01*
G75*
G02*
X169250000Y-76449999I0J-249999D01*
G01*
X169250000Y-77750001D01*
G75*
G02*
X169000001Y-78000000I-249999J0D01*
G01*
X168349999Y-78000000D01*
G75*
G02*
X168100000Y-77750001I0J249999D01*
G01*
G37*
G36*
G01*
X165150000Y-77750001D02*
X165150000Y-76449999D01*
G75*
G02*
X165399999Y-76200000I249999J0D01*
G01*
X166050001Y-76200000D01*
G75*
G02*
X166300000Y-76449999I0J-249999D01*
G01*
X166300000Y-77750001D01*
G75*
G02*
X166050001Y-78000000I-249999J0D01*
G01*
X165399999Y-78000000D01*
G75*
G02*
X165150000Y-77750001I0J249999D01*
G01*
G37*
%TD*%
%TO.C,C34*%
G36*
G01*
X166725000Y-75250000D02*
X166725000Y-74750000D01*
G75*
G02*
X166950000Y-74525000I225000J0D01*
G01*
X167400000Y-74525000D01*
G75*
G02*
X167625000Y-74750000I0J-225000D01*
G01*
X167625000Y-75250000D01*
G75*
G02*
X167400000Y-75475000I-225000J0D01*
G01*
X166950000Y-75475000D01*
G75*
G02*
X166725000Y-75250000I0J225000D01*
G01*
G37*
G36*
G01*
X165175000Y-75250000D02*
X165175000Y-74750000D01*
G75*
G02*
X165400000Y-74525000I225000J0D01*
G01*
X165850000Y-74525000D01*
G75*
G02*
X166075000Y-74750000I0J-225000D01*
G01*
X166075000Y-75250000D01*
G75*
G02*
X165850000Y-75475000I-225000J0D01*
G01*
X165400000Y-75475000D01*
G75*
G02*
X165175000Y-75250000I0J225000D01*
G01*
G37*
%TD*%
%TO.C,C33*%
G36*
G01*
X203100000Y-75750000D02*
X203100000Y-76250000D01*
G75*
G02*
X202875000Y-76475000I-225000J0D01*
G01*
X202425000Y-76475000D01*
G75*
G02*
X202200000Y-76250000I0J225000D01*
G01*
X202200000Y-75750000D01*
G75*
G02*
X202425000Y-75525000I225000J0D01*
G01*
X202875000Y-75525000D01*
G75*
G02*
X203100000Y-75750000I0J-225000D01*
G01*
G37*
G36*
G01*
X204650000Y-75750000D02*
X204650000Y-76250000D01*
G75*
G02*
X204425000Y-76475000I-225000J0D01*
G01*
X203975000Y-76475000D01*
G75*
G02*
X203750000Y-76250000I0J225000D01*
G01*
X203750000Y-75750000D01*
G75*
G02*
X203975000Y-75525000I225000J0D01*
G01*
X204425000Y-75525000D01*
G75*
G02*
X204650000Y-75750000I0J-225000D01*
G01*
G37*
%TD*%
%TO.C,C32*%
G36*
G01*
X205500000Y-85425000D02*
X205000000Y-85425000D01*
G75*
G02*
X204775000Y-85200000I0J225000D01*
G01*
X204775000Y-84750000D01*
G75*
G02*
X205000000Y-84525000I225000J0D01*
G01*
X205500000Y-84525000D01*
G75*
G02*
X205725000Y-84750000I0J-225000D01*
G01*
X205725000Y-85200000D01*
G75*
G02*
X205500000Y-85425000I-225000J0D01*
G01*
G37*
G36*
G01*
X205500000Y-86975000D02*
X205000000Y-86975000D01*
G75*
G02*
X204775000Y-86750000I0J225000D01*
G01*
X204775000Y-86300000D01*
G75*
G02*
X205000000Y-86075000I225000J0D01*
G01*
X205500000Y-86075000D01*
G75*
G02*
X205725000Y-86300000I0J-225000D01*
G01*
X205725000Y-86750000D01*
G75*
G02*
X205500000Y-86975000I-225000J0D01*
G01*
G37*
%TD*%
%TO.C,C29*%
G36*
G01*
X147350000Y-101325000D02*
X147850000Y-101325000D01*
G75*
G02*
X148075000Y-101550000I0J-225000D01*
G01*
X148075000Y-102000000D01*
G75*
G02*
X147850000Y-102225000I-225000J0D01*
G01*
X147350000Y-102225000D01*
G75*
G02*
X147125000Y-102000000I0J225000D01*
G01*
X147125000Y-101550000D01*
G75*
G02*
X147350000Y-101325000I225000J0D01*
G01*
G37*
G36*
G01*
X147350000Y-99775000D02*
X147850000Y-99775000D01*
G75*
G02*
X148075000Y-100000000I0J-225000D01*
G01*
X148075000Y-100450000D01*
G75*
G02*
X147850000Y-100675000I-225000J0D01*
G01*
X147350000Y-100675000D01*
G75*
G02*
X147125000Y-100450000I0J225000D01*
G01*
X147125000Y-100000000D01*
G75*
G02*
X147350000Y-99775000I225000J0D01*
G01*
G37*
%TD*%
%TO.C,C27*%
G36*
G01*
X214275000Y-80750000D02*
X214275000Y-81250000D01*
G75*
G02*
X214050000Y-81475000I-225000J0D01*
G01*
X213600000Y-81475000D01*
G75*
G02*
X213375000Y-81250000I0J225000D01*
G01*
X213375000Y-80750000D01*
G75*
G02*
X213600000Y-80525000I225000J0D01*
G01*
X214050000Y-80525000D01*
G75*
G02*
X214275000Y-80750000I0J-225000D01*
G01*
G37*
G36*
G01*
X215825000Y-80750000D02*
X215825000Y-81250000D01*
G75*
G02*
X215600000Y-81475000I-225000J0D01*
G01*
X215150000Y-81475000D01*
G75*
G02*
X214925000Y-81250000I0J225000D01*
G01*
X214925000Y-80750000D01*
G75*
G02*
X215150000Y-80525000I225000J0D01*
G01*
X215600000Y-80525000D01*
G75*
G02*
X215825000Y-80750000I0J-225000D01*
G01*
G37*
%TD*%
%TO.C,C26*%
G36*
G01*
X166825000Y-102250000D02*
X166825000Y-101750000D01*
G75*
G02*
X167050000Y-101525000I225000J0D01*
G01*
X167500000Y-101525000D01*
G75*
G02*
X167725000Y-101750000I0J-225000D01*
G01*
X167725000Y-102250000D01*
G75*
G02*
X167500000Y-102475000I-225000J0D01*
G01*
X167050000Y-102475000D01*
G75*
G02*
X166825000Y-102250000I0J225000D01*
G01*
G37*
G36*
G01*
X165275000Y-102250000D02*
X165275000Y-101750000D01*
G75*
G02*
X165500000Y-101525000I225000J0D01*
G01*
X165950000Y-101525000D01*
G75*
G02*
X166175000Y-101750000I0J-225000D01*
G01*
X166175000Y-102250000D01*
G75*
G02*
X165950000Y-102475000I-225000J0D01*
G01*
X165500000Y-102475000D01*
G75*
G02*
X165275000Y-102250000I0J225000D01*
G01*
G37*
%TD*%
%TO.C,C22*%
G36*
G01*
X181550000Y-78525000D02*
X182050000Y-78525000D01*
G75*
G02*
X182275000Y-78750000I0J-225000D01*
G01*
X182275000Y-79200000D01*
G75*
G02*
X182050000Y-79425000I-225000J0D01*
G01*
X181550000Y-79425000D01*
G75*
G02*
X181325000Y-79200000I0J225000D01*
G01*
X181325000Y-78750000D01*
G75*
G02*
X181550000Y-78525000I225000J0D01*
G01*
G37*
G36*
G01*
X181550000Y-76975000D02*
X182050000Y-76975000D01*
G75*
G02*
X182275000Y-77200000I0J-225000D01*
G01*
X182275000Y-77650000D01*
G75*
G02*
X182050000Y-77875000I-225000J0D01*
G01*
X181550000Y-77875000D01*
G75*
G02*
X181325000Y-77650000I0J225000D01*
G01*
X181325000Y-77200000D01*
G75*
G02*
X181550000Y-76975000I225000J0D01*
G01*
G37*
%TD*%
%TO.C,C19*%
G36*
G01*
X182800000Y-89670000D02*
X182800000Y-89330000D01*
G75*
G02*
X182940000Y-89190000I140000J0D01*
G01*
X183220000Y-89190000D01*
G75*
G02*
X183360000Y-89330000I0J-140000D01*
G01*
X183360000Y-89670000D01*
G75*
G02*
X183220000Y-89810000I-140000J0D01*
G01*
X182940000Y-89810000D01*
G75*
G02*
X182800000Y-89670000I0J140000D01*
G01*
G37*
G36*
G01*
X181840000Y-89670000D02*
X181840000Y-89330000D01*
G75*
G02*
X181980000Y-89190000I140000J0D01*
G01*
X182260000Y-89190000D01*
G75*
G02*
X182400000Y-89330000I0J-140000D01*
G01*
X182400000Y-89670000D01*
G75*
G02*
X182260000Y-89810000I-140000J0D01*
G01*
X181980000Y-89810000D01*
G75*
G02*
X181840000Y-89670000I0J140000D01*
G01*
G37*
%TD*%
%TO.C,C18*%
G36*
G01*
X177600000Y-88230000D02*
X177600000Y-88570000D01*
G75*
G02*
X177460000Y-88710000I-140000J0D01*
G01*
X177180000Y-88710000D01*
G75*
G02*
X177040000Y-88570000I0J140000D01*
G01*
X177040000Y-88230000D01*
G75*
G02*
X177180000Y-88090000I140000J0D01*
G01*
X177460000Y-88090000D01*
G75*
G02*
X177600000Y-88230000I0J-140000D01*
G01*
G37*
G36*
G01*
X178560000Y-88230000D02*
X178560000Y-88570000D01*
G75*
G02*
X178420000Y-88710000I-140000J0D01*
G01*
X178140000Y-88710000D01*
G75*
G02*
X178000000Y-88570000I0J140000D01*
G01*
X178000000Y-88230000D01*
G75*
G02*
X178140000Y-88090000I140000J0D01*
G01*
X178420000Y-88090000D01*
G75*
G02*
X178560000Y-88230000I0J-140000D01*
G01*
G37*
%TD*%
%TO.C,C17*%
G36*
G01*
X86330000Y-93700000D02*
X86670000Y-93700000D01*
G75*
G02*
X86810000Y-93840000I0J-140000D01*
G01*
X86810000Y-94120000D01*
G75*
G02*
X86670000Y-94260000I-140000J0D01*
G01*
X86330000Y-94260000D01*
G75*
G02*
X86190000Y-94120000I0J140000D01*
G01*
X86190000Y-93840000D01*
G75*
G02*
X86330000Y-93700000I140000J0D01*
G01*
G37*
G36*
G01*
X86330000Y-92740000D02*
X86670000Y-92740000D01*
G75*
G02*
X86810000Y-92880000I0J-140000D01*
G01*
X86810000Y-93160000D01*
G75*
G02*
X86670000Y-93300000I-140000J0D01*
G01*
X86330000Y-93300000D01*
G75*
G02*
X86190000Y-93160000I0J140000D01*
G01*
X86190000Y-92880000D01*
G75*
G02*
X86330000Y-92740000I140000J0D01*
G01*
G37*
%TD*%
%TO.C,C15*%
G36*
G01*
X79830000Y-93700000D02*
X80170000Y-93700000D01*
G75*
G02*
X80310000Y-93840000I0J-140000D01*
G01*
X80310000Y-94120000D01*
G75*
G02*
X80170000Y-94260000I-140000J0D01*
G01*
X79830000Y-94260000D01*
G75*
G02*
X79690000Y-94120000I0J140000D01*
G01*
X79690000Y-93840000D01*
G75*
G02*
X79830000Y-93700000I140000J0D01*
G01*
G37*
G36*
G01*
X79830000Y-92740000D02*
X80170000Y-92740000D01*
G75*
G02*
X80310000Y-92880000I0J-140000D01*
G01*
X80310000Y-93160000D01*
G75*
G02*
X80170000Y-93300000I-140000J0D01*
G01*
X79830000Y-93300000D01*
G75*
G02*
X79690000Y-93160000I0J140000D01*
G01*
X79690000Y-92880000D01*
G75*
G02*
X79830000Y-92740000I140000J0D01*
G01*
G37*
%TD*%
%TO.C,C8*%
G36*
G01*
X107830000Y-93700000D02*
X108170000Y-93700000D01*
G75*
G02*
X108310000Y-93840000I0J-140000D01*
G01*
X108310000Y-94120000D01*
G75*
G02*
X108170000Y-94260000I-140000J0D01*
G01*
X107830000Y-94260000D01*
G75*
G02*
X107690000Y-94120000I0J140000D01*
G01*
X107690000Y-93840000D01*
G75*
G02*
X107830000Y-93700000I140000J0D01*
G01*
G37*
G36*
G01*
X107830000Y-92740000D02*
X108170000Y-92740000D01*
G75*
G02*
X108310000Y-92880000I0J-140000D01*
G01*
X108310000Y-93160000D01*
G75*
G02*
X108170000Y-93300000I-140000J0D01*
G01*
X107830000Y-93300000D01*
G75*
G02*
X107690000Y-93160000I0J140000D01*
G01*
X107690000Y-92880000D01*
G75*
G02*
X107830000Y-92740000I140000J0D01*
G01*
G37*
%TD*%
%TO.C,C7*%
G36*
G01*
X96830000Y-93700000D02*
X97170000Y-93700000D01*
G75*
G02*
X97310000Y-93840000I0J-140000D01*
G01*
X97310000Y-94120000D01*
G75*
G02*
X97170000Y-94260000I-140000J0D01*
G01*
X96830000Y-94260000D01*
G75*
G02*
X96690000Y-94120000I0J140000D01*
G01*
X96690000Y-93840000D01*
G75*
G02*
X96830000Y-93700000I140000J0D01*
G01*
G37*
G36*
G01*
X96830000Y-92740000D02*
X97170000Y-92740000D01*
G75*
G02*
X97310000Y-92880000I0J-140000D01*
G01*
X97310000Y-93160000D01*
G75*
G02*
X97170000Y-93300000I-140000J0D01*
G01*
X96830000Y-93300000D01*
G75*
G02*
X96690000Y-93160000I0J140000D01*
G01*
X96690000Y-92880000D01*
G75*
G02*
X96830000Y-92740000I140000J0D01*
G01*
G37*
%TD*%
%TO.C,C2*%
G36*
G01*
X102875000Y-101650000D02*
X102875000Y-102150000D01*
G75*
G02*
X102650000Y-102375000I-225000J0D01*
G01*
X102200000Y-102375000D01*
G75*
G02*
X101975000Y-102150000I0J225000D01*
G01*
X101975000Y-101650000D01*
G75*
G02*
X102200000Y-101425000I225000J0D01*
G01*
X102650000Y-101425000D01*
G75*
G02*
X102875000Y-101650000I0J-225000D01*
G01*
G37*
G36*
G01*
X104425000Y-101650000D02*
X104425000Y-102150000D01*
G75*
G02*
X104200000Y-102375000I-225000J0D01*
G01*
X103750000Y-102375000D01*
G75*
G02*
X103525000Y-102150000I0J225000D01*
G01*
X103525000Y-101650000D01*
G75*
G02*
X103750000Y-101425000I225000J0D01*
G01*
X104200000Y-101425000D01*
G75*
G02*
X104425000Y-101650000I0J-225000D01*
G01*
G37*
%TD*%
%TO.C,C1*%
G36*
G01*
X106925000Y-115850000D02*
X106925000Y-115350000D01*
G75*
G02*
X107150000Y-115125000I225000J0D01*
G01*
X107600000Y-115125000D01*
G75*
G02*
X107825000Y-115350000I0J-225000D01*
G01*
X107825000Y-115850000D01*
G75*
G02*
X107600000Y-116075000I-225000J0D01*
G01*
X107150000Y-116075000D01*
G75*
G02*
X106925000Y-115850000I0J225000D01*
G01*
G37*
G36*
G01*
X105375000Y-115850000D02*
X105375000Y-115350000D01*
G75*
G02*
X105600000Y-115125000I225000J0D01*
G01*
X106050000Y-115125000D01*
G75*
G02*
X106275000Y-115350000I0J-225000D01*
G01*
X106275000Y-115850000D01*
G75*
G02*
X106050000Y-116075000I-225000J0D01*
G01*
X105600000Y-116075000D01*
G75*
G02*
X105375000Y-115850000I0J225000D01*
G01*
G37*
%TD*%
M02*
